<?xml version="1.0" encoding="UTF-8" standalone="no"?>
<!-- Created with Inkscape (http://www.inkscape.org/) -->

<svg
   width="260mm"
   height="260mm"
   viewBox="0 0 260 260"
   version="1.1"
   id="svg1"
   xml:space="preserve"
   inkscape:version="1.4 (e7c3feb1, 2024-10-09)"
   sodipodi:docname="drawing.svg"
   xmlns:inkscape="http://www.inkscape.org/namespaces/inkscape"
   xmlns:sodipodi="http://sodipodi.sourceforge.net/DTD/sodipodi-0.dtd"
   xmlns="http://www.w3.org/2000/svg"
   xmlns:svg="http://www.w3.org/2000/svg"><sodipodi:namedview
     id="namedview1"
     pagecolor="#ffffff"
     bordercolor="#000000"
     borderopacity="0.25"
     inkscape:showpageshadow="2"
     inkscape:pageopacity="0.0"
     inkscape:pagecheckerboard="0"
     inkscape:deskcolor="#d1d1d1"
     inkscape:document-units="mm"
     inkscape:zoom="0.43460249"
     inkscape:cx="75.931456"
     inkscape:cy="537.27258"
     inkscape:window-width="1112"
     inkscape:window-height="474"
     inkscape:window-x="22"
     inkscape:window-y="33"
     inkscape:window-maximized="0"
     inkscape:current-layer="layer1" /><defs
     id="defs1" /><g
     inkscape:label="Layer 1"
     inkscape:groupmode="layer"
     id="layer1"><path
       style="fill:#000000"
       d="m 124.02622,17.762087 c 2.54279,-2.023362 4.62325,-3.766394 4.62325,-3.873404 0,-0.250963 -5.53156,-3.493228 -8.34139,-4.8892153 -2.53741,-1.2606449 -7.62679,-3.3956271 -10.26952,-4.3080406 l -1.85397,-0.6400906 -2.72348,2.1865085 c -5.08106,4.079245 -13.914151,13.435309 -13.236807,14.020501 0.145997,0.126134 1.835784,0.741029 3.755083,1.366433 4.002882,1.304341 9.354994,3.611445 13.443704,5.795104 l 2.82222,1.507265 3.57882,-3.743111 c 1.96836,-2.058711 5.6593,-5.398589 8.20209,-7.42195 z"
       id="path3821" /><path
       style="fill:#000000"
       d="m 108.36475,28.332294 c -4.20024,-2.258359 -11.068549,-5.094129 -15.434026,-6.372362 -1.503715,-0.440295 -2.734027,-0.983184 -2.734027,-1.20642 0,-2.179939 15.783523,-17.797214 17.986673,-17.797214 3.43179,0 22.9088,9.676009 22.35932,11.107918 -0.10214,0.26619 -1.87959,1.749822 -3.94988,3.29696 -3.6244,2.708527 -10.70322,9.380379 -12.62286,11.897159 -0.50954,0.668046 -1.10604,1.202435 -1.32554,1.18753 -0.21951,-0.0149 -2.14535,-0.966011 -4.27966,-2.113571 z"
       id="path3820" /><path
       style="fill:#000000"
       d="m 156.2071,28.566751 c 4.53371,-2.127468 9.35818,-3.876999 13.81919,-5.01135 l 3.74715,-0.952829 -1.48351,-2.116342 C 168.25535,14.730595 159.62581,5.8033463 158.08039,5.7864966 155.97344,5.7635245 147.30118,8.9668257 141.23601,12.008357 l -4.1704,2.091356 3.3439,2.899096 c 3.7188,3.224131 7.92089,7.569375 10.55686,10.916516 0.95502,1.212674 1.78002,2.204861 1.83335,2.204861 0.0533,0 1.58664,-0.699045 3.40738,-1.553435 z"
       id="path3819" /><path
       style="fill:#000000"
       d="m 150.18717,29.025112 c -2.95643,-3.8124 -6.95407,-7.935321 -11.08127,-11.428536 -2.06317,-1.74625 -3.75177,-3.342862 -3.75244,-3.548027 -0.001,-0.423492 4.26079,-2.776119 9.04555,-4.9929602 3.86718,-1.7917099 12.46719,-4.6881797 13.91986,-4.6881797 0.86183,0 1.86374,0.8224643 5.91348,4.8543698 4.92092,4.8992371 11.46037,13.1097471 11.12911,13.9729891 -0.0927,0.24147 -1.12189,0.635961 -2.28718,0.876648 -3.65475,0.754876 -12.33676,3.753725 -16.34281,5.644962 -2.11442,0.998206 -4.01942,1.808691 -4.23334,1.801078 -0.21391,-0.0076 -1.25385,-1.129167 -2.31096,-2.492344 z"
       id="path3818" /><path
       style="fill:#000000"
       d="m 75.391687,41.320881 c 1.948814,-5.349429 5.435027,-12.723315 7.715055,-16.318546 0.596619,-0.94077 1.024789,-1.770462 0.95149,-1.843761 -0.0733,-0.0733 -2.492443,-0.438939 -5.375875,-0.812532 -5.12886,-0.664523 -14.24889,-0.878156 -16.486946,-0.3862 -1.170407,0.257272 -2.758809,2.806076 -5.415263,8.689511 -1.687216,3.736798 -4.576894,12.042205 -4.289725,12.329373 0.09368,0.09368 2.384978,0.02002 5.091773,-0.163684 4.51458,-0.306399 15.863247,0.06963 16.33486,0.541243 0.428408,0.428409 0.727403,0.01571 1.474631,-2.035404 z"
       id="path3817" /><path
       style="fill:#000000"
       d="m 51.038364,43.69869 c 0,-2.436579 4.426772,-13.975384 7.473851,-19.48131 1.6306,-2.946416 1.919202,-3.278873 3.026712,-3.486643 0.673334,-0.126318 4.8171,-0.144192 9.208368,-0.03972 8.043613,0.191364 13.895729,0.894523 14.746658,1.771879 0.31682,0.326659 0.08294,0.957371 -1.008024,2.718402 -2.25011,3.632112 -6.356245,12.203385 -7.653582,15.976326 l -1.187227,3.452715 -3.572128,-0.277715 c -4.362493,-0.339163 -16.22669,-0.334219 -19.006156,0.0079 -2.000213,0.246216 -2.028472,0.237274 -2.028472,-0.641854 z"
       id="path3816" /><path
       style="fill:#000000"
       d="m 135.00608,42.255042 c 3.26045,-2.87724 7.46952,-6.038514 10.84131,-8.142489 1.4067,-0.877773 2.55764,-1.730028 2.55764,-1.893899 0,-1.551317 -13.92552,-15.151245 -15.51397,-15.151245 -1.13682,0 -8.80259,6.269175 -13.32329,10.895963 -1.79347,1.835567 -3.22222,3.372652 -3.175,3.415744 0.0472,0.04309 1.43525,1.072311 3.08448,2.287154 3.49077,2.571334 8.6685,6.979845 10.92137,9.298869 0.86502,0.890415 1.66174,1.618936 1.77049,1.618936 0.10876,0 1.38539,-1.048065 2.83697,-2.329033 z"
       id="path3815" /><path
       style="fill:#000000"
       d="m 131.00749,45.445968 c -1.16211,-1.596107 -8.8192,-8.243975 -12.48313,-10.837819 -1.97929,-1.401226 -3.60648,-2.760381 -3.61597,-3.020343 -0.0705,-1.932252 15.78143,-15.931508 18.03992,-15.931508 0.89517,0 6.414,4.471152 9.87346,7.999106 3.32757,3.393456 7.34715,8.224082 7.34715,8.829622 0,0.246693 -0.67469,0.863292 -1.49931,1.37022 -4.97459,3.058098 -9.60784,6.508435 -13.81494,10.287857 -1.34989,1.212673 -2.62361,2.199872 -2.83047,2.193775 -0.20686,-0.0061 -0.66438,-0.407007 -1.01671,-0.89091 z"
       id="path3814" /><path
       style="fill:#000000"
       d="m 211.72699,46.612547 c -0.9745,-4.772669 -4.21997,-14.009288 -6.55872,-18.666128 l -1.00312,-1.997378 -2.74464,-0.295677 c -3.33112,-0.358858 -17.03524,-0.34986 -18.90344,0.01241 l -1.34213,0.260257 0.87981,1.574159 c 1.85751,3.323444 4.41462,9.33168 5.84456,13.732495 0.81958,2.522361 1.52073,4.719837 1.5581,4.883279 0.0374,0.163443 3.63494,0.357542 7.99459,0.431332 4.51706,0.07646 9.1406,0.344821 10.74886,0.623901 4.06217,0.704904 3.79284,0.747576 3.52613,-0.55865 z"
       id="path3813" /><path
       style="fill:#000000"
       d="m 209.43558,48.583451 c -1.4949,-0.32768 -5.42426,-0.56224 -11.28889,-0.673882 -4.9477,-0.09419 -9.19427,-0.240973 -9.4368,-0.326189 -0.24254,-0.08522 -0.44097,-0.396148 -0.44097,-0.690959 0,-1.887113 -3.61149,-11.364999 -6.55725,-17.208656 -1.05018,-2.083296 -1.90942,-4.01656 -1.90942,-4.296143 0,-0.350035 0.63168,-0.598631 2.02847,-0.798301 2.64172,-0.377631 18.36233,-0.375545 21.0126,0.0028 2.3994,0.342522 2.52288,0.493277 4.96123,6.057243 2.63947,6.02289 5.84531,16.789561 5.36887,18.031128 -0.22278,0.580565 -0.70352,0.568085 -3.73784,-0.09703 z"
       id="path3812" /><path
       style="fill:#000000"
       d="m 101.15523,46.008818 c 1.20996,-2.417849 3.52552,-6.362379 5.14569,-8.765622 1.62018,-2.403243 2.94389,-4.473127 2.94159,-4.599743 -0.02,-1.100481 -17.14698,-8.167711 -19.793914,-8.167711 -1.090292,0 -5.561744,7.805281 -8.184955,14.2875 -2.407107,5.948206 -2.568394,5.250762 1.427239,6.171723 4.044334,0.932185 10.814555,3.144963 13.945017,4.557786 1.21212,0.547047 2.229857,0.976075 2.261637,0.953394 0.03178,-0.02268 1.047745,-2.019477 2.257696,-4.437327 z"
       id="path3811" /><path
       style="fill:#000000"
       d="M 95.841141,50.605604 C 94.191905,49.877435 91.578016,48.848378 90.032498,48.31881 87.044764,47.295071 79.350842,45.289631 78.410973,45.289631 c -0.785565,0 -0.713504,-0.565995 0.524173,-4.117031 1.353452,-3.88321 4.97263,-11.339189 7.397339,-15.239483 l 1.835395,-2.952347 1.45538,0.206093 c 4.891786,0.692714 21.39418,7.758945 21.38436,9.15666 -0.002,0.232373 -0.97101,1.771872 -2.15416,3.421108 -2.74457,3.825741 -5.58625,8.648373 -7.59649,12.892029 -0.86909,1.834661 -1.768498,3.321604 -1.998689,3.304317 -0.230191,-0.01729 -1.767904,-0.627205 -3.41714,-1.355373 z"
       id="path3810" /><path
       style="fill:#000000"
       d="m 175.56892,49.002864 c 1.84326,-0.463683 4.38326,-1.01622 5.64444,-1.22786 1.26118,-0.211639 2.63744,-0.460365 3.05836,-0.552723 l 0.7653,-0.167924 -0.89307,-2.910835 c -0.4912,-1.60096 -1.35898,-4.101461 -1.92842,-5.556669 -1.52395,-3.894491 -5.31589,-11.341881 -5.88633,-11.56078 -0.62108,-0.23833 -4.85519,0.734907 -9.22695,2.120871 -3.38902,1.074408 -10.41715,3.939057 -11.16715,4.551705 -0.2939,0.240069 0.13269,1.188735 1.53079,3.404259 2.11929,3.358362 4.07864,7.095704 5.58663,10.656167 0.53415,1.261181 1.18405,2.795374 1.44422,3.409319 l 0.47302,1.116263 3.62389,-1.219367 c 1.99313,-0.670651 5.132,-1.598743 6.97527,-2.062426 z"
       id="path3809" /><path
       style="fill:#000000"
       d="m 163.22572,51.551436 c -1.24068,-3.436296 -4.68586,-10.328031 -7.03875,-14.080306 -1.17562,-1.874828 -2.1375,-3.640383 -2.1375,-3.923455 0,-1.437616 17.09239,-7.576667 21.61417,-7.763132 l 1.79642,-0.07408 2.67947,5.291667 c 2.29787,4.538036 6.3655,15.199879 6.3655,16.684891 0,0.462952 0.19344,0.413521 -6.52639,1.667711 -2.71639,0.506987 -7.26724,1.704743 -10.113,2.66168 -2.84576,0.956936 -5.3248,1.739884 -5.50898,1.739884 -0.18418,0 -0.6931,-0.992187 -1.13094,-2.204861 z"
       id="path3808" /><path
       style="fill:#000000"
       d="m 120.00642,59.49275 c 1.89768,-2.927502 5.10326,-7.11494 7.28848,-9.520932 0.74502,-0.820283 1.35457,-1.658828 1.35457,-1.863434 0,-0.946879 -8.63455,-8.637842 -13.10874,-11.676203 -2.4498,-1.663627 -1.82483,-2.036504 -5.38521,3.213005 -2.1173,3.121787 -6.90994,11.840262 -6.90292,12.55736 0.002,0.175466 1.78765,1.384133 3.96875,2.685926 2.18109,1.301793 5.39437,3.468251 7.14062,4.81435 1.74625,1.3461 3.33375,2.461758 3.52778,2.479241 0.19403,0.01748 1.14653,-1.192708 2.11667,-2.689313 z"
       id="path3807" /><path
       style="fill:#000000"
       d="m 115.5967,62.174354 c -2.66039,-2.095526 -9.21953,-6.43997 -11.90625,-7.886089 -1.21118,-0.65191 -1.85209,-1.223511 -1.85209,-1.651792 0,-0.360203 0.93807,-2.517785 2.0846,-4.794628 3.38954,-6.731147 8.35116,-14.193881 9.43685,-14.193881 1.62762,0 17.05355,12.936744 17.05355,14.301722 0,0.210043 -1.28248,1.88027 -2.84996,3.711615 -1.56747,1.831345 -4.21569,5.353781 -5.88491,7.827635 -1.66923,2.473854 -3.20456,4.496497 -3.41185,4.494763 -0.20729,-0.0017 -1.40876,-0.815939 -2.66994,-1.809345 z"
       id="path3806" /><path
       style="fill:#000000"
       d="m 156.88554,56.057955 3.84863,-1.968625 -0.72114,-1.842211 c -1.41455,-3.613583 -3.8783,-8.512551 -6.18169,-12.291767 -1.28655,-2.110869 -2.42531,-3.837943 -2.53058,-3.837943 -0.10526,0 -1.95081,1.178291 -4.1012,2.618426 -4.23683,2.837436 -8.85636,6.462379 -10.73474,8.423557 l -1.1805,1.232522 2.47579,3.299552 c 2.24384,2.990444 5.30142,7.681042 6.82027,10.462892 l 0.58507,1.071588 3.93573,-2.599683 c 2.16465,-1.429826 5.66761,-3.485565 7.78436,-4.568308 z"
       id="path3805" /><path
       style="fill:#000000"
       d="m 144.1717,64.344023 c 0,-1.047289 -7.20752,-12.070158 -9.63833,-14.740452 -0.40121,-0.440736 -0.76136,-1.018565 -0.80032,-1.284065 -0.0704,-0.479653 2.68325,-3.088547 6.73448,-6.380454 2.83276,-2.301813 10.3922,-7.232902 11.08704,-7.232172 1.06214,0.0011 6.83123,10.095454 9.34987,16.359725 0.69241,1.722128 1.25892,3.268169 1.25892,3.435646 0,0.167478 -1.30969,0.960017 -2.91041,1.761197 -3.84183,1.922873 -9.66148,5.384081 -11.89453,7.074219 -1.70419,1.289847 -3.18672,1.758027 -3.18672,1.006356 z"
       id="path3804" /><path
       style="fill:#000000"
       d="m 55.977253,69.116914 c 2.037291,-0.276002 6.116573,-0.613821 9.065069,-0.75071 l 5.360903,-0.248888 0.177673,-1.800649 c 0.09772,-0.990356 0.356402,-3.671868 0.574851,-5.958915 0.218448,-2.287046 0.780361,-6.006107 1.248696,-8.26458 0.468335,-2.258472 0.800142,-4.157689 0.737349,-4.220482 -0.06279,-0.06279 -1.847065,-0.292292 -3.96505,-0.509999 -3.741818,-0.38462 -12.847425,-0.199386 -16.374491,0.333104 l -1.5875,0.239669 -0.628458,3.527778 c -0.395529,2.220254 -0.708526,6.326425 -0.844485,11.078696 l -0.216026,7.550919 1.373651,-0.237061 c 0.755508,-0.130384 3.040526,-0.462881 5.077818,-0.738882 z"
       id="path3803" /><path
       style="fill:#000000"
       d="m 48.646042,70.777825 c -0.139431,-0.339549 -0.23915,-3.395486 -0.221597,-6.790973 0.02858,-5.527642 0.618367,-11.794185 1.494116,-15.874999 l 0.264974,-1.234722 2.985053,-0.41438 c 5.107683,-0.70904 20.586431,-0.44628 21.395918,0.363207 0.118989,0.118989 -0.274446,2.639806 -0.874302,5.601814 -0.999907,4.937408 -1.746133,10.813913 -1.938198,15.263247 l -0.07614,1.763889 -6.702778,0.228572 c -4.159984,0.14186 -8.358983,0.509896 -11.068518,0.970139 -5.252856,0.892253 -4.946112,0.885007 -5.258526,0.124206 z"
       id="path3802" /><path
       style="fill:#000000"
       d="m 93.589059,67.81405 c 0.71064,-3.524781 2.674638,-10.531406 3.464568,-12.35996 0.198314,-0.459064 -0.08486,-0.769744 -1.237641,-1.357848 -3.194052,-1.629484 -9.754778,-3.721696 -16.954439,-5.40676 -0.892215,-0.208821 -0.951004,-0.126487 -1.516149,2.123367 -1.289243,5.132502 -2.682104,16.302814 -2.192079,17.579797 0.125146,0.326127 0.653993,0.532641 1.362167,0.531926 1.798569,-0.0018 9.578132,1.401335 12.757695,2.301026 1.575086,0.445687 3.005585,0.777657 3.178886,0.737711 0.1733,-0.03995 0.684947,-1.907113 1.136992,-4.149259 z"
       id="path3801" /><path
       style="fill:#000000"
       d="M 91.607808,73.210117 C 90.659128,72.677586 83.068281,71.040603 78.55503,70.395257 L 74.145308,69.764715 74.042777,66.658094 C 73.931171,63.276528 74.91582,55.644525 76.132082,50.463919 l 0.739468,-3.149728 2.002656,0.209319 c 4.363426,0.456068 19.789157,5.712214 19.789157,6.742935 0,0.228707 -0.481339,1.834674 -1.069643,3.568814 -1.38448,4.081025 -2.388315,7.97388 -3.132766,12.148816 -0.554541,3.109904 -0.659798,3.357574 -1.46079,3.437236 -0.474754,0.04722 -1.101315,-0.04782 -1.392356,-0.211194 z"
       id="path3800" /><path
       style="fill:#000000"
       d="m 173.1646,73.670825 c 3.88515,-0.82286 9.3745,-1.555691 11.75293,-1.569023 1.16416,-0.0065 2.34028,-0.153429 2.6136,-0.326451 0.87071,-0.551211 0.0627,-13.100618 -1.2362,-19.200291 -0.2075,-0.974383 -0.26371,-0.99777 -1.85403,-0.771396 -4.59458,0.654016 -15.95827,3.692531 -17.57131,4.69836 -0.29956,0.186793 -0.1801,1.104641 0.44629,3.428976 0.79849,2.962982 1.9121,8.746748 2.42807,12.610713 0.12306,0.921632 0.3624,1.675695 0.53185,1.675695 0.16946,0 1.46942,-0.245963 2.8888,-0.546583 z"
       id="path3799" /><path
       style="fill:#000000"
       d="m 168.74188,75.011158 c -0.0945,-0.339549 -0.28001,-1.728611 -0.41227,-3.086806 -0.32766,-3.364879 -1.04105,-7.004376 -2.30276,-11.748044 -0.58323,-2.192813 -0.97908,-4.118561 -0.87965,-4.279439 0.59933,-0.969733 14.53448,-4.756056 20.04492,-5.44641 1.51454,-0.189742 1.71811,-0.131131 2.00481,0.577187 0.8537,2.109185 1.54896,8.840222 1.57448,15.243123 l 0.0267,6.693639 -5.11527,0.462057 c -2.81341,0.254132 -7.05543,0.853557 -9.42673,1.332056 -5.13748,1.036681 -5.29401,1.043853 -5.5142,0.252637 z"
       id="path3798" /><path
       style="fill:#000000"
       d="m 213.20256,72.541713 c 0.3729,-2.608659 0.29913,-15.143371 -0.10538,-17.903471 l -0.31021,-2.116667 -3.52778,-0.63166 c -2.51787,-0.450833 -5.64857,-0.652814 -10.93611,-0.705555 l -7.40833,-0.0739 0.0359,0.881944 c 0.0197,0.48507 0.29611,2.786945 0.61414,5.115278 0.31804,2.328333 0.61939,6.535208 0.66967,9.348611 l 0.0914,5.115278 0.88195,0.222844 c 0.48507,0.122565 1.91382,0.242487 3.175,0.266495 2.57896,0.04909 10.80467,1.222698 13.75833,1.962975 2.82348,0.70765 2.7428,0.746708 3.06142,-1.482176 z"
       id="path3797" /><path
       style="fill:#000000"
       d="m 208.73003,75.071084 c -3.83112,-0.869618 -11.16377,-1.834421 -15.16945,-1.995938 l -2.29305,-0.09246 -0.2283,-6.702778 c -0.14161,-4.157405 -0.52097,-8.489216 -0.99898,-11.40704 -0.42387,-2.587344 -0.66752,-4.807425 -0.54143,-4.933513 0.50201,-0.502006 13.1215,-0.205676 17.71416,0.415963 7.19423,0.973772 6.54973,0.55017 7.09125,4.660746 0.46143,3.502704 0.36632,17.260768 -0.13701,19.818705 -0.27229,1.383787 -0.36436,1.387789 -5.43719,0.236315 z"
       id="path3796" /><path
       style="fill:#000000"
       d="m 140.37933,67.150814 c 0.53358,-0.410149 0.97014,-0.918627 0.97014,-1.129949 0,-0.656358 -4.54574,-7.992222 -6.98005,-11.264311 -2.24492,-3.017529 -2.33757,-3.094723 -2.99811,-2.497977 -1.24227,1.122293 -5.41998,6.562985 -7.62594,9.931368 l -2.17321,3.318371 3.11265,3.208018 c 1.71196,1.76441 3.88705,4.129942 4.83353,5.256738 l 1.72088,2.04872 4.08499,-4.062626 c 2.24674,-2.234443 4.52155,-4.398202 5.05512,-4.808352 z"
       id="path3795" /><path
       style="fill:#000000"
       d="m 128.02255,74.305602 c -1.56962,-1.891771 -3.97568,-4.546575 -5.3468,-5.899566 -1.37112,-1.352991 -2.49294,-2.608329 -2.49294,-2.789641 0,-0.439234 2.99494,-5.137083 5.08461,-7.975709 2.81779,-3.827692 5.99523,-7.363171 6.64009,-7.388305 0.34128,-0.0133 1.32307,0.873796 2.21858,2.004611 3.01277,3.804404 8.11334,11.828545 8.50412,13.378575 0.15878,0.629784 -0.83646,1.77979 -5.57079,6.437063 -3.17026,3.118661 -5.85837,5.670801 -5.97357,5.671424 -0.11519,6.22e-4 -1.49368,-1.546681 -3.0633,-3.438452 z"
       id="path3794" /><path
       style="fill:#000000"
       d="m 111.34901,76.422269 c 0.64089,-1.697743 1.85887,-4.578581 2.70662,-6.401862 1.24014,-2.66718 1.45829,-3.415162 1.11627,-3.827281 -1.56459,-1.885207 -13.35979,-9.705947 -13.86959,-9.196148 -0.62368,0.623686 -4.050058,14.298481 -4.050058,16.163949 0,0.419658 0.631043,0.841927 2.028472,1.357373 1.115656,0.411515 3.933476,1.690115 6.261806,2.841334 2.32833,1.151219 4.32511,2.105796 4.43728,2.121283 0.11218,0.01549 0.72832,-1.360905 1.3692,-3.058648 z"
       id="path3793" /><path
       style="fill:#000000"
       d="m 106.79743,79.442351 c -1.83217,-1.002376 -4.97952,-2.494249 -6.994102,-3.315274 -2.014586,-0.821025 -3.746318,-1.576208 -3.848295,-1.678184 -0.765392,-0.765393 3.440664,-17.493977 4.720217,-18.773528 0.46155,-0.461552 0.75555,-0.390695 2.51853,0.606975 5.46638,3.093443 14.37696,9.494151 14.06004,10.099705 -0.39191,0.748835 -2.9099,6.121993 -3.50651,7.482585 -0.38286,0.873125 -1.14105,2.8575 -1.68487,4.409722 -0.54381,1.552222 -1.20139,2.860085 -1.46127,2.906362 -0.25989,0.04628 -1.97158,-0.735987 -3.80374,-1.738363 z"
       id="path3792" /><path
       style="fill:#000000"
       d="m 35.060519,74.557788 c 2.049388,-0.801271 5.150131,-1.893771 6.890539,-2.427779 l 3.164378,-0.970923 0.104665,-7.731256 c 0.06545,-4.834249 0.310299,-8.981659 0.653442,-11.068213 0.301827,-1.835326 0.494521,-3.391212 0.428209,-3.457525 -0.190747,-0.190746 -5.700234,1.25169 -9.374499,2.454334 -3.264745,1.068602 -11.478438,4.564976 -12.037571,5.124109 -0.621786,0.621786 -1.108047,8.86859 -0.87942,14.914651 0.128397,3.395486 0.325023,6.596551 0.436948,7.113478 l 0.203499,0.939867 3.341825,-1.716943 c 1.838003,-0.944319 5.018597,-2.372529 7.067985,-3.1738 z"
       id="path3791" /><path
       style="fill:#000000"
       d="m 23.913911,80.944558 c -0.217164,-0.134215 -0.5481,-1.424917 -0.735414,-2.868227 -0.472012,-3.637 -0.447136,-16.312849 0.03842,-19.577497 0.466985,-3.139788 0.383625,-3.064098 6.167667,-5.600159 6.673556,-2.926075 17.392013,-6.014701 18.170664,-5.236049 0.236103,0.236103 0.158507,1.335724 -0.233698,3.311763 -0.412597,2.078778 -0.643409,5.667811 -0.776346,12.07186 -0.129716,6.248866 -0.31267,9.147477 -0.582039,9.221455 -6.492848,1.783157 -14.7658,5.068146 -19.666689,7.809167 -1.093247,0.611442 -2.165401,1.001902 -2.382565,0.867687 z"
       id="path3790" /><path
       style="fill:#000000"
       d="m 154.32412,79.905887 c 1.11012,-0.557864 4.04247,-1.777066 6.51633,-2.709338 4.15768,-1.566823 4.49775,-1.76362 4.49583,-2.601674 -0.007,-2.848335 -2.44553,-14.906994 -3.16928,-15.669283 -0.53828,-0.566941 -8.89882,4.148061 -14.11819,7.962082 l -0.83171,0.607767 0.76653,1.685289 c 1.1417,2.510121 2.66863,6.667859 3.43682,9.358206 0.37397,1.309687 0.72613,2.381249 0.78259,2.381249 0.0565,0 1.01095,-0.456434 2.12108,-1.014298 z"
       id="path3789" /><path
       style="fill:#000000"
       d="m 151.08522,81.890324 c -0.72345,-2.660948 -2.96659,-9.14567 -3.97877,-11.502265 -0.94221,-2.193699 -1.1866,-3.1255 -0.9291,-3.542421 0.96645,-1.564777 13.50596,-9.079679 15.7612,-9.445654 l 1.20971,-0.196308 0.60913,2.068671 c 1.4079,4.781334 3.32741,16.233748 2.8503,17.005736 -0.10353,0.167508 -1.89991,0.904708 -3.99197,1.638222 -2.09206,0.733515 -5.29537,2.026962 -7.11847,2.874327 -3.51142,1.632087 -4.21932,1.808529 -4.41203,1.099692 z"
       id="path3788" /><path
       style="fill:#000000"
       d="m 238.37639,79.989179 c 0.67743,-5.228436 0.88511,-13.455183 0.40752,-16.142464 -0.22686,-1.276484 -0.44361,-1.485035 -3.02922,-2.914621 -1.53168,-0.846869 -4.23039,-2.192949 -5.99713,-2.99129 -3.3561,-1.516528 -11.75677,-4.400637 -12.02798,-4.129432 -0.0862,0.08622 -0.003,2.447289 0.1855,5.246832 0.3171,4.715856 -0.0368,14.95013 -0.56448,16.3253 -0.12829,0.334325 0.34782,0.681348 1.50491,1.096881 5.21495,1.872787 12.39918,5.237999 16.49223,7.72523 1.15481,0.701747 2.15585,1.219713 2.22453,1.151036 0.0687,-0.06868 0.43053,-2.48404 0.80412,-5.367472 z"
       id="path3787" /><path
       style="fill:#000000"
       d="m 235.16588,85.588848 c -3.67544,-2.253956 -11.8842,-6.162767 -15.76824,-7.508457 l -3.26711,-1.131943 0.2685,-3.393992 c 0.33482,-4.232357 0.3263,-16.462596 -0.0134,-19.180798 -0.25007,-2.00121 -0.24149,-2.028472 0.63808,-2.028472 1.2322,0 7.95615,2.210953 12.47284,4.101294 5.32001,2.226552 10.16906,4.973975 10.41831,5.902919 0.32552,1.213208 0.23048,13.162284 -0.13228,16.630509 -0.48944,4.679413 -1.11855,7.881993 -1.58335,8.060356 -0.22553,0.08654 -1.59055,-0.566597 -3.03339,-1.451416 z"
       id="path3786" /><path
       style="fill:#000000"
       d="m 127.06598,81.372213 1.22055,-1.598509 -1.43583,-1.808009 c -0.7897,-0.994405 -2.80595,-3.299852 -4.48054,-5.123215 l -3.04472,-3.315206 -1.33242,2.906179 c -0.73283,1.598398 -1.90538,4.435927 -2.60566,6.305621 l -1.27324,3.399442 0.82859,0.537362 c 0.45572,0.29555 2.33546,1.668701 4.1772,3.051448 l 3.34861,2.514085 1.68846,-2.635344 c 0.92864,-1.44944 2.23769,-3.354674 2.909,-4.233854 z"
       id="path3785" /><path
       style="fill:#000000"
       d="m 119.47725,87.595543 c -1.45521,-1.159026 -3.56018,-2.698566 -4.67772,-3.4212 -2.36561,-1.529677 -2.35718,-1.390892 -0.39657,-6.533542 2.09546,-5.496365 4.06261,-9.420615 4.72238,-9.420615 0.9886,0 10.58247,10.430513 10.58247,11.505326 0,0.17314 -0.86055,1.473229 -1.91232,2.889088 -1.05177,1.415859 -2.52021,3.595432 -3.26319,4.843496 -0.74299,1.248064 -1.58901,2.263709 -1.88005,2.256988 -0.29104,-0.0067 -1.71979,-0.960515 -3.175,-2.119541 z"
       id="path3784" /><path
       style="fill:#000000"
       d="m 143.99531,85.636193 c 1.74625,-1.103731 3.35936,-2.179797 3.58469,-2.391257 0.30967,-0.290608 0.24002,-0.944299 -0.28532,-2.677528 -1.2041,-3.972669 -3.55869,-9.877778 -3.93864,-9.877778 -0.20064,0 -2.39984,2.060181 -4.88711,4.57818 l -4.5223,4.578179 1.8831,2.918348 c 1.0357,1.605092 2.25431,3.593002 2.70801,4.417579 0.77665,1.411525 0.86754,1.468864 1.55374,0.980145 0.40085,-0.285496 2.15758,-1.422137 3.90383,-2.525868 z"
       id="path3783" /><path
       style="fill:#000000"
       d="m 138.69359,89.839897 c -0.30985,-0.346189 -1.5498,-2.296309 -2.75544,-4.3336 -1.20564,-2.037292 -2.47056,-4.120306 -2.81093,-4.62892 -0.61302,-0.916024 -0.60598,-0.940998 0.74583,-2.645833 2.18581,-2.756648 9.26037,-9.353674 9.89888,-9.230709 1.0514,0.202482 5.93963,13.33153 5.44425,14.622459 -0.0934,0.24336 -1.38566,1.164663 -2.87172,2.04734 -1.48606,0.882677 -3.68869,2.323479 -4.89472,3.201782 -2.08142,1.515809 -2.2214,1.564946 -2.75615,0.967481 z"
       id="path3782" /><path
       style="fill:#000000"
       d="m 91.965403,84.712547 c 0.0026,-3.541007 0.09486,-6.773676 0.204919,-7.183708 0.180235,-0.671492 -0.07419,-0.821015 -2.562456,-1.505936 -3.298564,-0.907964 -10.569161,-2.380445 -12.88053,-2.608636 l -1.651306,-0.163026 0.183869,2.511556 c 0.228076,3.115409 0.997815,8.338287 1.760928,11.948361 l 0.57793,2.734027 3.91772,0.04611 c 2.154746,0.02536 5.108345,0.158441 6.563553,0.295736 1.455208,0.137295 2.923646,0.275295 3.263194,0.306668 0.567337,0.05242 0.617752,-0.464645 0.622179,-6.381152 z"
       id="path3781" /><path
       style="fill:#000000"
       d="m 87.550863,91.976644 c -2.522361,-0.270761 -5.96645,-0.419479 -7.653532,-0.330484 l -3.067422,0.161808 -0.356871,-1.122363 C 75.313729,87.039569 73.968919,78.153794 73.968919,74.139747 v -2.039006 h 1.541806 c 2.160803,0 8.825762,1.21038 13.586842,2.467419 2.208881,0.583197 4.041584,1.060359 4.072672,1.060359 0.03109,0 0.02018,3.770312 -0.02424,8.378472 -0.06386,6.62449 -0.17793,8.387209 -0.544894,8.420209 -0.255269,0.02295 -2.527876,-0.179795 -5.050237,-0.450556 z"
       id="path3780" /><path
       style="fill:#000000"
       d="m 184.01883,92.94593 c 0.54535,-1.018993 2.03933,-7.187573 2.65622,-10.967411 0.30083,-1.843264 0.62931,-3.858555 0.72997,-4.478425 l 0.183,-1.127036 -2.56997,0.188766 c -3.15319,0.231604 -8.37085,0.997333 -11.95273,1.754149 l -2.67999,0.566255 -0.23563,6.39884 c -0.12959,3.519362 -0.33026,6.752538 -0.44593,7.184835 l -0.21031,0.785996 6.83009,0.104028 c 3.75655,0.05722 6.94357,0.140081 7.08226,0.184144 0.13869,0.04406 0.41455,-0.223301 0.61302,-0.594141 z"
       id="path3779" /><path
       style="fill:#000000"
       d="m 168.33402,94.319373 c -0.0627,-0.100516 0.0362,-1.449891 0.21978,-2.998611 0.18354,-1.54872 0.39202,-5.093544 0.4633,-7.877387 0.0713,-2.783844 0.27299,-5.204922 0.44825,-5.380175 0.83942,-0.839423 12.79999,-2.787459 17.11446,-2.787459 h 2.04188 l -0.002,1.499306 c -0.003,2.202774 -1.19654,8.759396 -2.46914,13.569032 l -1.11259,4.204897 -8.29484,-0.02342 c -4.56216,-0.01288 -8.34611,-0.105664 -8.40877,-0.20618 z"
       id="path3778" /><path
       style="fill:#000000"
       d="m 107.09357,91.768102 c 0.22722,-1.406701 0.7096,-3.709285 1.07196,-5.116852 l 0.65884,-2.559214 -5.34508,-2.616808 c -7.442441,-3.643612 -6.785323,-3.643705 -7.081053,0.001 -0.135747,1.673004 -0.136967,4.681644 -0.0027,6.685868 l 0.2441,3.644042 2.687564,0.583025 c 1.478159,0.320663 3.640059,0.872723 4.804229,1.226799 1.16417,0.354076 2.21395,0.658624 2.33285,0.676773 0.1189,0.01815 0.40208,-1.11794 0.6293,-2.524641 z"
       id="path3777" /><path
       style="fill:#000000"
       d="m 102.01475,94.481936 c -2.522359,-0.652213 -4.999772,-1.268948 -5.50536,-1.370523 -0.83837,-0.168432 -0.939248,-0.376004 -1.146528,-2.359148 -0.293182,-2.805013 -0.291498,-8.761364 0.0033,-11.581588 l 0.23055,-2.205785 1.210787,0.196483 c 0.665933,0.108066 3.856251,1.513945 7.089591,3.124175 l 5.8788,2.927691 -0.061,1.411111 c -0.11677,2.699328 -2.07213,10.93249 -2.61005,10.989768 -0.27715,0.02951 -2.56766,-0.479971 -5.09002,-1.132184 z"
       id="path3776" /><path
       style="fill:#000000"
       d="m 59.133273,93.285768 c 2.491803,-0.680448 8.455048,-1.81685 12.101618,-2.306178 0.921632,-0.123672 1.675695,-0.299367 1.675695,-0.390432 0,-0.09107 -0.404482,-2.343526 -0.898848,-5.005468 -0.494367,-2.661941 -1.010304,-6.586143 -1.146528,-8.720449 l -0.24768,-3.880555 -2.822222,-0.114569 c -4.237979,-0.172041 -16.657742,1.132496 -17.347365,1.822119 -0.535033,0.535034 2.217537,12.383771 3.983919,17.149213 0.712733,1.922848 1.061995,2.46585 1.501651,2.334632 0.315099,-0.09404 1.754991,-0.493783 3.19976,-0.888313 z"
       id="path3775" /><path
       style="fill:#000000"
       d="M 54.058244,94.498619 C 51.630003,88.68702 48.302476,74.28897 49.25198,73.702144 c 0.516955,-0.319496 5.616152,-1.191502 9.269007,-1.58508 1.884124,-0.203005 5.654436,-0.369101 8.378472,-0.369101 h 4.952794 v 1.865492 c 0,2.640128 0.907377,9.627123 1.833309,14.116858 0.8843,4.287867 0.825194,4.463368 -1.506561,4.473359 -1.98792,0.0085 -7.488738,1.024913 -12.625656,2.332864 -2.592802,0.660174 -4.773484,1.200316 -4.84596,1.200316 -0.07248,0 -0.36459,-0.557205 -0.649141,-1.238233 z"
       id="path3774" /><path
       style="fill:#000000"
       d="m 160.53798,94.518529 c 5.08449,-0.929852 4.70965,-0.291726 5.03709,-8.57514 l 0.22677,-5.736519 -1.37827,0.493858 c -2.9329,1.050914 -6.9653,2.738809 -9.01541,3.773701 -2.07493,1.047421 -2.13523,1.116907 -1.91199,2.203227 0.28374,1.380723 1.24352,8.003524 1.2524,8.641997 0.004,0.317318 0.25206,0.386793 0.78069,0.219012 0.42583,-0.135154 2.67976,-0.594215 5.00872,-1.020136 z"
       id="path3773" /><path
       style="fill:#000000"
       d="m 153.50922,95.119491 c -0.13103,-1.11566 -0.542,-3.845764 -0.91325,-6.066899 -0.55514,-3.321309 -0.59326,-4.120169 -0.21467,-4.498756 1.14717,-1.147171 13.80547,-6.082487 14.30251,-5.576374 0.35992,0.366481 0.1336,9.797015 -0.31467,13.112499 l -0.38932,2.879498 -2.15882,0.250558 c -1.18736,0.137807 -3.8291,0.627971 -5.87055,1.089252 -2.04144,0.461282 -3.82225,0.838694 -3.95735,0.838694 -0.1351,0 -0.35285,-0.912813 -0.48388,-2.028472 z"
       id="path3772" /><path
       style="fill:#000000"
       d="m 207.73763,94.413935 c 1.61196,-4.107611 3.09101,-8.858081 3.81683,-12.259027 0.20705,-0.970139 0.45248,-2.015829 0.54542,-2.323755 0.12157,-0.402791 -0.20373,-0.671314 -1.15947,-0.957107 -2.46677,-0.737636 -11.18058,-2.11601 -14.98157,-2.369827 -4.38347,-0.292714 -3.76636,-0.992107 -4.67464,5.297911 -0.3082,2.134305 -1.01856,5.70618 -1.57859,7.9375 -0.56003,2.231319 -0.91395,4.151856 -0.78649,4.267858 0.12746,0.116003 1.42237,0.41375 2.87757,0.66166 3.07342,0.52359 10.6071,2.536055 12.37079,3.304597 0.66614,0.290276 1.37593,0.540724 1.57731,0.556552 0.20139,0.01583 1.09817,-1.836535 1.99284,-4.116362 z"
       id="path3771" /><path
       style="fill:#000000"
       d="m 202.73281,98.861334 c -3.34059,-1.176646 -10.45745,-2.952244 -13.34741,-3.330066 -1.03517,-0.135334 -1.95365,-0.432451 -2.04106,-0.660261 -0.0874,-0.22781 0.39801,-2.626502 1.07874,-5.330427 0.68072,-2.703925 1.53054,-6.979978 1.88848,-9.502339 l 0.6508,-4.586111 2.98192,-0.100746 c 3.30395,-0.111627 11.25049,0.898694 16.19036,2.058437 2.9417,0.690629 3.1815,0.812308 3.1815,1.614352 0,1.748908 -1.15579,6.433623 -2.82226,11.439372 -1.97359,5.928255 -3.49415,9.295209 -4.24002,9.38858 -0.28734,0.03597 -1.87182,-0.409885 -3.52105,-0.990791 z"
       id="path3770" /><path
       style="fill:#000000"
       d="m 40.807809,100.38993 c 1.843264,-0.97872 4.780138,-2.364532 6.526388,-3.079583 1.74625,-0.715052 3.278236,-1.361196 3.404413,-1.435877 0.126177,-0.07468 -0.320746,-1.75651 -0.993161,-3.737398 C 48.302272,87.88558 46.618484,81.163627 46.263494,78.236552 46.124828,77.093176 45.950626,76.051849 45.87638,75.922494 45.394431,75.082815 31.261072,80.75496 26.456565,83.716254 l -1.122078,0.6916 1.171141,4.517971 c 1.48819,5.741069 4.311998,13.285725 5.943688,15.880345 0.191317,0.30423 0.946476,-0.0122 2.637585,-1.10524 1.303236,-0.84233 3.877644,-2.33228 5.720908,-3.311 z"
       id="path3769" /><path
       style="fill:#000000"
       d="M 30.656971,104.29171 C 27.264778,96.833563 24.623502,88.60689 24.477721,85.045459 l -0.07408,-1.809753 5.356907,-2.704194 c 3.433513,-1.733256 7.355341,-3.361116 10.922813,-4.533808 6.478326,-2.129541 6.143355,-2.22869 6.803073,2.013649 0.610854,3.928118 2.275105,10.382686 3.717624,14.418289 0.684863,1.91598 1.245252,3.653125 1.245311,3.860324 5.8e-5,0.207199 -1.388957,0.914362 -3.0867,1.571474 -3.929179,1.520791 -10.08991,4.65931 -13.732085,6.99567 -1.556915,0.99872 -3.069209,1.81585 -3.360652,1.81585 -0.312039,0 -0.97518,-0.97901 -1.612962,-2.38125 z"
       id="path3768" /><path
       style="fill:#000000"
       d="m 90.290479,106.45562 c 3.890192,-0.56497 4.136443,-0.64781 3.923178,-1.31975 -0.125151,-0.39431 -0.576029,-2.62245 -1.00195,-4.95141 -0.929744,-5.083898 -0.293818,-4.70972 -8.559691,-5.036517 l -5.72107,-0.226187 0.830071,2.259631 c 1.38879,3.780583 2.26033,5.862163 3.398294,8.116463 0.996667,1.97438 1.16619,2.13752 2.033867,1.95725 0.520616,-0.10817 2.814401,-0.46793 5.097301,-0.79948 z"
       id="path3767" /><path
       style="fill:#000000"
       d="m 83.259452,108.37703 c -1.389572,-1.7725 -6.108956,-13.822681 -5.609272,-14.322365 0.32582,-0.32582 10.561123,-0.110907 13.252072,0.278257 1.261181,0.182391 2.393827,0.334765 2.516991,0.338609 0.123164,0.0038 0.333855,0.9198 0.468201,2.03546 0.134346,1.115659 0.631334,3.838419 1.104417,6.050579 0.473082,2.21217 0.818017,4.06029 0.766521,4.10695 -0.0515,0.0466 -2.395505,0.42517 -5.208908,0.84114 -2.813402,0.41597 -5.521807,0.8428 -6.018677,0.94851 -0.539505,0.11478 -1.05161,0.003 -1.271345,-0.27714 z"
       id="path3766" /><path
       style="fill:#000000"
       d="m 179.82094,103.67435 c 2.96799,-6.221515 3.02036,-5.677586 -0.57474,-5.969291 -1.673,-0.135747 -4.67335,-0.137523 -6.66744,-0.0039 l -3.62562,0.242865 -1.13434,4.629076 c -0.62388,2.546 -1.20698,4.81153 -1.29578,5.03453 -0.10141,0.2547 0.46814,0.49277 1.53181,0.64029 0.93129,0.12916 3.20138,0.58847 5.04464,1.02069 l 3.35139,0.78585 0.67528,-1.07336 c 0.3714,-0.59035 1.58406,-2.97836 2.6948,-5.3067 z"
       id="path3765" /><path
       style="fill:#000000"
       d="m 174.3342,110.88772 c -0.58209,-0.17975 -2.80459,-0.66854 -4.93889,-1.08621 -2.13431,-0.41766 -4.00482,-0.86902 -4.15669,-1.00301 -0.15187,-0.13399 0.27892,-2.45299 0.9573,-5.15333 0.67838,-2.70034 1.31585,-5.32337 1.4166,-5.828958 0.16711,-0.838602 0.37396,-0.939191 2.35765,-1.146528 2.79047,-0.291661 8.75668,-0.291988 11.54422,-6.32e-4 1.74757,0.182657 2.16842,0.346981 2.16842,0.846679 0,0.883914 -2.1701,5.908519 -4.33586,10.039179 -1.67925,3.20273 -1.94663,3.53385 -2.90205,3.5937 -0.5788,0.0362 -1.52862,-0.0812 -2.1107,-0.26089 z"
       id="path3764" /><path
       style="fill:#000000"
       d="m 230.34728,106.58477 c 2.80898,-5.63694 5.89941,-13.936498 5.89941,-15.84326 0,-1.390843 -12.73841,-8.102711 -18.91617,-9.966927 -0.69361,-0.209305 -0.80603,0.02553 -1.54305,3.223119 -0.96488,4.186215 -2.69492,9.598055 -4.18744,13.099006 -0.60836,1.427017 -1.09361,2.776392 -1.07832,2.998612 0.0153,0.22222 2.06274,1.4037 4.5499,2.62551 2.48716,1.22181 6.32434,3.47077 8.52707,4.9977 2.20273,1.52692 4.1773,2.78945 4.38793,2.80561 0.21064,0.0162 1.27294,-1.75656 2.36067,-3.93937 z"
       id="path3763" /><path
       style="fill:#000000"
       d="m 224.95781,110.16548 c -3.81265,-2.74178 -8.63385,-5.58457 -12.89203,-7.60169 -1.83467,-0.86909 -3.33575,-1.70143 -3.33575,-1.84966 0,-0.14822 0.62237,-1.704448 1.38305,-3.458278 1.74174,-4.015787 3.99751,-11.04124 4.82771,-15.03563 0.51987,-2.501281 0.75531,-3.063925 1.28211,-3.063925 1.58716,0 11.48305,4.32234 15.96685,6.974021 4.82839,2.855468 5.46806,3.348282 5.46806,4.212705 0,0.46054 -0.81847,3.298359 -1.81881,6.306265 -1.94658,5.853152 -6.46166,15.418082 -7.35342,15.577802 -0.29104,0.0521 -1.87854,-0.87559 -3.52777,-2.06161 z"
       id="path3762" /><path
       style="fill:#000000"
       d="m 68.745186,112.36607 c 1.237703,-0.55532 4.149689,-1.62253 6.471079,-2.37159 2.32139,-0.74905 4.270791,-1.38988 4.332003,-1.42407 0.06121,-0.0342 -0.355536,-0.99104 -0.926104,-2.12633 -0.570568,-1.1353 -1.807073,-4.10652 -2.747789,-6.602727 l -1.710392,-4.538554 -2.302393,0.229115 c -4.581539,0.455917 -13.495895,2.36212 -14.253038,3.047801 -0.641189,0.580672 7.645202,14.736645 8.654566,14.784935 0.127434,0.006 1.244365,-0.44326 2.482068,-0.99858 z"
       id="path3761" /><path
       style="fill:#000000"
       d="m 63.531759,112.01291 c -2.240635,-3.09802 -5.813814,-9.13657 -7.06532,-11.94014 -0.715112,-1.601969 -0.754987,-1.903054 -0.310851,-2.34719 1.007592,-1.007592 17.220269,-4.191056 18.616157,-3.655404 0.268411,0.102999 1.091781,1.9092 1.829711,4.013779 0.73793,2.104575 2.034989,5.318135 2.882355,7.141235 0.847365,1.8231 1.540664,3.50886 1.540664,3.74613 0,0.24091 -1.986124,1.07789 -4.497917,1.89547 -2.473854,0.80524 -5.766287,2.01667 -7.316516,2.69207 -1.55023,0.67539 -3.010624,1.22799 -3.24532,1.22799 -0.234696,0 -1.329529,-1.24827 -2.432963,-2.77394 z"
       id="path3760" /><path
       style="fill:#000000"
       d="m 197.1249,113.28429 c 2.48323,-3.34449 6.66624,-9.9262 6.66624,-10.48891 0,-0.58932 -13.93076,-4.236306 -16.18181,-4.236306 -0.4835,0 -0.86493,0.570296 -1.44445,2.159696 -0.43311,1.18783 -1.73786,4.05831 -2.89944,6.37884 -1.16159,2.32054 -2.05882,4.2679 -1.99384,4.32748 0.065,0.0596 1.78503,0.76583 3.82232,1.56945 2.03729,0.80361 4.81541,1.99824 6.17361,2.65473 1.35819,0.65648 2.62819,1.20579 2.82222,1.22067 0.19403,0.0149 1.55985,-1.59866 3.03515,-3.58565 z"
       id="path3759" /><path
       style="fill:#000000"
       d="m 191.09114,117.07845 c -2.76599,-1.43953 -10.02075,-4.40827 -10.77258,-4.40827 -1.09767,0 -0.84891,-1.0396 1.18895,-4.96869 1.14879,-2.21493 2.69214,-5.50935 3.42966,-7.32095 l 1.34095,-3.293813 1.61276,0.230183 c 3.63502,0.518811 8.67131,1.66962 12.26297,2.80213 4.8287,1.52256 4.95786,1.5758 5.17102,2.1313 0.25418,0.66236 -4.04084,7.72246 -7.37907,12.12962 -2.13325,2.81635 -3.06162,3.77502 -3.70416,3.82508 -0.4716,0.0367 -1.88932,-0.47022 -3.1505,-1.12659 z"
       id="path3758" /><path
       style="fill:#000000"
       d="m 16.529009,119.3981 c 3.051171,-3.4135 7.783066,-7.90913 10.991,-10.44223 l 1.352478,-1.06796 -1.221462,-2.45956 c -2.324634,-4.68092 -4.10598,-9.748253 -6.113933,-17.392087 l -0.30845,-1.174199 -2.998611,2.271661 C 13.731517,92.541671 9.4209703,96.427169 6.6494291,99.572404 l -2.4785586,2.812746 1.1622789,3.8196 c 0.6392535,2.10078 1.6565963,5.04689 2.260762,6.54691 1.600081,3.97267 4.9710496,10.56891 5.3342826,10.43801 0.171761,-0.0619 1.792128,-1.7681 3.600815,-3.79157 z"
       id="path3757" /><path
       style="fill:#000000"
       d="m 10.947283,122.81255 c -3.2363624,-5.81713 -7.8866958,-17.77076 -7.8866958,-20.27267 0,-1.10164 4.0658225,-5.695065 8.4666668,-9.565348 4.247948,-3.735822 9.441159,-7.536432 10.117145,-7.404155 0.39844,0.07797 0.829441,1.08314 1.409543,3.287308 1.604798,6.097629 3.874593,12.306545 6.1544,16.835075 0.558874,1.11013 1.009905,2.22138 1.002292,2.46945 -0.0076,0.24807 -1.129167,1.31594 -2.492344,2.37305 -3.8124,2.95644 -7.935321,6.95408 -11.428536,11.08127 -1.74625,2.06318 -3.342519,3.75178 -3.547263,3.75244 -0.204745,6.7e-4 -1.012588,-1.14972 -1.795208,-2.55642 z"
       id="path3756" /><path
       style="fill:#000000"
       d="m 49.901332,123.31001 c 3.36297,-2.54293 6.194217,-4.43765 9.477805,-6.34269 l 2.51994,-1.462 -2.535324,-3.79882 c -1.394427,-2.08935 -3.447485,-5.58426 -4.56235,-7.76648 l -2.027027,-3.967656 -1.308978,0.557546 c -0.719938,0.30665 -2.06011,0.85831 -2.97816,1.22592 -3.354776,1.34332 -12.220557,6.21266 -13.453367,7.38898 -0.34147,0.32582 2.632927,5.04362 5.816417,9.22562 1.978225,2.59871 5.862995,6.99975 6.178626,6.99975 0.08134,0 1.373925,-0.92707 2.872418,-2.06017 z"
       id="path3755" /><path
       style="fill:#000000"
       d="m 46.074478,126.51671 c -0.294018,-0.33955 -1.461035,-1.64923 -2.593372,-2.91041 -3.935639,-4.38346 -10.082486,-13.21239 -10.081048,-14.47977 7.6e-4,-0.66962 5.040882,-3.83212 10.437704,-6.54928 3.821811,-1.92419 8.725122,-4.018176 9.409009,-4.018176 0.13924,0 0.907307,1.309688 1.706817,2.910416 1.825243,3.65439 3.330757,6.21831 6.220674,10.59391 1.253283,1.89758 2.191897,3.67635 2.085809,3.95281 -0.106088,0.27646 -0.875061,0.85067 -1.708829,1.27603 -2.842797,1.45029 -7.512328,4.48178 -11.034945,7.16396 -1.934322,1.47283 -3.604766,2.67787 -3.712095,2.67787 -0.10733,0 -0.435706,-0.27781 -0.729724,-0.61736 z"
       id="path3754" /><path
       style="fill:#000000"
       d="m 84.023086,123.27257 c 1.74625,-1.02367 3.207707,-1.88953 3.247683,-1.92416 0.03997,-0.0346 -0.677345,-1.16794 -1.594045,-2.5185 -0.9167,-1.35056 -2.172609,-3.27982 -2.790909,-4.28726 l -1.124181,-1.8317 -2.272671,0.64992 c -2.583947,0.73895 -8.972917,3.05193 -9.72091,3.51924 -0.687971,0.42982 0.817455,2.27399 5.335508,6.53609 l 3.564537,3.3626 1.089994,-0.82252 c 0.599497,-0.45238 2.518744,-1.66005 4.264994,-2.68371 z"
       id="path3753" /><path
       style="fill:#000000"
       d="m 72.870103,122.94122 c -3.168401,-3.1684 -5.251184,-5.52347 -5.251184,-5.93768 0,-0.53968 0.735544,-0.97895 3.439584,-2.05409 4.354628,-1.73143 10.67846,-3.66557 11.257886,-3.44323 0.243404,0.0934 0.868985,0.90945 1.39018,1.81342 0.521195,0.90398 1.929792,3.07329 3.130215,4.8207 1.200423,1.7474 2.115342,3.37883 2.033153,3.6254 -0.08219,0.24657 -0.809479,0.78316 -1.616199,1.19243 -0.80672,0.40926 -3.07948,1.75439 -5.050579,2.98917 -1.971098,1.23479 -3.695878,2.24507 -3.832844,2.24507 -0.136965,0 -2.612061,-2.36304 -5.500212,-5.25119 z"
       id="path3752" /><path
       style="fill:#000000"
       d="m 187.87996,123.67699 3.3152,-3.04472 -2.90618,-1.33242 c -1.59839,-0.73283 -4.43696,-1.90576 -6.30791,-2.60652 -3.14031,-1.17618 -3.42931,-1.22713 -3.76042,-0.66289 -0.19727,0.33616 -1.56414,2.22239 -3.03748,4.19161 l -2.6788,3.58039 2.46151,1.57763 c 1.35383,0.86769 3.25661,2.16843 4.22839,2.89052 l 1.76687,1.31289 1.80181,-1.43088 c 0.99099,-0.78699 3.29364,-2.80101 5.11701,-4.47561 z"
       id="path3751" /><path
       style="fill:#000000"
       d="m 178.10784,129.10232 c -1.41586,-1.05177 -3.59544,-2.52021 -4.8435,-3.26319 -1.24806,-0.74298 -2.27198,-1.54241 -2.27537,-1.7765 -0.003,-0.23409 1.0654,-1.83066 2.37509,-3.54794 1.30968,-1.71727 2.84947,-3.8673 3.42173,-4.77785 0.57227,-0.91054 1.24481,-1.65553 1.49454,-1.65553 0.71907,0 7.44461,2.5979 10.98987,4.2451 2.23129,1.0367 3.23205,1.68872 3.23205,2.10577 0,0.9886 -10.43051,10.58246 -11.50533,10.58246 -0.17314,0 -1.47323,-0.86054 -2.88908,-1.91232 z"
       id="path3750" /><path
       style="fill:#000000"
       d="m 216.11643,126.69311 c 4.9725,-5.16054 9.92354,-11.67849 9.31871,-12.26792 -1.11564,-1.08723 -8.97466,-5.91922 -12.67233,-7.79137 -3.74298,-1.8951 -4.50485,-2.16966 -4.78582,-1.72474 -0.18379,0.29105 -1.22269,2.0373 -2.30867,3.88056 -1.08598,1.84326 -3.14324,4.91324 -4.57168,6.82217 -1.42844,1.90893 -2.59512,3.5758 -2.59261,3.70417 0.002,0.12836 1.2099,1.01766 2.68309,1.97622 2.93245,1.90804 7.22735,5.19133 9.5635,7.31093 0.82028,0.74425 1.65569,1.35318 1.85647,1.35318 0.20077,0 1.77998,-1.46844 3.50934,-3.2632 z"
       id="path3749" /><path
       style="fill:#000000"
       d="m 210.567,130.18836 c -2.59475,-2.39357 -6.64167,-5.49173 -10.39511,-7.95807 -1.88997,-1.24188 -3.43631,-2.44618 -3.43631,-2.67621 0,-0.23004 0.80044,-1.41561 1.77874,-2.6346 2.21341,-2.75797 6.64012,-9.45213 7.88389,-11.9222 0.68665,-1.36365 1.13098,-1.85208 1.68484,-1.85208 1.71712,0 14.21547,7.14975 18.10948,10.35963 l 1.05833,0.8724 -0.62646,1.17495 c -1.92075,3.60246 -12.71763,16.16801 -13.89227,16.16801 -0.2775,0 -1.25181,-0.68932 -2.16513,-1.53183 z"
       id="path3748" /><path
       style="fill:#000000"
       d="m 248.83714,126.8695 c 2.89235,-4.93586 5.42437,-10.39896 7.19039,-15.514 l 0.63661,-1.84386 -2.35458,-2.91864 c -4.11596,-5.10197 -13.08915,-13.606775 -13.85606,-13.132799 -0.14958,0.09245 -0.384,0.682202 -0.52092,1.310568 -0.51969,2.384921 -3.67778,10.178071 -5.86272,14.467291 l -2.27417,4.46441 2.97642,2.72405 c 2.99958,2.74525 7.91049,8.253 10.41227,11.6777 0.74413,1.01865 1.46343,1.85209 1.59845,1.85209 0.13502,0 1.05946,-1.38907 2.05431,-3.08681 z"
       id="path3747" /><path
       style="fill:#000000"
       d="m 246.21087,131.45561 c -0.38353,-0.33955 -1.82834,-2.12548 -3.21068,-3.96875 -2.46596,-3.28821 -7.4456,-8.66826 -10.6843,-11.54343 -0.90076,-0.79966 -1.73268,-1.60752 -1.8487,-1.79525 -0.11603,-0.18774 0.88917,-2.4624 2.23378,-5.0548 2.42051,-4.66676 5.0546,-11.18106 6.22867,-15.40397 0.33425,-1.202235 0.79615,-2.185881 1.02645,-2.185881 1.4538,0 11.56818,9.439201 15.66422,14.618561 2.02997,2.56685 2.19749,2.90839 2.00795,4.0937 -0.26498,1.65714 -2.94051,8.27648 -5.01444,12.40594 -1.4905,2.96776 -5.32498,9.45124 -5.58969,9.45124 -0.0638,0 -0.42973,-0.27781 -0.81326,-0.61736 z"
       id="path3746" /><path
       style="fill:#000000"
       d="m 72.474076,131.38361 2.209324,-1.89367 -4.05146,-4.08835 c -2.228303,-2.24859 -4.384958,-4.52491 -4.792567,-5.05849 -0.407609,-0.53357 -0.914008,-0.97014 -1.12533,-0.97014 -0.956708,0 -11.399206,6.78028 -14.145356,9.18453 -0.415478,0.36375 4.858115,4.71173 9.594641,7.9106 l 4.009687,2.70799 3.045869,-2.9494 c 1.675228,-1.62217 4.040064,-3.80155 5.255192,-4.84307 z"
       id="path3745" /><path
       style="fill:#000000"
       d="m 61.092531,138.72089 c -3.422713,-2.19053 -9.435441,-6.82375 -11.070972,-8.53095 -0.697058,-0.7276 -1.110523,-1.46091 -0.994374,-1.76359 0.548992,-1.43065 14.131794,-10.4645 15.733847,-10.4645 0.393428,0 11.670716,11.24643 11.673615,11.64167 7.11e-4,0.097 -1.645657,1.57147 -3.658597,3.27658 -2.01294,1.7051 -4.644964,4.12604 -5.848942,5.37986 -1.203979,1.25382 -2.374295,2.27685 -2.600704,2.27341 -0.226408,-0.003 -1.681651,-0.81907 -3.233873,-1.81248 z"
       id="path3744" /><path
       style="fill:#000000"
       d="m 198.99749,140.3095 c 3.14702,-1.88802 8.2126,-5.40468 9.84944,-6.83773 0.41548,-0.36375 -4.85812,-4.71173 -9.59464,-7.9106 l -4.00969,-2.70799 -3.04587,2.9494 c -1.67523,1.62217 -4.04006,3.80155 -5.25519,4.84307 l -2.20933,1.89366 4.05146,4.08836 c 2.22831,2.24859 4.38496,4.52491 4.79257,5.05849 0.40761,0.53357 0.91401,0.97014 1.12533,0.97014 0.21132,0 2.14449,-1.05606 4.29592,-2.3468 z"
       id="path3743" /><path
       style="fill:#000000"
       d="m 188.53621,138.31182 c -3.05445,-3.14033 -5.55422,-5.78907 -5.55504,-5.88608 -8.2e-4,-0.097 1.64545,-1.57147 3.65839,-3.27658 2.01294,-1.7051 4.64497,-4.12604 5.84895,-5.37986 1.20397,-1.25382 2.35963,-2.27967 2.56812,-2.27967 0.61405,0 5.82367,3.42005 9.44006,6.19729 4.11415,3.15949 6.16109,5.21406 5.89237,5.91435 -0.57435,1.49672 -14.22412,10.51639 -15.80404,10.44319 -0.2724,-0.0126 -2.99436,-2.5923 -6.04881,-5.73264 z"
       id="path3742" /><path
       style="fill:#000000"
       d="m 32.517405,141.0688 c 2.524093,-3.48383 5.183944,-6.62889 8.417446,-9.95297 2.283987,-2.34797 2.433746,-2.59335 1.937699,-3.175 -0.295678,-0.3467 -1.560793,-1.82099 -2.811366,-3.2762 -2.447161,-2.8476 -6.757704,-8.78775 -8.101116,-11.16377 l -0.826837,-1.46237 -2.130072,1.62983 c -4.165024,3.18689 -13.242572,12.89541 -13.242572,14.16306 0,1.7252 13.719929,17.19867 14.47797,16.32839 0.128753,-0.14781 1.154234,-1.53875 2.278848,-3.09097 z"
       id="path3741" /><path
       style="fill:#000000"
       d="m 25.93343,142.21532 c -5.847221,-5.71822 -11.583954,-12.8801 -11.583954,-14.46169 0,-0.82166 2.848493,-4.43951 6.702778,-8.51315 2.990469,-3.16066 9.423758,-8.68696 10.11268,-8.68696 0.249913,0 0.676618,0.35719 0.948234,0.79375 3.781857,6.07851 6.67981,10.01149 10.874846,14.75887 1.12922,1.27791 2.053128,2.40071 2.053128,2.49513 0,0.0944 -1.431296,1.63327 -3.180657,3.41966 -3.263996,3.33308 -8.076445,9.16036 -10.015137,12.12708 -0.600438,0.91884 -1.344307,1.67346 -1.653041,1.67695 -0.308734,0.003 -2.225229,-1.62085 -4.258877,-3.60964 z"
       id="path3740" /><path
       style="fill:#000000"
       d="m 82.044853,144.83211 c 0.601661,-0.93761 1.944529,-2.79583 2.984151,-4.12939 l 1.890222,-2.42464 -3.268135,-2.16983 c -1.797475,-1.1934 -3.69859,-2.50841 -4.224701,-2.92225 l -0.956566,-0.75244 -1.80948,1.437 c -0.995214,0.79035 -3.302783,2.80847 -5.127931,4.4847 l -3.31845,3.04771 2.612895,1.19909 c 2.545104,1.16798 9.440342,3.90193 9.896258,3.92384 0.125294,0.006 0.720076,-0.75618 1.321737,-1.69379 z"
       id="path3739" /><path
       style="fill:#000000"
       d="m 80.154976,147.6902 c -1.395021,-0.35408 -7.007609,-2.59257 -10.082802,-4.02137 -2.1754,-1.01073 -3.15881,-1.65571 -3.15881,-2.07174 0,-0.9886 10.430513,-10.58246 11.505326,-10.58246 0.17314,0 1.47323,0.86054 2.889088,1.91232 1.415859,1.05177 3.595433,2.52021 4.843496,3.26319 1.248064,0.74298 2.271981,1.54241 2.275371,1.7765 0.0034,0.23409 -1.0654,1.83066 -2.375087,3.54793 -1.309688,1.71728 -2.849469,3.86731 -3.421738,4.77785 -1.039147,1.65341 -1.172014,1.72845 -2.474844,1.39778 z"
       id="path3738" /><path
       style="fill:#000000"
       d="m 185.67509,146.73896 c 4.82624,-1.77664 4.6815,-1.63205 3.33534,-3.33172 -0.62361,-0.78737 -2.73316,-2.9403 -4.68789,-4.78428 l -3.55404,-3.35271 -1.45327,1.00951 c -0.79929,0.55522 -2.72326,1.76148 -4.27548,2.68058 -1.55222,0.91909 -2.85493,1.69636 -2.8949,1.72726 -0.04,0.0309 0.67734,1.16119 1.59404,2.51175 0.9167,1.35056 2.17261,3.27982 2.79091,4.28726 l 1.12418,1.8317 2.27267,-0.64993 c 1.24997,-0.35745 3.83677,-1.2257 5.74844,-1.92942 z"
       id="path3737" /><path
       style="fill:#000000"
       d="m 176.7792,150.14482 c -1.27519,-1.44538 -6.35146,-9.52748 -6.2241,-9.90957 0.077,-0.23102 0.80006,-0.75489 1.60678,-1.16416 0.80672,-0.40926 3.09784,-1.76592 5.09138,-3.01479 l 3.62461,-2.27067 1.71939,1.43955 c 2.85179,2.38765 9.19943,9.20159 9.19943,9.87522 0,0.4776 -1.00088,1.01691 -4.14513,2.23352 -2.27983,0.88214 -5.33577,1.94546 -6.79098,2.36293 -1.4552,0.41747 -2.84787,0.82616 -3.0948,0.90819 -0.24694,0.082 -0.6909,-0.12507 -0.98658,-0.46022 z"
       id="path3736" /><path
       style="fill:#000000"
       d="m 236.08053,143.19439 c 3.78084,-3.77944 7.5745,-8.2784 7.5745,-8.98269 0,-1.20536 -7.83934,-10.69584 -11.68869,-14.15059 -1.39456,-1.25161 -2.58101,-2.27565 -2.63655,-2.27565 -0.0555,0 -1.08383,1.34938 -2.28509,2.99861 -2.66412,3.65762 -5.29142,6.76517 -8.56394,10.12936 -2.28398,2.34797 -2.43374,2.59335 -1.9377,3.175 0.29568,0.3467 1.5608,1.82099 2.81137,3.2762 2.44716,2.8476 6.7577,8.78775 8.10112,11.16376 l 0.82683,1.46238 2.13008,-1.62984 c 1.17153,-0.8964 3.72217,-3.22135 5.66807,-5.16654 z"
       id="path3735" /><path
       style="fill:#000000"
       d="m 227.30245,150.68199 c -3.78186,-6.07851 -6.67981,-10.01149 -10.87485,-14.75888 -1.12922,-1.2779 -2.05313,-2.39731 -2.05313,-2.48759 0,-0.0903 1.4566,-1.66409 3.23689,-3.49737 3.35417,-3.45402 8.06044,-9.15174 9.95891,-12.0569 0.60043,-0.91884 1.3088,-1.67346 1.57413,-1.67695 1.98198,-0.026 15.92174,15.79851 15.92174,18.07451 0,0.8188 -2.85338,4.44149 -6.70278,8.50997 -2.99047,3.16066 -9.42376,8.68696 -10.11268,8.68696 -0.24991,0 -0.67662,-0.35719 -0.94823,-0.79375 z"
       id="path3734" /><path
       style="fill:#000000"
       d="m 52.650001,155.09171 c 1.682636,-3.03639 4.353226,-7.06156 6.548619,-9.8702 0.944637,-1.20851 1.715471,-2.31976 1.712965,-2.46945 -0.0025,-0.14968 -1.209898,-1.05643 -2.683094,-2.01499 -2.932451,-1.90805 -7.227351,-5.19134 -9.563495,-7.31093 -0.820283,-0.74425 -1.665761,-1.35318 -1.878841,-1.35318 -1.136402,0 -13.033902,13.95644 -13.033902,15.28951 0,0.74267 15.871361,10.08387 17.167555,10.10409 0.225835,0.004 1.004422,-1.06516 1.730193,-2.37485 z"
       id="path3733" /><path
       style="fill:#000000"
       d="m 45.906243,156.4441 c -4.425349,-2.26537 -10.192191,-5.86633 -12.683156,-7.91966 l -1.058334,-0.8724 0.626461,-1.17495 c 1.892834,-3.5501 12.712505,-16.16802 13.863825,-16.16802 0.261855,0 1.474288,0.89128 2.694296,1.98062 2.758317,2.4629 7.804931,6.25596 10.949446,8.22967 1.309687,0.82204 2.38125,1.713 2.38125,1.97989 0,0.2669 -0.460985,1.01031 -1.024411,1.65201 -1.793871,2.04311 -6.374585,8.78625 -8.023351,11.81095 -1.148589,2.10711 -1.783289,2.92186 -2.276165,2.92186 -0.3759,0 -2.828338,-1.09798 -5.449861,-2.43997 z"
       id="path3732" /><path
       style="fill:#000000"
       d="m 210.92838,160.27343 c 3.37176,-1.35012 12.22543,-6.21591 13.46383,-7.39945 0.61455,-0.58732 -7.52296,-11.93569 -10.82975,-15.10291 l -1.2331,-1.18105 -2.76981,2.0947 c -3.40587,2.57574 -6.22695,4.4649 -9.52307,6.37722 l -2.51994,1.462 2.53532,3.79882 c 1.39443,2.08935 3.44749,5.58426 4.56235,7.76647 l 2.02703,3.96766 1.30898,-0.55754 c 0.71993,-0.30665 2.06011,-0.85831 2.97816,-1.22592 z"
       id="path3731" /><path
       style="fill:#000000"
       d="m 204.46203,160.55977 c -1.85701,-3.71798 -3.37488,-6.2957 -6.22701,-10.57496 -1.32104,-1.98204 -2.20237,-3.6515 -2.08675,-3.95281 0.11009,-0.28688 0.88233,-0.86962 1.7161,-1.29498 2.78138,-1.41896 7.52971,-4.48833 10.74032,-6.94266 4.17675,-3.1929 3.95579,-3.086 4.70856,-2.27799 2.50694,2.69088 4.96754,5.57935 6.68335,7.84548 2.54309,3.35876 6.01972,8.8697 6.01896,9.54087 -7.6e-4,0.66963 -5.04089,3.83213 -10.43771,6.54929 -3.82181,1.92419 -8.72512,4.01817 -9.40901,4.01817 -0.13924,0 -0.9073,-1.30968 -1.70681,-2.91041 z"
       id="path3730" /><path
       style="fill:#000000"
       d="m 73.250735,161.31049 c 0.433105,-1.18783 1.724376,-4.03139 2.869491,-6.31901 1.145115,-2.28762 2.082026,-4.23136 2.082026,-4.31942 0,-0.0881 -0.992187,-0.51813 -2.204861,-0.95569 -1.212673,-0.43757 -4.164471,-1.67438 -6.559549,-2.74847 -2.40643,-1.07917 -4.458226,-1.80703 -4.586111,-1.62687 -0.127283,0.1793 -1.358135,1.8314 -2.735227,3.67133 -2.327296,3.10949 -6.492029,9.66675 -6.492029,10.22152 0,0.59194 13.358135,4.122 15.915925,4.206 0.817305,0.0268 1.012947,-0.21674 1.710335,-2.12939 z"
       id="path3729" /><path
       style="fill:#000000"
       d="m 68.324475,164.18226 c -5.906097,-1.1148 -13.625995,-3.45492 -14.139726,-4.28615 -0.735553,-1.19015 9.414327,-16.18148 10.955669,-16.18148 0.350865,0 2.044251,0.68738 3.76308,1.52752 2.665198,1.30271 5.611084,2.52699 10.092504,4.19435 0.533577,0.19852 0.970139,0.48731 0.970139,0.64174 0,0.15443 -0.933019,2.07986 -2.073376,4.27873 -1.140356,2.19886 -2.671091,5.46637 -3.401633,7.26113 -1.518757,3.73121 -1.0395,3.53193 -6.166657,2.56416 z"
       id="path3728" /><path
       style="fill:#000000"
       d="m 87.277877,164.30231 3.186794,-0.2262 1.133238,-4.62449 c 0.623281,-2.54347 1.205888,-4.80695 1.294683,-5.02994 0.101493,-0.2549 -0.468511,-0.4921 -1.534986,-0.63878 -0.933036,-0.12832 -3.246518,-0.59885 -5.141072,-1.04561 l -3.444642,-0.8123 -2.610147,5.33163 c -3.565939,7.28397 -3.504257,6.8547 -1.007368,7.01066 4.062261,0.25374 4.986252,0.25772 8.1235,0.035 z"
       id="path3727" /><path
       style="fill:#000000"
       d="m 77.232114,165.32854 c -1.172551,-0.1056 -1.499306,-0.2767 -1.499306,-0.78504 0,-0.91644 2.151292,-5.90487 4.34238,-10.06915 1.816185,-3.45176 1.882522,-3.52721 3.07843,-3.50149 1.43073,0.0308 10.618382,1.91882 11.023372,2.26529 0.151869,0.12993 -0.278912,2.4456 -0.957292,5.14594 -0.678379,2.70034 -1.315851,5.32337 -1.416603,5.82896 -0.167114,0.8386 -0.373958,0.93919 -2.357652,1.14652 -2.216709,0.2317 -9.501921,0.21319 -12.213329,-0.031 z"
       id="path3726" /><path
       style="fill:#000000"
       d="m 192.85503,165.72869 c 3.66254,-0.659 8.53197,-1.89873 8.95203,-2.27915 0.38595,-0.34952 -3.00454,-6.80272 -5.60366,-10.6656 -3.16143,-4.69861 -2.3922,-4.36558 -6.39544,-2.76877 -1.91363,0.7633 -4.90807,1.83517 -6.65432,2.38192 -1.74625,0.54676 -3.22508,1.02331 -3.28629,1.05901 -0.0612,0.0357 0.35553,0.99379 0.9261,2.12908 0.57057,1.13529 1.80707,4.10652 2.74779,6.60273 l 1.71039,4.53855 2.30239,-0.22912 c 1.26632,-0.12601 3.65177,-0.4719 5.30101,-0.76865 z"
       id="path3725" /><path
       style="fill:#000000"
       d="m 184.24773,167.76138 c -0.10025,-0.16221 -0.80849,-2.05044 -1.57388,-4.19607 -0.76539,-2.14563 -2.04212,-5.28927 -2.83717,-6.98586 -0.79505,-1.69659 -1.44554,-3.27915 -1.44554,-3.5168 0,-0.24121 1.95235,-1.0691 4.41938,-1.87403 2.43066,-0.79307 5.76778,-2.0211 7.41583,-2.72895 1.64805,-0.70785 3.19151,-1.21199 3.42993,-1.12032 1.10842,0.42619 7.3424,10.25716 9.27434,14.62561 0.70653,1.5976 0.74984,1.91828 0.31749,2.35063 -0.64603,0.64603 -6.84004,2.12321 -12.68614,3.02545 -5.10259,0.78749 -6.04841,0.85045 -6.31424,0.42034 z"
       id="path3724" /><path
       style="fill:#000000"
       d="m 179.63473,164.7931 c -1.36981,-3.72774 -2.24557,-5.81751 -3.37843,-8.06169 -0.99666,-1.97438 -1.16619,-2.13752 -2.03386,-1.95725 -0.52062,0.10817 -2.81441,0.46793 -5.0973,0.79948 -3.8902,0.56497 -4.13645,0.64781 -3.92318,1.31974 0.12515,0.39432 0.56867,2.58226 0.98561,4.86208 0.41693,2.27983 0.86152,4.2486 0.98796,4.37505 0.35913,0.35912 5.0021,0.76687 9.33209,0.81955 l 3.93732,0.0479 z"
       id="path3723" /><path
       style="fill:#000000"
       d="m 172.21753,168.04572 c -1.94028,-0.13549 -4.18556,-0.35839 -4.98952,-0.49532 l -1.46174,-0.24898 -0.24118,-2.00381 c -0.13265,-1.1021 -0.62825,-3.81376 -1.10134,-6.02593 -0.47308,-2.21216 -0.81801,-4.06028 -0.76652,-4.10694 0.14076,-0.12753 10.5427,-1.66708 11.55891,-1.71079 0.74676,-0.0321 1.05613,0.31353 2.01838,2.25512 1.99499,4.0254 4.92801,11.86843 4.57164,12.2248 -0.30774,0.30774 -5.85663,0.37247 -9.58863,0.11185 z"
       id="path3722" /><path
       style="fill:#000000"
       d="m 19.601003,166.83483 c 0.715087,-2.83986 3.495394,-9.62794 5.782183,-14.11711 l 2.236739,-4.39092 -2.976419,-2.72405 c -2.999582,-2.74525 -7.910495,-8.253 -10.41227,-11.6777 -0.744129,-1.01865 -1.463432,-1.85209 -1.598451,-1.85209 -0.292345,0 -3.4180067,5.27766 -4.9401393,8.3414 -1.2587378,2.53357 -3.3952174,7.62562 -4.3045625,10.25941 l -0.6366127,1.84386 2.3516658,2.91864 c 3.9858492,4.94681 13.1010957,13.60119 13.8427297,13.14284 0.140645,-0.0869 0.435457,-0.87185 0.655137,-1.74428 z"
       id="path3721" /><path
       style="fill:#000000"
       d="m 16.686363,168.74338 c -3.117689,-2.36015 -10.121533,-9.33419 -12.8910575,-12.8362 -2.0299672,-2.56685 -2.1974933,-2.90839 -2.0079545,-4.0937 0.7399669,-4.6275 9.618244,-22.15247 10.961473,-21.63703 0.270903,0.10396 1.770059,1.88289 3.331458,3.95318 2.750155,3.64649 7.660645,8.97442 11.01944,11.95621 0.900761,0.79965 1.732677,1.60752 1.848703,1.79525 0.116026,0.18774 -0.889174,2.46239 -2.233777,5.0548 -2.420509,4.66675 -5.054602,11.18106 -6.228675,15.40397 -0.334251,1.20223 -0.796152,2.18588 -1.026447,2.18588 -0.230296,0 -1.478219,-0.80206 -2.773163,-1.78236 z"
       id="path3720" /><path
       style="fill:#000000"
       d="m 241.53836,172.62424 c 4.18761,-3.17595 8.54055,-7.11776 11.22783,-10.16737 l 2.47855,-2.81274 -1.16228,-3.8196 c -0.63925,-2.10078 -1.65659,-5.04689 -2.26076,-6.54691 -1.60008,-3.97267 -4.97105,-10.56891 -5.33428,-10.43801 -0.17176,0.0619 -1.79213,1.7681 -3.60081,3.79157 -3.05118,3.41349 -7.78307,7.90913 -10.991,10.44222 l -1.35248,1.06797 1.22146,2.45955 c 2.28453,4.60017 5.09342,12.6414 6.06667,17.3675 0.2728,1.32473 0.11039,1.38362 3.7071,-1.34418 z"
       id="path3719" /><path
       style="fill:#000000"
       d="m 237.13253,176.08201 c -0.0827,-0.24254 -0.4092,-1.47285 -0.72556,-2.73403 -1.38381,-5.51649 -3.92999,-12.503 -6.1997,-17.01147 -0.55887,-1.11012 -1.0099,-2.22137 -1.00229,-2.46944 0.008,-0.24807 1.12917,-1.31594 2.49234,-2.37306 3.8124,-2.95643 7.93533,-6.95407 11.42854,-11.08127 1.74625,-2.06317 3.34252,-3.75177 3.54726,-3.75244 1.43959,-0.005 9.68191,19.42998 9.68191,22.82909 0,1.76406 -7.60589,9.32493 -14.70507,14.61803 -3.20152,2.38702 -4.22437,2.83412 -4.51743,1.97459 z"
       id="path3718" /><path
       style="fill:#000000"
       d="m 43.630288,178.02229 c 0.96292,-4.17771 2.693855,-9.5913 4.185295,-13.08972 0.608363,-1.42702 1.095077,-2.77639 1.081587,-2.99861 -0.01349,-0.22222 -1.950042,-1.33927 -4.30345,-2.48235 -2.353408,-1.14307 -6.247214,-3.40526 -8.652901,-5.02708 -2.405688,-1.62182 -4.493279,-2.94877 -4.639092,-2.94877 -0.418424,0 -4.410095,8.29681 -5.770635,11.99444 -1.568313,4.26231 -2.496855,7.60686 -2.273477,8.18892 0.526078,1.37081 16.513894,9.44531 19.358789,9.77697 0.121602,0.0142 0.57785,-1.52203 1.013884,-3.4138 z"
       id="path3717" /><path
       style="fill:#000000"
       d="m 38.161975,181.14891 c -5.855383,-2.34953 -9.255339,-4.09551 -14.728472,-7.56352 -1.293229,-0.81944 -1.675424,-1.26966 -1.67451,-1.97252 0.0038,-2.91312 7.628818,-21.24931 9.065738,-21.8007 0.279955,-0.10743 1.011551,0.18324 1.62577,0.64594 3.435609,2.58807 9.414129,6.26001 13.53391,8.31237 2.585647,1.2881 4.701175,2.44824 4.701175,2.57808 0,0.12985 -0.622372,1.67104 -1.383049,3.42487 -1.741743,4.01578 -3.997509,11.04124 -4.827713,15.03563 -0.551378,2.65286 -0.733591,3.06222 -1.358164,3.05122 -0.396743,-0.007 -2.626351,-0.7771 -4.954685,-1.71137 z"
       id="path3716" /><path
       style="fill:#000000"
       d="m 99.985652,179.3909 c 1.018298,-0.40725 2.821848,-1.23031 4.007878,-1.82902 2.08952,-1.05479 2.14928,-1.12337 1.92592,-2.21026 -0.26866,-1.30732 -1.24291,-7.98576 -1.2524,-8.58519 -0.004,-0.22437 -0.28428,-0.33557 -0.62383,-0.24712 -0.33954,0.0885 -2.59347,0.52196 -5.008711,0.96334 -5.266068,0.96235 -4.865739,0.30037 -5.193388,8.58779 l -0.226187,5.72107 2.259631,-0.83007 c 1.242797,-0.45654 3.092787,-1.16328 4.111087,-1.57054 z"
       id="path3715" /><path
       style="fill:#000000"
       d="m 92.516254,182.32381 c -0.286647,-1.14209 0.03386,-8.35055 0.550648,-12.38449 l 0.368892,-2.8795 2.158824,-0.25056 c 1.187353,-0.13781 3.824985,-0.62704 5.861402,-1.08719 2.03642,-0.46014 3.81975,-0.71849 3.96296,-0.57411 0.25381,0.25591 1.77685,9.61815 1.85048,11.37502 0.032,0.76416 -0.33995,1.06556 -2.78526,2.2568 -2.8089,1.36836 -9.03977,3.83103 -10.802913,4.2697 -0.795644,0.19796 -0.958709,0.0964 -1.165033,-0.72567 z"
       id="path3714" /><path
       style="fill:#000000"
       d="m 163.01804,180.54488 c 0.13538,-1.66852 0.1363,-4.67348 0.002,-6.67771 l -0.2441,-3.64404 -2.68756,-0.5842 c -2.45201,-0.533 -5.99055,-1.46111 -6.95778,-1.82493 -0.2411,-0.0907 -0.54828,0.83547 -0.80569,2.42912 -0.22882,1.41663 -0.70785,3.70921 -1.06452,5.09462 l -0.64847,2.51892 3.14688,1.65922 c 2.96889,1.56537 8.32469,4.03317 8.79697,4.0534 0.11884,0.005 0.32684,-1.35589 0.46222,-3.0244 z"
       id="path3713" /><path
       style="fill:#000000"
       d="m 158.2094,183.0894 c -2.27123,-1.04514 -5.12853,-2.45032 -6.34957,-3.12263 -2.06558,-1.1373 -2.21825,-1.3058 -2.19379,-2.42127 0.031,-1.41497 1.92238,-10.5992 2.26529,-11.00003 0.12993,-0.15187 2.4456,0.27891 5.14594,0.95729 2.70034,0.67838 5.32337,1.31585 5.82895,1.4166 0.83861,0.16712 0.93919,0.37396 1.14653,2.35765 0.29166,2.79047 0.29199,8.75668 6.3e-4,11.54422 -0.28814,2.75681 -0.42245,2.76297 -5.84398,0.26817 z"
       id="path3712" /><path
       style="fill:#000000"
       d="m 80.318919,184.77912 c 1.843264,-0.27476 4.557385,-0.75437 6.031379,-1.06582 l 2.679991,-0.56625 0.235621,-6.39884 c 0.129591,-3.51936 0.329444,-6.74941 0.444116,-7.17789 l 0.208496,-0.77906 -7.004662,-0.10289 c -5.538699,-0.0814 -7.092028,-0.003 -7.422111,0.37334 -0.489521,0.55845 -2.396048,8.30591 -2.921263,11.87099 -0.200092,1.3582 -0.449098,2.97661 -0.553347,3.59648 l -0.189544,1.12704 2.569968,-0.18877 c 1.413482,-0.10382 4.078092,-0.41357 5.921356,-0.68833 z"
       id="path3711" /><path
       style="fill:#000000"
       d="m 70.796259,185.25423 c 0.0034,-2.2029 1.196559,-8.75949 2.469338,-13.5698 l 1.112794,-4.20567 8.350125,0.0976 8.350125,0.0976 -0.04922,0.80859 c -0.02707,0.44472 -0.241677,3.32129 -0.476899,6.39238 -0.235221,3.07108 -0.326075,6.2613 -0.201897,7.08938 0.16297,1.08676 0.08736,1.62047 -0.271808,1.91855 -1.138243,0.94466 -12.707272,2.87078 -17.243014,2.87078 h -2.041881 z"
       id="path3710" /><path
       style="fill:#000000"
       d="m 67.411881,184.90145 c 0.08755,-0.43656 0.4102,-2.54 0.717,-4.6743 0.306801,-2.13431 1.021858,-5.70304 1.589017,-7.93052 0.567158,-2.22747 0.95847,-4.12268 0.869581,-4.21157 -0.08889,-0.0889 -1.960551,-0.5243 -4.159248,-0.96759 -3.214256,-0.64803 -8.289812,-2.06343 -12.573267,-3.50624 -0.875656,-0.29495 -4.639632,9.91793 -5.993811,16.26314 -0.207045,0.97014 -0.456046,2.02705 -0.553337,2.3487 -0.145343,0.48051 0.376044,0.71136 2.923356,1.29435 5.358747,1.22642 10.65712,1.96522 15.176165,2.11615 1.655016,0.0553 1.861782,-0.0202 2.004544,-0.73212 z"
       id="path3709" /><path
       style="fill:#000000"
       d="m 57.002549,186.04217 c -2.443517,-0.35912 -5.89633,-0.9942 -7.672916,-1.41129 -3.729859,-0.87567 -3.611194,-0.644 -2.669863,-5.21235 1.110677,-5.39021 5.459672,-17.35944 6.307518,-17.35944 0.203293,0 1.797138,0.48774 3.541877,1.08385 3.569855,1.2197 10.677046,2.98326 13.521046,3.35507 1.035168,0.13533 1.953649,0.43245 2.041068,0.66026 0.08742,0.22781 -0.398015,2.6265 -1.078741,5.33043 -0.680726,2.70392 -1.530619,6.97998 -1.888651,9.50234 l -0.650968,4.58611 -3.503805,0.059 c -1.927093,0.0324 -5.503047,-0.23484 -7.946565,-0.59396 z"
       id="path3708" /><path
       style="fill:#000000"
       d="m 222.13558,183.50784 c 2.90323,-1.152 9.05347,-4.10386 10.82347,-5.19482 l 1.12208,-0.6916 -1.17114,-4.51797 c -1.48819,-5.74107 -4.312,-13.28572 -5.94369,-15.88035 -0.19132,-0.30422 -0.94648,0.0122 -2.63759,1.10525 -3.3506,2.16562 -8.53198,4.86924 -12.24729,6.39058 -1.74625,0.71505 -3.27824,1.3612 -3.40442,1.43588 -0.12617,0.0747 0.32075,1.75651 0.99317,3.7374 1.44317,4.25149 3.12696,10.97344 3.48195,13.90052 0.13867,1.14337 0.31287,2.1847 0.38711,2.31405 0.16565,0.28861 5.01129,-1.17638 8.59635,-2.59894 z"
       id="path3707" /><path
       style="fill:#000000"
       d="m 212.66443,187.19451 c -0.17806,-0.33955 -0.51351,-1.80799 -0.74544,-3.2632 -0.6257,-3.92588 -2.29633,-10.38395 -3.70743,-14.33167 -0.68487,-1.91598 -1.24526,-3.65313 -1.24532,-3.86033 -5e-5,-0.2072 1.38896,-0.91436 3.0867,-1.57147 3.92918,-1.52079 10.08991,-4.65931 13.73209,-6.99567 1.55691,-0.99872 3.06921,-1.81585 3.36065,-1.81585 1.50073,0 7.59986,16.92829 7.79221,21.6275 l 0.0741,1.80975 -5.3569,2.7042 c -3.40709,1.71991 -7.3555,3.36116 -10.8478,4.50915 -3.02,0.99272 -5.56474,1.80495 -5.65499,1.80495 -0.0902,0 -0.30978,-0.27781 -0.48785,-0.61736 z"
       id="path3706" /><path
       style="fill:#000000"
       d="m 184.15958,186.31256 c -0.23059,-3.14145 -0.99716,-8.36261 -1.7531,-11.94031 l -0.56623,-2.67989 -6.04608,-0.22016 c -3.32535,-0.12109 -6.56202,-0.32404 -7.19261,-0.45101 l -1.14653,-0.23085 -0.005,6.48229 c -0.003,3.56526 -0.0951,6.81857 -0.20538,7.22958 -0.18126,0.67536 0.0707,0.82048 2.61825,1.50787 4.03391,1.08847 8.82673,2.10592 11.60152,2.46285 1.31703,0.16941 2.50442,0.3281 2.63865,0.35265 0.13423,0.0245 0.15958,-1.10631 0.0563,-2.51302 z"
       id="path3705" /><path
       style="fill:#000000"
       d="m 178.21475,189.23333 c -1.94028,-0.34939 -5.41641,-1.12964 -7.72474,-1.73391 -2.30833,-0.60426 -4.22041,-1.09866 -4.24906,-1.09866 -0.0287,0 -0.0127,-3.77031 0.0354,-8.37847 l 0.0875,-8.37848 0.81021,0.0492 c 0.44561,0.0271 3.30888,0.24063 6.36282,0.47457 3.05394,0.23395 6.33152,0.31823 7.28352,0.1873 1.72443,-0.23717 1.7323,-0.23367 2.10501,0.93653 1.17487,3.68876 2.52135,12.55267 2.52135,16.59809 v 2.03901 l -1.85208,-0.03 c -1.01864,-0.0165 -3.43958,-0.31584 -5.37986,-0.66522 z"
       id="path3704" /><path
       style="fill:#000000"
       d="m 203.68535,188.3579 c 5.72904,-0.83388 5.4665,-0.70189 5.20467,-2.61659 -0.62475,-4.56866 -3.64883,-15.92738 -4.68151,-17.58413 -0.20278,-0.32534 -1.02574,-0.21954 -3.42332,0.4401 -2.93575,0.80771 -8.68737,1.92678 -12.60447,2.45241 -0.92163,0.12367 -1.67569,0.29936 -1.67569,0.39043 0,0.0911 0.40412,2.34353 0.89805,5.00547 0.49392,2.66194 0.98343,6.42739 1.0878,8.36767 0.10436,1.94028 0.26022,3.75055 0.34635,4.02282 0.12969,0.40999 1.10969,0.45644 5.70317,0.27032 3.05062,-0.12361 7.16584,-0.46043 9.14495,-0.7485 z"
       id="path3703" /><path
       style="fill:#000000"
       d="m 187.56336,188.4158 c 0,-2.64012 -0.90738,-9.62712 -1.83331,-14.11685 -0.8843,-4.28787 -0.82519,-4.46337 1.50656,-4.47336 1.99106,-0.009 7.49155,-1.02563 12.65008,-2.33913 2.60623,-0.66361 4.85642,-1.08469 5.00041,-0.93573 0.54345,0.56218 3.12185,8.64988 3.98354,12.4952 1.11322,4.96781 1.67682,8.85348 1.3339,9.19641 -0.86321,0.8632 -11.06311,2.03895 -17.68839,2.03895 h -4.95279 z"
       id="path3702" /><path
       style="fill:#000000"
       d="m 120.92513,186.76994 4.54465,-4.56969 -2.02612,-3.16784 c -1.11437,-1.74231 -2.34363,-3.71941 -2.73169,-4.39354 l -0.70555,-1.2257 -3.70417,2.41296 c -5.4719,3.56449 -5.01593,2.95133 -4.19099,5.63572 1.21824,3.96418 3.56887,9.87778 3.92637,9.87778 0.18857,0 2.38794,-2.05636 4.8875,-4.56969 z"
       id="path3701" /><path
       style="fill:#000000"
       d="m 114.58858,191.7806 c -0.94147,-1.85984 -3.01716,-7.54321 -3.873,-10.60452 -0.85952,-3.07446 -1.34094,-2.43819 4.98748,-6.59167 5.26313,-3.4543 4.46525,-3.65325 7.7744,1.93855 1.20564,2.03729 2.47056,4.12031 2.81093,4.62892 0.61302,0.91603 0.60598,0.941 -0.74582,2.64583 -1.87249,2.36149 -9.17634,9.30581 -9.78761,9.30581 -0.27318,0 -0.79806,-0.59532 -1.16638,-1.32292 z"
       id="path3700" /><path
       style="fill:#000000"
       d="m 144.02825,183.29018 1.27324,-3.39944 -0.82293,-0.53736 c -0.45261,-0.29555 -2.35337,-1.67244 -4.22391,-3.05976 l -3.40098,-2.52239 -0.75045,1.33525 c -0.41275,0.73438 -1.69274,2.65345 -2.84443,4.2646 l -2.09397,2.92936 1.41796,1.78557 c 0.77988,0.98206 2.78808,3.27741 4.46268,5.10077 l 3.04472,3.3152 1.33242,-2.90617 c 0.73283,-1.5984 1.90537,-4.43593 2.60565,-6.30563 z"
       id="path3699" /><path
       style="fill:#000000"
       d="m 136.71762,190.72227 c -3.18856,-3.31558 -7.00981,-7.90476 -7.00981,-8.41852 0,-0.17314 0.86054,-1.47323 1.91231,-2.88909 1.05178,-1.41586 2.52022,-3.59543 3.2632,-4.8435 0.74298,-1.24806 1.54941,-2.27198 1.79205,-2.27537 0.24265,-0.003 2.09776,1.24884 4.12247,2.78272 2.02471,1.53389 4.17225,3.07891 4.77232,3.43338 1.29634,0.76576 1.26499,1.09619 -0.5575,5.87657 -2.09546,5.49636 -4.06262,9.42061 -4.72239,9.42061 -0.33225,0 -1.93995,-1.38906 -3.57265,-3.0868 z"
       id="path3698" /><path
       style="fill:#000000"
       d="m 101.3092,201.45987 c 3.02967,-1.59656 7.93554,-4.68148 10.19529,-6.41103 0.65404,-0.50058 0.64866,-0.56246 -0.22189,-2.55209 -1.13596,-2.59625 -2.51629,-6.38225 -3.31578,-9.09462 -0.34314,-1.16417 -0.65573,-2.16675 -0.69464,-2.22796 -0.0389,-0.0612 -0.99963,0.35366 -2.13492,0.92194 -1.69711,0.8495 -8.965796,3.69636 -10.619036,4.15907 -0.57202,0.16009 -0.553621,1.30406 0.09029,5.61361 0.478794,3.20448 2.13631,10.55458 2.525861,11.2007 0.256318,0.42513 0.469926,0.34278 4.174825,-1.60962 z"
       id="path3697" /><path
       style="fill:#000000"
       d="m 96.587519,204.77041 c -0.939541,-0.58067 -3.411297,-11.98682 -3.631893,-16.75971 l -0.113096,-2.44698 4.409722,-1.61834 c 2.425347,-0.89009 5.704698,-2.22801 7.287458,-2.97317 1.58275,-0.74516 3.07066,-1.29052 3.30647,-1.21192 0.23581,0.0786 0.8086,1.45865 1.27287,3.06677 0.46427,1.60812 1.57116,4.69725 2.45977,6.86474 0.8886,2.16748 1.64021,4.3317 1.67023,4.80936 0.0443,0.70446 -0.46029,1.23745 -2.6717,2.82222 -2.84354,2.03777 -10.10472,6.2711 -12.307295,7.17526 -0.701389,0.28792 -1.45853,0.41022 -1.682536,0.27177 z"
       id="path3696" /><path
       style="fill:#000000"
       d="m 159.30609,201.40068 c 1.13672,-3.7021 2.85727,-11.23185 2.85727,-12.50444 0,-0.47143 -0.40155,-0.80593 -1.32291,-1.102 -0.72761,-0.23381 -3.61074,-1.51694 -6.40697,-2.85141 -2.79623,-1.33447 -5.11674,-2.38579 -5.1567,-2.33628 -0.04,0.0495 -0.82815,1.99502 -1.75152,4.32336 -0.92338,2.32833 -2.14382,5.15899 -2.7121,6.29036 -1.19194,2.37299 -1.21932,2.30304 1.81196,4.62953 3.66605,2.81368 10.56109,7.218 11.33713,7.24177 0.11473,0.004 0.71946,-1.65739 1.34384,-3.69089 z"
       id="path3695" /><path
       style="fill:#000000"
       d="m 154.17339,204.51425 c -4.19519,-2.51842 -8.28542,-5.3814 -10.62862,-7.43957 l -1.50888,-1.32533 0.80921,-1.5875 c 1.62134,-3.18072 3.56259,-7.6496 4.51576,-10.39553 0.53662,-1.54594 1.14457,-2.8671 1.35098,-2.93591 0.20641,-0.0688 2.00776,0.75006 4.00299,1.8197 1.99524,1.06964 5.18297,2.57024 7.08386,3.33466 1.90089,0.76443 3.54417,1.47787 3.65173,1.58544 0.43865,0.43864 -1.38458,9.35497 -2.89882,14.17636 -1.22964,3.91526 -1.55867,4.68526 -2.08898,4.88876 -0.25362,0.0973 -2.18378,-0.85716 -4.28923,-2.12108 z"
       id="path3694" /><path
       style="fill:#000000"
       d="m 41.695925,205.53893 c -0.109802,-1.50371 -0.27763,-3.70705 -0.372952,-4.89631 -0.180407,-2.2508 0.396439,-13.09625 0.744853,-14.0042 0.140737,-0.36676 -0.197131,-0.64663 -1.147641,-0.95064 -4.087813,-1.30745 -12.583968,-5.27254 -16.852311,-7.86485 -1.154812,-0.70135 -2.155848,-1.219 -2.224526,-1.15032 -0.436046,0.43604 -1.481208,11.36817 -1.469689,15.37257 0.02111,7.33708 -0.02022,7.22327 3.287263,9.05198 4.082116,2.25701 8.671459,4.26083 13.266331,5.79241 2.23132,0.74375 4.262002,1.35927 4.512628,1.36783 0.351066,0.012 0.409849,-0.61213 0.256044,-2.71847 z"
       id="path3693" /><path
       style="fill:#000000"
       d="m 36.750864,208.12574 c -8.462736,-2.85883 -16.85333,-6.96697 -17.250149,-8.44588 -0.325525,-1.21321 -0.230485,-13.16229 0.132275,-16.63051 0.483898,-4.62639 1.117047,-7.88142 1.566603,-8.05393 0.216307,-0.083 1.422582,0.48343 2.680611,1.25874 3.45806,2.13115 12.455018,6.42183 16.13777,7.69615 l 3.26711,1.1305 -0.268499,3.39399 c -0.334822,4.23236 -0.326305,16.4626 0.01336,19.1808 l 0.253475,2.02847 -0.973221,-0.005 c -0.535271,-0.002 -3.036971,-0.7017 -5.559332,-1.55379 z"
       id="path3692" /><path
       style="fill:#000000"
       d="m 131.11147,206.15629 c 1.31207,-1.64923 3.36351,-4.49187 4.55878,-6.31698 l 2.1732,-3.31837 -3.11265,-3.20802 c -1.71196,-1.76441 -3.88705,-4.12994 -4.83353,-5.25673 l -1.72088,-2.04872 -4.08498,4.06262 c -2.24675,2.23445 -4.52155,4.3982 -5.05513,4.80835 -0.53358,0.41015 -0.97014,0.91863 -0.97014,1.12995 0,0.65636 4.54575,7.99223 6.98005,11.26431 2.70455,3.63535 2.21302,3.72582 6.06528,-1.11641 z"
       id="path3691" /><path
       style="fill:#000000"
       d="m 125.29469,209.77227 c -3.47862,-4.40684 -8.63966,-12.61913 -8.63966,-13.7475 0,-0.43777 11.23703,-11.7372 11.67473,-11.73957 0.1152,-6.2e-4 1.4892,1.54668 3.05333,3.43846 1.56413,1.89177 3.97019,4.52604 5.3468,5.85394 1.3766,1.3279 2.50292,2.58324 2.50292,2.78964 0,0.47786 -2.90426,5.05953 -5.08462,8.02133 -2.81779,3.82769 -5.99522,7.36317 -6.64009,7.38831 -0.34182,0.0133 -1.31938,-0.87202 -2.21341,-2.00461 z"
       id="path3690" /><path
       style="fill:#000000"
       d="m 80.666955,209.09613 c 3.798987,-0.84001 10.987992,-3.00215 11.862806,-3.5678 0.276767,-0.17896 0.05408,-1.60859 -0.753938,-4.84009 -0.630699,-2.52236 -1.409147,-6.40489 -1.729884,-8.62784 -0.320738,-2.22295 -0.642429,-4.101 -0.71487,-4.17344 -0.07244,-0.0724 -1.772622,0.19242 -3.77818,0.58858 -4.753705,0.93899 -8.679841,1.45167 -11.168524,1.45838 -1.10162,0.003 -2.226565,0.14696 -2.499877,0.31999 -0.870713,0.55121 -0.06273,13.10062 1.2362,19.20029 0.207495,0.97438 0.263705,0.99777 1.854024,0.77139 0.902022,-0.12839 3.463532,-0.63665 5.692243,-1.12946 z"
       id="path3689" /><path
       style="fill:#000000"
       d="m 72.218685,211.00161 c -0.853674,-2.10912 -1.548956,-8.84022 -1.574476,-15.24267 l -0.02668,-6.6932 4.938889,-0.44253 c 2.716389,-0.24339 7.134274,-0.87173 9.817521,-1.39631 3.877845,-0.75812 4.935947,-0.86104 5.158029,-0.50171 0.153668,0.24864 0.384915,1.61652 0.513882,3.03972 0.309161,3.4117 1.045047,7.20845 2.342909,12.08804 0.583238,2.19281 0.979083,4.11856 0.879655,4.27944 -0.599328,0.96973 -14.534483,4.75606 -20.044925,5.44641 -1.514531,0.18974 -1.71811,0.13113 -2.004805,-0.57719 z"
       id="path3688" /><path
       style="fill:#000000"
       d="m 68.464972,210.03685 c -0.01974,-0.48507 -0.300954,-2.81254 -0.62492,-5.17217 -0.323966,-2.35962 -0.625314,-6.59818 -0.669664,-9.41902 l -0.08064,-5.1288 -1.763889,-0.17263 c -0.970139,-0.0949 -3.691892,-0.34841 -6.048341,-0.56326 -2.356449,-0.21485 -6.154885,-0.77851 -8.440969,-1.25257 -2.286084,-0.47406 -4.207893,-0.81055 -4.270686,-0.74776 -0.06279,0.0628 -0.292308,1.84707 -0.510033,3.96505 -0.382211,3.71806 -0.20715,12.19813 0.334315,16.19441 l 0.238492,1.76019 2.469444,0.4469 c 4.571193,0.82725 7.732061,1.06411 13.581945,1.01774 l 5.820833,-0.0461 z"
       id="path3687" /><path
       style="fill:#000000"
       d="m 56.239878,212.13879 c -4.73363,-0.49566 -10.258034,-1.36911 -10.514577,-1.66245 -0.482974,-0.55224 -1.036937,-7.3301 -1.036937,-12.68716 0,-4.9579 0.485421,-11.2859 0.897339,-11.69782 0.08238,-0.0824 2.573239,0.3438 5.535247,0.94707 5.053734,1.02928 10.620456,1.74031 15.086858,1.92703 l 1.940278,0.0811 0.228301,6.70278 c 0.141604,4.15741 0.520965,8.48922 0.998978,11.40704 0.423873,2.58734 0.699338,4.7756 0.612147,4.86279 -0.33586,0.33586 -10.811912,0.427 -13.747634,0.11961 z"
       id="path3686" /><path
       style="fill:#000000"
       d="m 216.25597,212.49082 c 4.59142,-1.14909 9.26076,-2.77094 13.7872,-4.78885 2.31188,-1.03065 4.32913,-1.99961 4.48276,-2.15325 0.62179,-0.62178 1.10805,-8.86859 0.87942,-14.91465 -0.12839,-3.39548 -0.32502,-6.59655 -0.43695,-7.11348 l -0.2035,-0.93986 -3.34182,1.71694 c -3.84036,1.97308 -9.38647,4.19874 -13.95852,5.60158 l -3.16438,0.97092 -0.10094,7.73126 c -0.0555,4.25219 -0.27678,8.76313 -0.49171,10.02431 -0.21493,1.26118 -0.47749,2.80899 -0.58346,3.43958 -0.10597,0.63059 -0.0929,1.14653 0.0291,1.14653 0.12199,0 1.51824,-0.32446 3.10279,-0.72103 z"
       id="path3685" /><path
       style="fill:#000000"
       d="m 211.73417,214.27913 c -0.11688,-0.18911 0.0506,-1.65754 0.37222,-3.26319 0.4173,-2.08351 0.62633,-5.44452 0.73008,-11.73881 0.0799,-4.8507 0.2156,-9.01788 0.30144,-9.26042 0.0858,-0.24253 0.39829,-0.44097 0.69433,-0.44097 0.29603,0 2.64257,-0.69432 5.21454,-1.54293 4.67182,-1.54146 10.32136,-3.98252 14.07236,-6.08042 1.09324,-0.61145 2.1654,-1.0019 2.38256,-0.86769 0.21717,0.13421 0.5481,1.42492 0.73542,2.86823 0.47201,3.637 0.44713,16.31285 -0.0384,19.57749 -0.46662,3.13734 -0.38865,3.06629 -6.12615,5.58198 -4.3787,1.9199 -9.15559,3.53549 -13.7578,4.65302 -3.96239,0.96216 -4.28132,0.99793 -4.58058,0.51371 z"
       id="path3684" /><path
       style="fill:#000000"
       d="m 182.06926,211.22021 c 1.29014,-5.13606 2.68327,-16.30607 2.19304,-17.5836 -0.12704,-0.33105 -0.65942,-0.53309 -1.40467,-0.53309 -1.80253,0 -9.15927,-1.32264 -12.74238,-2.2909 -1.73833,-0.46975 -3.23666,-0.77803 -3.32963,-0.68507 -0.093,0.093 -0.53171,1.96796 -0.97499,4.16666 -0.6978,3.46106 -2.66539,10.46786 -3.44864,12.28096 -0.31306,0.72468 0.87704,1.37848 5.967,3.27805 2.73143,1.01937 11.63918,3.56112 12.92968,3.68937 0.12193,0.0121 0.4867,-1.03295 0.81059,-2.32238 z"
       id="path3683" /><path
       style="fill:#000000"
       d="m 176.09808,213.5778 c -6.36196,-1.66628 -15.34583,-5.08391 -15.34583,-5.83784 0,-0.21614 0.48134,-1.81182 1.06964,-3.54596 1.37732,-4.05991 2.38317,-7.95329 3.13863,-12.14882 l 0.60347,-3.35139 1.03371,0.0485 c 0.56855,0.0267 2.93872,0.53325 5.26705,1.1257 2.32833,0.59244 6.29708,1.37356 8.81945,1.73581 l 4.58611,0.65864 0.10253,3.10765 c 0.11122,3.37106 -0.87195,11.00993 -2.0785,16.14916 l -0.72865,3.10367 -1.29353,-0.0144 c -0.71143,-0.008 -3.03977,-0.47176 -5.17408,-1.03076 z"
       id="path3682" /><path
       style="fill:#000000"
       d="m 206.61336,214.34251 1.5875,-0.24872 0.62846,-3.52777 c 0.39553,-2.22026 0.70853,-6.32643 0.84448,-11.0787 l 0.21603,-7.55092 -1.37365,0.23706 c -4.15976,0.71788 -9.39303,1.26907 -14.14289,1.48959 l -5.3609,0.24889 -0.17767,1.80065 c -0.0977,0.99036 -0.35641,3.67187 -0.57485,5.95892 -0.21845,2.28704 -0.78037,6.0061 -1.2487,8.26458 -0.46834,2.25847 -0.7946,4.16323 -0.72502,4.2328 0.70796,0.70797 16.0786,0.83925 20.32721,0.17362 z"
       id="path3681" /><path
       style="fill:#000000"
       d="m 187.47644,215.69127 c -1.30899,-0.13344 -2.48387,-0.3465 -2.61083,-0.47347 -0.12697,-0.12696 0.25994,-2.65431 0.8598,-5.61631 0.99991,-4.93741 1.74613,-10.81392 1.9382,-15.26325 l 0.0761,-1.76389 6.70278,-0.23507 c 4.17512,-0.14643 8.41473,-0.52311 11.24251,-0.99888 3.37871,-0.56846 4.64182,-0.6617 4.93889,-0.36456 0.98734,0.98758 0.21644,16.68199 -1.12688,22.94157 l -0.26497,1.23472 -2.98505,0.41438 c -3.20698,0.44518 -14.86727,0.52269 -18.77059,0.12476 z"
       id="path3680" /><path
       style="fill:#000000"
       d="m 112.21606,223.29342 c 4.23683,-2.83743 8.85635,-6.46238 10.73474,-8.42355 l 1.18049,-1.23253 -2.47578,-3.29955 c -2.24385,-2.99044 -5.30143,-7.68104 -6.82027,-10.46289 l -0.58507,-1.07159 -3.93573,2.59969 c -2.16465,1.42982 -5.66762,3.48556 -7.78436,4.5683 l -3.848639,1.96863 0.721141,1.84221 c 1.414548,3.61358 3.878308,8.51255 6.181688,12.29177 1.28655,2.11086 2.42531,3.83794 2.53058,3.83794 0.10527,0 1.95081,-1.17829 4.10121,-2.61843 z"
       id="path3679" /><path
       style="fill:#000000"
       d="m 105.40779,224.29475 c -3.23557,-5.15857 -8.155538,-15.274 -8.155538,-16.76774 0,-0.16748 1.309688,-0.95865 2.910418,-1.75816 4.37927,-2.1873 9.66359,-5.37837 12.30979,-7.4336 1.26326,-0.98114 2.77146,-1.33487 2.77146,-0.65001 0,1.04728 7.20751,12.07015 9.63833,14.74045 0.40121,0.44073 0.76241,1.02578 0.80267,1.30009 0.20333,1.3854 -15.91422,13.59931 -17.94217,13.5966 -0.23998,-3.2e-4 -1.29071,-1.36276 -2.33496,-3.02763 z"
       id="path3678" /><path
       style="fill:#000000"
       d="m 148.26469,223.87752 c 2.93803,-4.20489 7.90675,-13.07201 7.89953,-14.09742 -0.001,-0.14983 -1.61839,-1.22492 -3.59409,-2.38908 -1.97569,-1.16417 -5.24721,-3.34698 -7.27004,-4.8507 -2.02283,-1.50371 -3.77893,-2.73198 -3.90244,-2.72947 -0.12351,0.003 -1.01832,1.22905 -1.98845,2.72566 -1.89769,2.9275 -5.10326,7.11494 -7.28849,9.52093 -0.74501,0.82028 -1.35457,1.65504 -1.35457,1.85503 0,0.40686 3.65172,4.06391 6.87917,6.88921 2.03361,1.78022 7.92552,6.15557 8.29027,6.15638 0.097,2.2e-4 1.14512,-1.38603 2.32911,-3.08054 z"
       id="path3677" /><path
       style="fill:#000000"
       d="m 142.05503,225.86418 c -5.66168,-4.22288 -13.02996,-10.88289 -13.04612,-11.79206 -0.004,-0.20594 1.27582,-1.87282 2.8433,-3.70416 1.56748,-1.83135 4.21569,-5.35378 5.88492,-7.82764 1.66922,-2.47385 3.20456,-4.4965 3.41184,-4.49476 0.20729,0.002 1.40877,0.81139 2.66995,1.79925 3.01642,2.36268 7.6283,5.44232 11.0243,7.3616 1.85834,1.05025 2.73403,1.75287 2.73403,2.19367 0,0.84617 -3.45738,7.72684 -5.71089,11.36547 -2.67137,4.31332 -5.22308,7.61677 -5.87597,7.60704 -0.32119,-0.005 -2.0921,-1.13357 -3.93536,-2.50841 z"
       id="path3676" /><path
       style="fill:#000000"
       d="m 87.139308,234.36299 c 5.319543,-1.33142 14.936142,-4.88431 16.351942,-6.04128 0.3092,-0.25268 0.0222,-0.95587 -1.10158,-2.69871 -2.678167,-4.15361 -5.586344,-9.92251 -7.621485,-15.11859 l -0.300472,-0.76716 -3.634814,1.22304 c -4.134757,1.39127 -9.264845,2.72915 -12.630647,3.29396 -1.26118,0.21164 -2.637441,0.46037 -3.058357,0.55273 l -0.765303,0.16792 0.893077,2.91084 c 2.354815,7.67512 6.941655,17.19833 8.283554,17.19833 0.386697,0 1.999536,-0.32449 3.584085,-0.72108 z"
       id="path3675" /><path
       style="fill:#000000"
       d="m 80.742294,233.97684 c -2.229919,-4.04025 -4.122058,-8.34559 -5.827227,-13.25917 -2.175937,-6.27014 -2.25794,-6.73113 -1.235898,-6.94777 0.450404,-0.0955 3.041417,-0.58839 5.757806,-1.09538 2.716388,-0.50698 7.267237,-1.70474 10.112995,-2.66167 2.845759,-0.95694 5.324801,-1.73989 5.508981,-1.73989 0.184181,0 0.693105,0.99219 1.130943,2.20486 1.240679,3.4363 4.685856,10.32803 7.038746,14.08031 1.17563,1.87483 2.1375,3.64038 2.1375,3.92345 0,0.49124 -4.62696,2.74295 -9.172221,4.46366 -2.971002,1.12473 -10.190548,3.13102 -12.212627,3.39384 l -1.805682,0.23469 z"
       id="path3674" /><path
       style="fill:#000000"
       d="m 77.370623,236.29632 c 0.729334,-0.2088 0.690431,-0.34844 -1.108087,-3.97752 -2.459745,-4.96331 -3.368414,-7.18418 -4.930818,-12.05139 -0.716268,-2.23132 -1.334002,-4.19184 -1.372745,-4.3567 -0.03874,-0.16486 -3.557666,-0.34813 -7.81983,-0.40727 -4.721953,-0.0655 -9.056657,-0.31794 -11.095626,-0.64614 -1.84043,-0.29625 -3.401923,-0.48294 -3.469984,-0.41488 -0.209962,0.20996 1.6309,6.98143 2.793079,10.27413 1.25602,3.55858 4.03401,10.01854 4.661165,10.83913 0.668615,0.87483 5.627833,1.26574 14.002253,1.10375 4.171598,-0.0807 7.924864,-0.2441 8.340593,-0.36311 z"
       id="path3673" /><path
       style="fill:#000000"
       d="m 58.975864,237.74864 c -0.194028,-0.0776 -1.275634,-0.24534 -2.403568,-0.37269 -2.392054,-0.27009 -2.508858,-0.40913 -4.888879,-5.81966 -2.925359,-6.65024 -6.101953,-17.61476 -5.327613,-18.3891 0.236103,-0.23611 1.335724,-0.15687 3.311763,0.23863 2.127315,0.42579 5.435669,0.63294 11.777741,0.73747 4.850695,0.0799 9.017882,0.2156 9.260417,0.30145 0.242535,0.0858 0.440972,0.39729 0.440972,0.6921 0,1.88711 3.611488,11.365 6.557249,17.20865 1.05018,2.0833 1.909418,4.00997 1.909418,4.28149 0,0.27309 -0.512298,0.59975 -1.146528,0.73106 -1.265571,0.26204 -18.927608,0.61598 -19.490972,0.3906 z"
       id="path3672" /><path
       style="fill:#000000"
       d="m 171.96443,235.3405 c 2.33379,-3.6953 4.5348,-7.99038 6.18754,-12.07448 2.40711,-5.94821 2.5684,-5.25077 -1.42724,-6.17173 -4.03907,-0.93097 -10.99954,-3.19916 -14.07439,-4.58639 l -2.15886,-0.97397 -2.20047,4.419 c -1.21026,2.43044 -3.53284,6.39532 -5.16128,8.81083 -1.62845,2.41551 -2.95975,4.49543 -2.95845,4.62205 0.0111,1.08434 16.82728,8.06043 19.63338,8.14479 0.5625,0.0169 1.1282,-0.55673 2.15977,-2.1901 z"
       id="path3671" /><path
       style="fill:#000000"
       d="m 166.11807,237.89602 c -7.08017,-2.22057 -17.40933,-6.99817 -17.62708,-8.15314 -0.0497,-0.2638 0.87995,-1.82902 2.06596,-3.47825 2.74179,-3.81265 5.58457,-8.63385 7.60169,-12.89203 0.86909,-1.83466 1.70144,-3.33575 1.84966,-3.33575 0.14823,0 1.68594,0.61032 3.41714,1.35626 1.73121,0.74594 4.41216,1.78914 5.95768,2.31822 2.99059,1.02378 10.68322,3.0283 11.62152,3.0283 0.78557,0 0.71351,0.56599 -0.52417,4.11703 -1.34818,3.86808 -4.97016,11.33536 -7.37154,15.19755 -2.1257,3.41883 -2.03707,3.39548 -6.99086,1.84181 z"
       id="path3670" /><path
       style="fill:#000000"
       d="m 197.2202,240.06942 c 1.17041,-0.25728 2.75881,-2.80608 5.41527,-8.68952 1.68721,-3.73679 4.57689,-12.0422 4.28972,-12.32937 -0.0937,-0.0937 -2.38498,-0.02 -5.09177,0.16369 -4.58667,0.31129 -15.15797,-0.0439 -16.4872,-0.554 -0.36314,-0.13935 -0.73294,0.43125 -1.31535,2.02958 -1.95699,5.3707 -5.43857,12.73653 -7.722,16.33712 -0.59662,0.94077 -1.02242,1.77283 -0.94623,1.84902 0.0762,0.0762 2.33658,0.42969 5.0231,0.78556 4.81625,0.63798 14.69847,0.87744 16.83446,0.40792 z"
       id="path3669" /><path
       style="fill:#000000"
       d="m 181.2644,241.06633 c -3.80615,-0.3989 -7.03611,-1.06197 -7.41416,-1.52204 -0.22067,-0.26855 0.18337,-1.24766 1.20938,-2.93075 3.07337,-5.04161 6.37629,-12.127 8.07862,-17.33016 l 0.61049,-1.86596 3.58301,0.27846 c 4.37192,0.33978 16.23484,0.33531 19.01704,-0.007 2.00021,-0.24621 2.02847,-0.23727 2.02847,0.64186 0,1.23221 -2.21095,7.95615 -4.10129,12.47284 -2.22656,5.32002 -4.97398,10.16906 -5.90292,10.41831 -1.07175,0.28757 -14.00269,0.17012 -17.10864,-0.15539 z"
       id="path3668" /><path
       style="fill:#000000"
       d="m 128.7786,243.66006 c 3.44122,-2.47342 7.8201,-6.26878 11.06924,-9.59417 1.79348,-1.83557 3.22223,-3.37266 3.175,-3.41575 -0.0472,-0.0431 -1.43524,-1.07001 -3.08448,-2.28205 -3.70953,-2.72617 -6.81759,-5.35898 -10.12935,-8.5805 l -2.54464,-2.4753 -0.80496,0.68381 c -0.44272,0.37609 -1.62453,1.41277 -2.62624,2.30372 -2.60388,2.316 -6.77485,5.40663 -10.19069,7.55116 l -2.9468,1.85006 1.99643,2.42693 c 3.99712,4.85903 12.55127,12.81479 13.79343,12.82854 0.26505,0.003 1.29692,-0.58047 2.29306,-1.29645 z"
       id="path3667" /><path
       style="fill:#000000"
       d="m 122.65225,243.86848 c -1.64923,-1.37008 -4.00792,-3.4705 -5.24152,-4.66759 -2.85064,-2.76629 -8.16403,-9.04489 -8.16403,-9.64709 0,-0.25196 0.67468,-0.87286 1.4993,-1.37979 4.97459,-3.0581 9.60784,-6.50843 13.81494,-10.28785 1.3499,-1.21268 2.54424,-2.20243 2.65409,-2.19946 0.10985,0.003 1.77578,1.52093 3.70207,3.37324 3.8901,3.74071 7.354,6.6101 11.09692,9.19235 1.36842,0.94407 2.49309,1.9292 2.49925,2.18916 0.0168,0.70901 -4.46445,5.52842 -8.23033,8.85139 -4.23485,3.73678 -8.90681,7.08206 -9.87859,7.07341 -0.41442,-0.004 -2.10286,-1.12769 -3.7521,-2.49777 z"
       id="path3666" /><path
       style="fill:#000000"
       d="m 104.863,255.41097 c 4.25789,-1.27875 8.71174,-3.08085 13.29632,-5.3799 l 4.15012,-2.08118 -3.95118,-3.5225 c -3.60193,-3.21112 -7.98464,-7.81391 -10.69906,-11.2363 l -1.05834,-1.33436 -3.35139,1.57961 c -4.547721,2.14347 -9.366443,3.89485 -13.860146,5.03752 l -3.747145,0.95283 1.483509,2.11634 c 4.014322,5.72674 12.659187,14.66669 14.209532,14.69456 0.40237,0.007 1.98987,-0.36475 3.52778,-0.82662 z"
       id="path3665" /><path
       style="fill:#000000"
       d="m 95.198395,252.80998 c -4.933583,-4.89783 -11.478218,-13.10516 -11.144243,-13.97549 0.09266,-0.24147 1.121894,-0.63596 2.287186,-0.87665 3.654747,-0.75487 12.336756,-3.75372 16.342812,-5.64496 2.11441,-0.99821 4.01941,-1.80869 4.23333,-1.80108 0.21392,0.008 1.25385,1.12917 2.31096,2.49235 2.95643,3.8124 6.95408,7.93532 11.08127,11.42853 2.06318,1.74625 3.75177,3.34286 3.75244,3.54803 10e-4,0.42349 -4.26078,2.77612 -9.04555,4.99296 -3.85115,1.78429 -12.46498,4.68818 -13.90657,4.68818 -0.84406,0 -1.88453,-0.85394 -5.911635,-4.85187 z"
       id="path3664" /><path
       style="fill:#000000"
       d="m 154.93142,254.98009 c 5.22399,-4.43115 12.8723,-12.66763 12.26672,-13.21007 -0.14975,-0.13414 -1.85033,-0.75741 -3.77907,-1.38505 -4.16092,-1.35403 -8.28598,-3.11194 -12.95969,-5.52282 l -3.4137,-1.76092 -3.50243,3.73234 c -1.92634,2.0528 -5.58923,5.39287 -8.13977,7.4224 -2.55054,2.02952 -4.63734,3.77759 -4.63734,3.88461 0,0.3423 6.05633,3.78798 9.62134,5.47394 5.19498,2.4568 10.54352,4.39509 11.18013,4.05164 0.29787,-0.1607 1.81159,-1.36943 3.36381,-2.68607 z"
       id="path3663" /><path
       style="fill:#000000"
       d="m 146.99392,257.82442 c -7.07771,-2.56236 -18.52294,-8.81195 -18.10974,-9.88871 0.10833,-0.28232 1.50652,-1.45869 3.10707,-2.61414 3.59165,-2.59285 8.54647,-7.08277 11.68682,-10.59028 1.30288,-1.4552 2.56643,-2.7641 2.80788,-2.90865 0.25738,-0.15408 2.24112,0.67672 4.79501,2.00818 4.66154,2.43027 10.76612,4.9344 15.20393,6.23672 1.50371,0.44128 2.73403,0.98497 2.73403,1.20821 0,0.80366 -3.72699,5.30413 -7.73273,9.33752 -4.76823,4.80115 -9.27159,8.46719 -10.37024,8.44208 -0.42386,-0.01 -2.27877,-0.56361 -4.12203,-1.23093 z"
       id="path3662" /></g></svg>
