<?xml version="1.0" encoding="UTF-8" standalone="no"?>
<!-- Created with Inkscape (http://www.inkscape.org/) -->

<svg
   width="260mm"
   height="260mm"
   viewBox="0 0 260 260"
   version="1.1"
   id="svg1"
   xml:space="preserve"
   inkscape:version="1.4 (e7c3feb1, 2024-10-09)"
   sodipodi:docname="drawing_4.svg"
   xmlns:inkscape="http://www.inkscape.org/namespaces/inkscape"
   xmlns:sodipodi="http://sodipodi.sourceforge.net/DTD/sodipodi-0.dtd"
   xmlns="http://www.w3.org/2000/svg"
   xmlns:svg="http://www.w3.org/2000/svg"><sodipodi:namedview
     id="namedview1"
     pagecolor="#ffffff"
     bordercolor="#000000"
     borderopacity="0.25"
     inkscape:showpageshadow="2"
     inkscape:pageopacity="0.0"
     inkscape:pagecheckerboard="0"
     inkscape:deskcolor="#d1d1d1"
     inkscape:document-units="mm"
     inkscape:zoom="0.48176516"
     inkscape:cx="294.74941"
     inkscape:cy="523.07643"
     inkscape:window-width="1104"
     inkscape:window-height="771"
     inkscape:window-x="284"
     inkscape:window-y="79"
     inkscape:window-maximized="0"
     inkscape:current-layer="layer1" /><defs
     id="defs1" /><g
     inkscape:label="Layer 1"
     inkscape:groupmode="layer"
     id="layer1"><path
       style="fill:#000000"
       d="m 150.18717,29.025112 c -2.95643,-3.8124 -6.95407,-7.935321 -11.08127,-11.428536 -2.06317,-1.74625 -3.75177,-3.342862 -3.75244,-3.548027 -0.001,-0.423492 4.26079,-2.776119 9.04555,-4.9929602 3.86718,-1.7917099 12.46719,-4.6881797 13.91986,-4.6881797 0.86183,0 1.86374,0.8224643 5.91348,4.8543698 4.92092,4.8992371 11.46037,13.1097471 11.12911,13.9729891 -0.0927,0.24147 -1.12189,0.635961 -2.28718,0.876648 -3.65475,0.754876 -12.33676,3.753725 -16.34281,5.644962 -2.11442,0.998206 -4.01942,1.808691 -4.23334,1.801078 -0.21391,-0.0076 -1.25385,-1.129167 -2.31096,-2.492344 z"
       id="path3818"
       n="1" /><path
       style="fill:#000000"
       d="m 131.00749,45.445968 c -1.16211,-1.596107 -8.8192,-8.243975 -12.48313,-10.837819 -1.97929,-1.401226 -3.60648,-2.760381 -3.61597,-3.020343 -0.0705,-1.932252 15.78143,-15.931508 18.03992,-15.931508 0.89517,0 6.414,4.471152 9.87346,7.999106 3.32757,3.393456 7.34715,8.224082 7.34715,8.829622 0,0.246693 -0.67469,0.863292 -1.49931,1.37022 -4.97459,3.058098 -9.60784,6.508435 -13.81494,10.287857 -1.34989,1.212673 -2.62361,2.199872 -2.83047,2.193775 -0.20686,-0.0061 -0.66438,-0.407007 -1.01671,-0.89091 z"
       id="path3814"
       n="2" /><path
       style="fill:#000000"
       d="m 115.5967,62.174354 c -2.66039,-2.095526 -9.21953,-6.43997 -11.90625,-7.886089 -1.21118,-0.65191 -1.85209,-1.223511 -1.85209,-1.651792 0,-0.360203 0.93807,-2.517785 2.0846,-4.794628 3.38954,-6.731147 8.35116,-14.193881 9.43685,-14.193881 1.62762,0 17.05355,12.936744 17.05355,14.301722 0,0.210043 -1.28248,1.88027 -2.84996,3.711615 -1.56747,1.831345 -4.21569,5.353781 -5.88491,7.827635 -1.66923,2.473854 -3.20456,4.496497 -3.41185,4.494763 -0.20729,-0.0017 -1.40876,-0.815939 -2.66994,-1.809345 z"
       id="path3806"
       n="3" /><path
       style="fill:#000000"
       d="m 106.79743,79.442351 c -1.83217,-1.002376 -4.97952,-2.494249 -6.994102,-3.315274 -2.014586,-0.821025 -3.746318,-1.576208 -3.848295,-1.678184 -0.765392,-0.765393 3.440664,-17.493977 4.720217,-18.773528 0.46155,-0.461552 0.75555,-0.390695 2.51853,0.606975 5.46638,3.093443 14.37696,9.494151 14.06004,10.099705 -0.39191,0.748835 -2.9099,6.121993 -3.50651,7.482585 -0.38286,0.873125 -1.14105,2.8575 -1.68487,4.409722 -0.54381,1.552222 -1.20139,2.860085 -1.46127,2.906362 -0.25989,0.04628 -1.97158,-0.735987 -3.80374,-1.738363 z"
       id="path3792"
       n="4" /><path
       style="fill:#000000"
       d="m 108.36475,28.332294 c -4.20024,-2.258359 -11.068549,-5.094129 -15.434026,-6.372362 -1.503715,-0.440295 -2.734027,-0.983184 -2.734027,-1.20642 0,-2.179939 15.783523,-17.797214 17.986673,-17.797214 3.43179,0 22.9088,9.676009 22.35932,11.107918 -0.10214,0.26619 -1.87959,1.749822 -3.94988,3.29696 -3.6244,2.708527 -10.70322,9.380379 -12.62286,11.897159 -0.50954,0.668046 -1.10604,1.202435 -1.32554,1.18753 -0.21951,-0.0149 -2.14535,-0.966011 -4.27966,-2.113571 z"
       id="path3820"
       n="5" /><path
       style="fill:#000000"
       d="M 95.841141,50.605604 C 94.191905,49.877435 91.578016,48.848378 90.032498,48.31881 87.044764,47.295071 79.350842,45.289631 78.410973,45.289631 c -0.785565,0 -0.713504,-0.565995 0.524173,-4.117031 1.353452,-3.88321 4.97263,-11.339189 7.397339,-15.239483 l 1.835395,-2.952347 1.45538,0.206093 c 4.891786,0.692714 21.39418,7.758945 21.38436,9.15666 -0.002,0.232373 -0.97101,1.771872 -2.15416,3.421108 -2.74457,3.825741 -5.58625,8.648373 -7.59649,12.892029 -0.86909,1.834661 -1.768498,3.321604 -1.998689,3.304317 -0.230191,-0.01729 -1.767904,-0.627205 -3.41714,-1.355373 z"
       id="path3810"
       n="6" /><path
       style="fill:#000000"
       d="M 91.607808,73.210117 C 90.659128,72.677586 83.068281,71.040603 78.55503,70.395257 L 74.145308,69.764715 74.042777,66.658094 C 73.931171,63.276528 74.91582,55.644525 76.132082,50.463919 l 0.739468,-3.149728 2.002656,0.209319 c 4.363426,0.456068 19.789157,5.712214 19.789157,6.742935 0,0.228707 -0.481339,1.834674 -1.069643,3.568814 -1.38448,4.081025 -2.388315,7.97388 -3.132766,12.148816 -0.554541,3.109904 -0.659798,3.357574 -1.46079,3.437236 -0.474754,0.04722 -1.101315,-0.04782 -1.392356,-0.211194 z"
       id="path3800"
       n="7" /><path
       style="fill:#000000"
       d="m 51.038364,43.69869 c 0,-2.436579 4.426772,-13.975384 7.473851,-19.48131 1.6306,-2.946416 1.919202,-3.278873 3.026712,-3.486643 0.673334,-0.126318 4.8171,-0.144192 9.208368,-0.03972 8.043613,0.191364 13.895729,0.894523 14.746658,1.771879 0.31682,0.326659 0.08294,0.957371 -1.008024,2.718402 -2.25011,3.632112 -6.356245,12.203385 -7.653582,15.976326 l -1.187227,3.452715 -3.572128,-0.277715 c -4.362493,-0.339163 -16.22669,-0.334219 -19.006156,0.0079 -2.000213,0.246216 -2.028472,0.237274 -2.028472,-0.641854 z"
       id="path3816"
       n="9" /><path
       style="fill:#000000"
       d="m 209.43558,48.583451 c -1.4949,-0.32768 -5.42426,-0.56224 -11.28889,-0.673882 -4.9477,-0.09419 -9.19427,-0.240973 -9.4368,-0.326189 -0.24254,-0.08522 -0.44097,-0.396148 -0.44097,-0.690959 0,-1.887113 -3.61149,-11.364999 -6.55725,-17.208656 -1.05018,-2.083296 -1.90942,-4.01656 -1.90942,-4.296143 0,-0.350035 0.63168,-0.598631 2.02847,-0.798301 2.64172,-0.377631 18.36233,-0.375545 21.0126,0.0028 2.3994,0.342522 2.52288,0.493277 4.96123,6.057243 2.63947,6.02289 5.84531,16.789561 5.36887,18.031128 -0.22278,0.580565 -0.70352,0.568085 -3.73784,-0.09703 z"
       id="path3812"
       n="61" /><path
       style="fill:#000000"
       d="m 163.22572,51.551436 c -1.24068,-3.436296 -4.68586,-10.328031 -7.03875,-14.080306 -1.17562,-1.874828 -2.1375,-3.640383 -2.1375,-3.923455 0,-1.437616 17.09239,-7.576667 21.61417,-7.763132 l 1.79642,-0.07408 2.67947,5.291667 c 2.29787,4.538036 6.3655,15.199879 6.3655,16.684891 0,0.462952 0.19344,0.413521 -6.52639,1.667711 -2.71639,0.506987 -7.26724,1.704743 -10.113,2.66168 -2.84576,0.956936 -5.3248,1.739884 -5.50898,1.739884 -0.18418,0 -0.6931,-0.992187 -1.13094,-2.204861 z"
       id="path3808"
       n="62" /><path
       style="fill:#000000"
       d="m 144.1717,64.344023 c 0,-1.047289 -7.20752,-12.070158 -9.63833,-14.740452 -0.40121,-0.440736 -0.76136,-1.018565 -0.80032,-1.284065 -0.0704,-0.479653 2.68325,-3.088547 6.73448,-6.380454 2.83276,-2.301813 10.3922,-7.232902 11.08704,-7.232172 1.06214,0.0011 6.83123,10.095454 9.34987,16.359725 0.69241,1.722128 1.25892,3.268169 1.25892,3.435646 0,0.167478 -1.30969,0.960017 -2.91041,1.761197 -3.84183,1.922873 -9.66148,5.384081 -11.89453,7.074219 -1.70419,1.289847 -3.18672,1.758027 -3.18672,1.006356 z"
       id="path3804"
       n="63" /><path
       style="fill:#000000"
       d="m 87.550863,91.976644 c -2.522361,-0.270761 -5.96645,-0.419479 -7.653532,-0.330484 l -3.067422,0.161808 -0.356871,-1.122363 C 75.313729,87.039569 73.968919,78.153794 73.968919,74.139747 v -2.039006 h 1.541806 c 2.160803,0 8.825762,1.21038 13.586842,2.467419 2.208881,0.583197 4.041584,1.060359 4.072672,1.060359 0.03109,0 0.02018,3.770312 -0.02424,8.378472 -0.06386,6.62449 -0.17793,8.387209 -0.544894,8.420209 -0.255269,0.02295 -2.527876,-0.179795 -5.050237,-0.450556 z"
       id="path3780"
       n="8" /><path
       style="fill:#000000"
       d="m 48.646042,70.777825 c -0.139431,-0.339549 -0.23915,-3.395486 -0.221597,-6.790973 0.02858,-5.527642 0.618367,-11.794185 1.494116,-15.874999 l 0.264974,-1.234722 2.985053,-0.41438 c 5.107683,-0.70904 20.586431,-0.44628 21.395918,0.363207 0.118989,0.118989 -0.274446,2.639806 -0.874302,5.601814 -0.999907,4.937408 -1.746133,10.813913 -1.938198,15.263247 l -0.07614,1.763889 -6.702778,0.228572 c -4.159984,0.14186 -8.358983,0.509896 -11.068518,0.970139 -5.252856,0.892253 -4.946112,0.885007 -5.258526,0.124206 z"
       id="path3802"
       n="10" /><path
       style="fill:#000000"
       d="m 168.74188,75.011158 c -0.0945,-0.339549 -0.28001,-1.728611 -0.41227,-3.086806 -0.32766,-3.364879 -1.04105,-7.004376 -2.30276,-11.748044 -0.58323,-2.192813 -0.97908,-4.118561 -0.87965,-4.279439 0.59933,-0.969733 14.53448,-4.756056 20.04492,-5.44641 1.51454,-0.189742 1.71811,-0.131131 2.00481,0.577187 0.8537,2.109185 1.54896,8.840222 1.57448,15.243123 l 0.0267,6.693639 -5.11527,0.462057 c -2.81341,0.254132 -7.05543,0.853557 -9.42673,1.332056 -5.13748,1.036681 -5.29401,1.043853 -5.5142,0.252637 z"
       id="path3798"
       n="59" /><path
       style="fill:#000000"
       d="m 208.73003,75.071084 c -3.83112,-0.869618 -11.16377,-1.834421 -15.16945,-1.995938 l -2.29305,-0.09246 -0.2283,-6.702778 c -0.14161,-4.157405 -0.52097,-8.489216 -0.99898,-11.40704 -0.42387,-2.587344 -0.66752,-4.807425 -0.54143,-4.933513 0.50201,-0.502006 13.1215,-0.205676 17.71416,0.415963 7.19423,0.973772 6.54973,0.55017 7.09125,4.660746 0.46143,3.502704 0.36632,17.260768 -0.13701,19.818705 -0.27229,1.383787 -0.36436,1.387789 -5.43719,0.236315 z"
       id="path3796"
       n="58" /><path
       style="fill:#000000"
       d="m 128.02255,74.305602 c -1.56962,-1.891771 -3.97568,-4.546575 -5.3468,-5.899566 -1.37112,-1.352991 -2.49294,-2.608329 -2.49294,-2.789641 0,-0.439234 2.99494,-5.137083 5.08461,-7.975709 2.81779,-3.827692 5.99523,-7.363171 6.64009,-7.388305 0.34128,-0.0133 1.32307,0.873796 2.21858,2.004611 3.01277,3.804404 8.11334,11.828545 8.50412,13.378575 0.15878,0.629784 -0.83646,1.77979 -5.57079,6.437063 -3.17026,3.118661 -5.85837,5.670801 -5.97357,5.671424 -0.11519,6.22e-4 -1.49368,-1.546681 -3.0633,-3.438452 z"
       id="path3794"
       n="64" /><path
       style="fill:#000000"
       d="m 23.913911,80.944558 c -0.217164,-0.134215 -0.5481,-1.424917 -0.735414,-2.868227 -0.472012,-3.637 -0.447136,-16.312849 0.03842,-19.577497 0.466985,-3.139788 0.383625,-3.064098 6.167667,-5.600159 6.673556,-2.926075 17.392013,-6.014701 18.170664,-5.236049 0.236103,0.236103 0.158507,1.335724 -0.233698,3.311763 -0.412597,2.078778 -0.643409,5.667811 -0.776346,12.07186 -0.129716,6.248866 -0.31267,9.147477 -0.582039,9.221455 -6.492848,1.783157 -14.7658,5.068146 -19.666689,7.809167 -1.093247,0.611442 -2.165401,1.001902 -2.382565,0.867687 z"
       id="path3790"
       n="13" /><path
       style="fill:#000000"
       d="m 151.08522,81.890324 c -0.72345,-2.660948 -2.96659,-9.14567 -3.97877,-11.502265 -0.94221,-2.193699 -1.1866,-3.1255 -0.9291,-3.542421 0.96645,-1.564777 13.50596,-9.079679 15.7612,-9.445654 l 1.20971,-0.196308 0.60913,2.068671 c 1.4079,4.781334 3.32741,16.233748 2.8503,17.005736 -0.10353,0.167508 -1.89991,0.904708 -3.99197,1.638222 -2.09206,0.733515 -5.29537,2.026962 -7.11847,2.874327 -3.51142,1.632087 -4.21932,1.808529 -4.41203,1.099692 z"
       id="path3788"
       n="60" /><path
       style="fill:#000000"
       d="m 235.16588,85.588848 c -3.67544,-2.253956 -11.8842,-6.162767 -15.76824,-7.508457 l -3.26711,-1.131943 0.2685,-3.393992 c 0.33482,-4.232357 0.3263,-16.462596 -0.0134,-19.180798 -0.25007,-2.00121 -0.24149,-2.028472 0.63808,-2.028472 1.2322,0 7.95615,2.210953 12.47284,4.101294 5.32001,2.226552 10.16906,4.973975 10.41831,5.902919 0.32552,1.213208 0.23048,13.162284 -0.13228,16.630509 -0.48944,4.679413 -1.11855,7.881993 -1.58335,8.060356 -0.22553,0.08654 -1.59055,-0.566597 -3.03339,-1.451416 z"
       id="path3786"
       n="57" /><path
       style="fill:#000000"
       d="m 168.33402,94.319373 c -0.0627,-0.100516 0.0362,-1.449891 0.21978,-2.998611 0.18354,-1.54872 0.39202,-5.093544 0.4633,-7.877387 0.0713,-2.783844 0.27299,-5.204922 0.44825,-5.380175 0.83942,-0.839423 12.79999,-2.787459 17.11446,-2.787459 h 2.04188 l -0.002,1.499306 c -0.003,2.202774 -1.19654,8.759396 -2.46914,13.569032 l -1.11259,4.204897 -8.29484,-0.02342 c -4.56216,-0.01288 -8.34611,-0.105664 -8.40877,-0.20618 z"
       id="path3778"
       n="56" /><path
       style="fill:#000000"
       d="M 54.058244,94.498619 C 51.630003,88.68702 48.302476,74.28897 49.25198,73.702144 c 0.516955,-0.319496 5.616152,-1.191502 9.269007,-1.58508 1.884124,-0.203005 5.654436,-0.369101 8.378472,-0.369101 h 4.952794 v 1.865492 c 0,2.640128 0.907377,9.627123 1.833309,14.116858 0.8843,4.287867 0.825194,4.463368 -1.506561,4.473359 -1.98792,0.0085 -7.488738,1.024913 -12.625656,2.332864 -2.592802,0.660174 -4.773484,1.200316 -4.84596,1.200316 -0.07248,0 -0.36459,-0.557205 -0.649141,-1.238233 z"
       id="path3774"
       n="11" /><path
       style="fill:#000000"
       d="m 202.73281,98.861334 c -3.34059,-1.176646 -10.45745,-2.952244 -13.34741,-3.330066 -1.03517,-0.135334 -1.95365,-0.432451 -2.04106,-0.660261 -0.0874,-0.22781 0.39801,-2.626502 1.07874,-5.330427 0.68072,-2.703925 1.53054,-6.979978 1.88848,-9.502339 l 0.6508,-4.586111 2.98192,-0.100746 c 3.30395,-0.111627 11.25049,0.898694 16.19036,2.058437 2.9417,0.690629 3.1815,0.812308 3.1815,1.614352 0,1.748908 -1.15579,6.433623 -2.82226,11.439372 -1.97359,5.928255 -3.49415,9.295209 -4.24002,9.38858 -0.28734,0.03597 -1.87182,-0.409885 -3.52105,-0.990791 z"
       id="path3770"
       n="55" /><path
       style="fill:#000000"
       d="M 30.656971,104.29171 C 27.264778,96.833563 24.623502,88.60689 24.477721,85.045459 l -0.07408,-1.809753 5.356907,-2.704194 c 3.433513,-1.733256 7.355341,-3.361116 10.922813,-4.533808 6.478326,-2.129541 6.143355,-2.22869 6.803073,2.013649 0.610854,3.928118 2.275105,10.382686 3.717624,14.418289 0.684863,1.91598 1.245252,3.653125 1.245311,3.860324 5.8e-5,0.207199 -1.388957,0.914362 -3.0867,1.571474 -3.929179,1.520791 -10.08991,4.65931 -13.732085,6.99567 -1.556915,0.99872 -3.069209,1.81585 -3.360652,1.81585 -0.312039,0 -0.97518,-0.97901 -1.612962,-2.38125 z"
       id="path3768"
       n="14" /><path
       style="fill:#000000"
       d="m 224.95781,110.16548 c -3.81265,-2.74178 -8.63385,-5.58457 -12.89203,-7.60169 -1.83467,-0.86909 -3.33575,-1.70143 -3.33575,-1.84966 0,-0.14822 0.62237,-1.704448 1.38305,-3.458278 1.74174,-4.015787 3.99751,-11.04124 4.82771,-15.03563 0.51987,-2.501281 0.75531,-3.063925 1.28211,-3.063925 1.58716,0 11.48305,4.32234 15.96685,6.974021 4.82839,2.855468 5.46806,3.348282 5.46806,4.212705 0,0.46054 -0.81847,3.298359 -1.81881,6.306265 -1.94658,5.853152 -6.46166,15.418082 -7.35342,15.577802 -0.29104,0.0521 -1.87854,-0.87559 -3.52777,-2.06161 z"
       id="path3762"
       n="54" /><path
       style="fill:#000000"
       d="m 63.531759,112.01291 c -2.240635,-3.09802 -5.813814,-9.13657 -7.06532,-11.94014 -0.715112,-1.601969 -0.754987,-1.903054 -0.310851,-2.34719 1.007592,-1.007592 17.220269,-4.191056 18.616157,-3.655404 0.268411,0.102999 1.091781,1.9092 1.829711,4.013779 0.73793,2.104575 2.034989,5.318135 2.882355,7.141235 0.847365,1.8231 1.540664,3.50886 1.540664,3.74613 0,0.24091 -1.986124,1.07789 -4.497917,1.89547 -2.473854,0.80524 -5.766287,2.01667 -7.316516,2.69207 -1.55023,0.67539 -3.010624,1.22799 -3.24532,1.22799 -0.234696,0 -1.329529,-1.24827 -2.432963,-2.77394 z"
       id="path3760"
       n="12" /><path
       style="fill:#000000"
       d="m 191.09114,117.07845 c -2.76599,-1.43953 -10.02075,-4.40827 -10.77258,-4.40827 -1.09767,0 -0.84891,-1.0396 1.18895,-4.96869 1.14879,-2.21493 2.69214,-5.50935 3.42966,-7.32095 l 1.34095,-3.293813 1.61276,0.230183 c 3.63502,0.518811 8.67131,1.66962 12.26297,2.80213 4.8287,1.52256 4.95786,1.5758 5.17102,2.1313 0.25418,0.66236 -4.04084,7.72246 -7.37907,12.12962 -2.13325,2.81635 -3.06162,3.77502 -3.70416,3.82508 -0.4716,0.0367 -1.88932,-0.47022 -3.1505,-1.12659 z"
       id="path3758"
       n="52" /><path
       style="fill:#000000"
       d="m 10.947283,122.81255 c -3.2363624,-5.81713 -7.8866958,-17.77076 -7.8866958,-20.27267 0,-1.10164 4.0658225,-5.695065 8.4666668,-9.565348 4.247948,-3.735822 9.441159,-7.536432 10.117145,-7.404155 0.39844,0.07797 0.829441,1.08314 1.409543,3.287308 1.604798,6.097629 3.874593,12.306545 6.1544,16.835075 0.558874,1.11013 1.009905,2.22138 1.002292,2.46945 -0.0076,0.24807 -1.129167,1.31594 -2.492344,2.37305 -3.8124,2.95644 -7.935321,6.95408 -11.428536,11.08127 -1.74625,2.06318 -3.342519,3.75178 -3.547263,3.75244 -0.204745,6.7e-4 -1.012588,-1.14972 -1.795208,-2.55642 z"
       id="path3756"
       n="17" /><path
       style="fill:#000000"
       d="m 46.074478,126.51671 c -0.294018,-0.33955 -1.461035,-1.64923 -2.593372,-2.91041 -3.935639,-4.38346 -10.082486,-13.21239 -10.081048,-14.47977 7.6e-4,-0.66962 5.040882,-3.83212 10.437704,-6.54928 3.821811,-1.92419 8.725122,-4.018176 9.409009,-4.018176 0.13924,0 0.907307,1.309688 1.706817,2.910416 1.825243,3.65439 3.330757,6.21831 6.220674,10.59391 1.253283,1.89758 2.191897,3.67635 2.085809,3.95281 -0.106088,0.27646 -0.875061,0.85067 -1.708829,1.27603 -2.842797,1.45029 -7.512328,4.48178 -11.034945,7.16396 -1.934322,1.47283 -3.604766,2.67787 -3.712095,2.67787 -0.10733,0 -0.435706,-0.27781 -0.729724,-0.61736 z"
       id="path3754"
       n="15" /><path
       style="fill:#000000"
       d="m 210.567,130.18836 c -2.59475,-2.39357 -6.64167,-5.49173 -10.39511,-7.95807 -1.88997,-1.24188 -3.43631,-2.44618 -3.43631,-2.67621 0,-0.23004 0.80044,-1.41561 1.77874,-2.6346 2.21341,-2.75797 6.64012,-9.45213 7.88389,-11.9222 0.68665,-1.36365 1.13098,-1.85208 1.68484,-1.85208 1.71712,0 14.21547,7.14975 18.10948,10.35963 l 1.05833,0.8724 -0.62646,1.17495 c -1.92075,3.60246 -12.71763,16.16801 -13.89227,16.16801 -0.2775,0 -1.25181,-0.68932 -2.16513,-1.53183 z"
       id="path3748"
       n="51" /><path
       style="fill:#000000"
       d="m 246.21087,131.45561 c -0.38353,-0.33955 -1.82834,-2.12548 -3.21068,-3.96875 -2.46596,-3.28821 -7.4456,-8.66826 -10.6843,-11.54343 -0.90076,-0.79966 -1.73268,-1.60752 -1.8487,-1.79525 -0.11603,-0.18774 0.88917,-2.4624 2.23378,-5.0548 2.42051,-4.66676 5.0546,-11.18106 6.22867,-15.40397 0.33425,-1.202235 0.79615,-2.185881 1.02645,-2.185881 1.4538,0 11.56818,9.439201 15.66422,14.618561 2.02997,2.56685 2.19749,2.90839 2.00795,4.0937 -0.26498,1.65714 -2.94051,8.27648 -5.01444,12.40594 -1.4905,2.96776 -5.32498,9.45124 -5.58969,9.45124 -0.0638,0 -0.42973,-0.27781 -0.81326,-0.61736 z"
       id="path3746"
       n="53" /><path
       style="fill:#000000"
       d="m 61.092531,138.72089 c -3.422713,-2.19053 -9.435441,-6.82375 -11.070972,-8.53095 -0.697058,-0.7276 -1.110523,-1.46091 -0.994374,-1.76359 0.548992,-1.43065 14.131794,-10.4645 15.733847,-10.4645 0.393428,0 11.670716,11.24643 11.673615,11.64167 7.11e-4,0.097 -1.645657,1.57147 -3.658597,3.27658 -2.01294,1.7051 -4.644964,4.12604 -5.848942,5.37986 -1.203979,1.25382 -2.374295,2.27685 -2.600704,2.27341 -0.226408,-0.003 -1.681651,-0.81907 -3.233873,-1.81248 z"
       id="path3744"
       n="16" /><path
       style="fill:#000000"
       d="m 188.53621,138.31182 c -3.05445,-3.14033 -5.55422,-5.78907 -5.55504,-5.88608 -8.2e-4,-0.097 1.64545,-1.57147 3.65839,-3.27658 2.01294,-1.7051 4.64497,-4.12604 5.84895,-5.37986 1.20397,-1.25382 2.35963,-2.27967 2.56812,-2.27967 0.61405,0 5.82367,3.42005 9.44006,6.19729 4.11415,3.15949 6.16109,5.21406 5.89237,5.91435 -0.57435,1.49672 -14.22412,10.51639 -15.80404,10.44319 -0.2724,-0.0126 -2.99436,-2.5923 -6.04881,-5.73264 z"
       id="path3742"
       n="48" /><path
       style="fill:#000000"
       d="m 25.93343,142.21532 c -5.847221,-5.71822 -11.583954,-12.8801 -11.583954,-14.46169 0,-0.82166 2.848493,-4.43951 6.702778,-8.51315 2.990469,-3.16066 9.423758,-8.68696 10.11268,-8.68696 0.249913,0 0.676618,0.35719 0.948234,0.79375 3.781857,6.07851 6.67981,10.01149 10.874846,14.75887 1.12922,1.27791 2.053128,2.40071 2.053128,2.49513 0,0.0944 -1.431296,1.63327 -3.180657,3.41966 -3.263996,3.33308 -8.076445,9.16036 -10.015137,12.12708 -0.600438,0.91884 -1.344307,1.67346 -1.653041,1.67695 -0.308734,0.003 -2.225229,-1.62085 -4.258877,-3.60964 z"
       id="path3740"
       n="18" /><path
       style="fill:#000000"
       d="m 227.30245,150.68199 c -3.78186,-6.07851 -6.67981,-10.01149 -10.87485,-14.75888 -1.12922,-1.2779 -2.05313,-2.39731 -2.05313,-2.48759 0,-0.0903 1.4566,-1.66409 3.23689,-3.49737 3.35417,-3.45402 8.06044,-9.15174 9.95891,-12.0569 0.60043,-0.91884 1.3088,-1.67346 1.57413,-1.67695 1.98198,-0.026 15.92174,15.79851 15.92174,18.07451 0,0.8188 -2.85338,4.44149 -6.70278,8.50997 -2.99047,3.16066 -9.42376,8.68696 -10.11268,8.68696 -0.24991,0 -0.67662,-0.35719 -0.94823,-0.79375 z"
       id="path3734"
       n="50" /><path
       style="fill:#000000"
       d="m 45.906243,156.4441 c -4.425349,-2.26537 -10.192191,-5.86633 -12.683156,-7.91966 l -1.058334,-0.8724 0.626461,-1.17495 c 1.892834,-3.5501 12.712505,-16.16802 13.863825,-16.16802 0.261855,0 1.474288,0.89128 2.694296,1.98062 2.758317,2.4629 7.804931,6.25596 10.949446,8.22967 1.309687,0.82204 2.38125,1.713 2.38125,1.97989 0,0.2669 -0.460985,1.01031 -1.024411,1.65201 -1.793871,2.04311 -6.374585,8.78625 -8.023351,11.81095 -1.148589,2.10711 -1.783289,2.92186 -2.276165,2.92186 -0.3759,0 -2.828338,-1.09798 -5.449861,-2.43997 z"
       id="path3732"
       n="19" /><path
       style="fill:#000000"
       d="m 204.46203,160.55977 c -1.85701,-3.71798 -3.37488,-6.2957 -6.22701,-10.57496 -1.32104,-1.98204 -2.20237,-3.6515 -2.08675,-3.95281 0.11009,-0.28688 0.88233,-0.86962 1.7161,-1.29498 2.78138,-1.41896 7.52971,-4.48833 10.74032,-6.94266 4.17675,-3.1929 3.95579,-3.086 4.70856,-2.27799 2.50694,2.69088 4.96754,5.57935 6.68335,7.84548 2.54309,3.35876 6.01972,8.8697 6.01896,9.54087 -7.6e-4,0.66963 -5.04089,3.83213 -10.43771,6.54929 -3.82181,1.92419 -8.72512,4.01817 -9.40901,4.01817 -0.13924,0 -0.9073,-1.30968 -1.70681,-2.91041 z"
       id="path3730"
       n="47" /><path
       style="fill:#000000"
       d="m 68.324475,164.18226 c -5.906097,-1.1148 -13.625995,-3.45492 -14.139726,-4.28615 -0.735553,-1.19015 9.414327,-16.18148 10.955669,-16.18148 0.350865,0 2.044251,0.68738 3.76308,1.52752 2.665198,1.30271 5.611084,2.52699 10.092504,4.19435 0.533577,0.19852 0.970139,0.48731 0.970139,0.64174 0,0.15443 -0.933019,2.07986 -2.073376,4.27873 -1.140356,2.19886 -2.671091,5.46637 -3.401633,7.26113 -1.518757,3.73121 -1.0395,3.53193 -6.166657,2.56416 z"
       id="path3728"
       n="20" /><path
       style="fill:#000000"
       d="m 184.24773,167.76138 c -0.10025,-0.16221 -0.80849,-2.05044 -1.57388,-4.19607 -0.76539,-2.14563 -2.04212,-5.28927 -2.83717,-6.98586 -0.79505,-1.69659 -1.44554,-3.27915 -1.44554,-3.5168 0,-0.24121 1.95235,-1.0691 4.41938,-1.87403 2.43066,-0.79307 5.76778,-2.0211 7.41583,-2.72895 1.64805,-0.70785 3.19151,-1.21199 3.42993,-1.12032 1.10842,0.42619 7.3424,10.25716 9.27434,14.62561 0.70653,1.5976 0.74984,1.91828 0.31749,2.35063 -0.64603,0.64603 -6.84004,2.12321 -12.68614,3.02545 -5.10259,0.78749 -6.04841,0.85045 -6.31424,0.42034 z"
       id="path3724"
       n="44" /><path
       style="fill:#000000"
       d="m 16.686363,168.74338 c -3.117689,-2.36015 -10.121533,-9.33419 -12.8910575,-12.8362 -2.0299672,-2.56685 -2.1974933,-2.90839 -2.0079545,-4.0937 0.7399669,-4.6275 9.618244,-22.15247 10.961473,-21.63703 0.270903,0.10396 1.770059,1.88289 3.331458,3.95318 2.750155,3.64649 7.660645,8.97442 11.01944,11.95621 0.900761,0.79965 1.732677,1.60752 1.848703,1.79525 0.116026,0.18774 -0.889174,2.46239 -2.233777,5.0548 -2.420509,4.66675 -5.054602,11.18106 -6.228675,15.40397 -0.334251,1.20223 -0.796152,2.18588 -1.026447,2.18588 -0.230296,0 -1.478219,-0.80206 -2.773163,-1.78236 z"
       id="path3720"
       n="21" /><path
       style="fill:#000000"
       d="m 237.13253,176.08201 c -0.0827,-0.24254 -0.4092,-1.47285 -0.72556,-2.73403 -1.38381,-5.51649 -3.92999,-12.503 -6.1997,-17.01147 -0.55887,-1.11012 -1.0099,-2.22137 -1.00229,-2.46944 0.008,-0.24807 1.12917,-1.31594 2.49234,-2.37306 3.8124,-2.95643 7.93533,-6.95407 11.42854,-11.08127 1.74625,-2.06317 3.34252,-3.75177 3.54726,-3.75244 1.43959,-0.005 9.68191,19.42998 9.68191,22.82909 0,1.76406 -7.60589,9.32493 -14.70507,14.61803 -3.20152,2.38702 -4.22437,2.83412 -4.51743,1.97459 z"
       id="path3718"
       n="49" /><path
       style="fill:#000000"
       d="m 38.161975,181.14891 c -5.855383,-2.34953 -9.255339,-4.09551 -14.728472,-7.56352 -1.293229,-0.81944 -1.675424,-1.26966 -1.67451,-1.97252 0.0038,-2.91312 7.628818,-21.24931 9.065738,-21.8007 0.279955,-0.10743 1.011551,0.18324 1.62577,0.64594 3.435609,2.58807 9.414129,6.26001 13.53391,8.31237 2.585647,1.2881 4.701175,2.44824 4.701175,2.57808 0,0.12985 -0.622372,1.67104 -1.383049,3.42487 -1.741743,4.01578 -3.997509,11.04124 -4.827713,15.03563 -0.551378,2.65286 -0.733591,3.06222 -1.358164,3.05122 -0.396743,-0.007 -2.626351,-0.7771 -4.954685,-1.71137 z"
       id="path3716"
       n="22" /><path
       style="fill:#000000"
       d="m 70.796259,185.25423 c 0.0034,-2.2029 1.196559,-8.75949 2.469338,-13.5698 l 1.112794,-4.20567 8.350125,0.0976 8.350125,0.0976 -0.04922,0.80859 c -0.02707,0.44472 -0.241677,3.32129 -0.476899,6.39238 -0.235221,3.07108 -0.326075,6.2613 -0.201897,7.08938 0.16297,1.08676 0.08736,1.62047 -0.271808,1.91855 -1.138243,0.94466 -12.707272,2.87078 -17.243014,2.87078 h -2.041881 z"
       id="path3710"
       n="24" /><path
       style="fill:#000000"
       d="m 57.002549,186.04217 c -2.443517,-0.35912 -5.89633,-0.9942 -7.672916,-1.41129 -3.729859,-0.87567 -3.611194,-0.644 -2.669863,-5.21235 1.110677,-5.39021 5.459672,-17.35944 6.307518,-17.35944 0.203293,0 1.797138,0.48774 3.541877,1.08385 3.569855,1.2197 10.677046,2.98326 13.521046,3.35507 1.035168,0.13533 1.953649,0.43245 2.041068,0.66026 0.08742,0.22781 -0.398015,2.6265 -1.078741,5.33043 -0.680726,2.70392 -1.530619,6.97998 -1.888651,9.50234 l -0.650968,4.58611 -3.503805,0.059 c -1.927093,0.0324 -5.503047,-0.23484 -7.946565,-0.59396 z"
       id="path3708"
       n="23" /><path
       style="fill:#000000"
       d="m 212.66443,187.19451 c -0.17806,-0.33955 -0.51351,-1.80799 -0.74544,-3.2632 -0.6257,-3.92588 -2.29633,-10.38395 -3.70743,-14.33167 -0.68487,-1.91598 -1.24526,-3.65313 -1.24532,-3.86033 -5e-5,-0.2072 1.38896,-0.91436 3.0867,-1.57147 3.92918,-1.52079 10.08991,-4.65931 13.73209,-6.99567 1.55691,-0.99872 3.06921,-1.81585 3.36065,-1.81585 1.50073,0 7.59986,16.92829 7.79221,21.6275 l 0.0741,1.80975 -5.3569,2.7042 c -3.40709,1.71991 -7.3555,3.36116 -10.8478,4.50915 -3.02,0.99272 -5.56474,1.80495 -5.65499,1.80495 -0.0902,0 -0.30978,-0.27781 -0.48785,-0.61736 z"
       id="path3706"
       n="46" /><path
       style="fill:#000000"
       d="m 178.21475,189.23333 c -1.94028,-0.34939 -5.41641,-1.12964 -7.72474,-1.73391 -2.30833,-0.60426 -4.22041,-1.09866 -4.24906,-1.09866 -0.0287,0 -0.0127,-3.77031 0.0354,-8.37847 l 0.0875,-8.37848 0.81021,0.0492 c 0.44561,0.0271 3.30888,0.24063 6.36282,0.47457 3.05394,0.23395 6.33152,0.31823 7.28352,0.1873 1.72443,-0.23717 1.7323,-0.23367 2.10501,0.93653 1.17487,3.68876 2.52135,12.55267 2.52135,16.59809 v 2.03901 l -1.85208,-0.03 c -1.01864,-0.0165 -3.43958,-0.31584 -5.37986,-0.66522 z"
       id="path3704"
       n="40" /><path
       style="fill:#000000"
       d="m 187.56336,188.4158 c 0,-2.64012 -0.90738,-9.62712 -1.83331,-14.11685 -0.8843,-4.28787 -0.82519,-4.46337 1.50656,-4.47336 1.99106,-0.009 7.49155,-1.02563 12.65008,-2.33913 2.60623,-0.66361 4.85642,-1.08469 5.00041,-0.93573 0.54345,0.56218 3.12185,8.64988 3.98354,12.4952 1.11322,4.96781 1.67682,8.85348 1.3339,9.19641 -0.86321,0.8632 -11.06311,2.03895 -17.68839,2.03895 h -4.95279 z"
       id="path3702"
       n="43" /><path
       style="fill:#000000"
       d="m 96.587519,204.77041 c -0.939541,-0.58067 -3.411297,-11.98682 -3.631893,-16.75971 l -0.113096,-2.44698 4.409722,-1.61834 c 2.425347,-0.89009 5.704698,-2.22801 7.287458,-2.97317 1.58275,-0.74516 3.07066,-1.29052 3.30647,-1.21192 0.23581,0.0786 0.8086,1.45865 1.27287,3.06677 0.46427,1.60812 1.57116,4.69725 2.45977,6.86474 0.8886,2.16748 1.64021,4.3317 1.67023,4.80936 0.0443,0.70446 -0.46029,1.23745 -2.6717,2.82222 -2.84354,2.03777 -10.10472,6.2711 -12.307295,7.17526 -0.701389,0.28792 -1.45853,0.41022 -1.682536,0.27177 z"
       id="path3696"
       n="28" /><path
       style="fill:#000000"
       d="m 154.17339,204.51425 c -4.19519,-2.51842 -8.28542,-5.3814 -10.62862,-7.43957 l -1.50888,-1.32533 0.80921,-1.5875 c 1.62134,-3.18072 3.56259,-7.6496 4.51576,-10.39553 0.53662,-1.54594 1.14457,-2.8671 1.35098,-2.93591 0.20641,-0.0688 2.00776,0.75006 4.00299,1.8197 1.99524,1.06964 5.18297,2.57024 7.08386,3.33466 1.90089,0.76443 3.54417,1.47787 3.65173,1.58544 0.43865,0.43864 -1.38458,9.35497 -2.89882,14.17636 -1.22964,3.91526 -1.55867,4.68526 -2.08898,4.88876 -0.25362,0.0973 -2.18378,-0.85716 -4.28923,-2.12108 z"
       id="path3694"
       n="36" /><path
       style="fill:#000000"
       d="m 36.750864,208.12574 c -8.462736,-2.85883 -16.85333,-6.96697 -17.250149,-8.44588 -0.325525,-1.21321 -0.230485,-13.16229 0.132275,-16.63051 0.483898,-4.62639 1.117047,-7.88142 1.566603,-8.05393 0.216307,-0.083 1.422582,0.48343 2.680611,1.25874 3.45806,2.13115 12.455018,6.42183 16.13777,7.69615 l 3.26711,1.1305 -0.268499,3.39399 c -0.334822,4.23236 -0.326305,16.4626 0.01336,19.1808 l 0.253475,2.02847 -0.973221,-0.005 c -0.535271,-0.002 -3.036971,-0.7017 -5.559332,-1.55379 z"
       id="path3692"
       n="25" /><path
       style="fill:#000000"
       d="m 125.29469,209.77227 c -3.47862,-4.40684 -8.63966,-12.61913 -8.63966,-13.7475 0,-0.43777 11.23703,-11.7372 11.67473,-11.73957 0.1152,-6.2e-4 1.4892,1.54668 3.05333,3.43846 1.56413,1.89177 3.97019,4.52604 5.3468,5.85394 1.3766,1.3279 2.50292,2.58324 2.50292,2.78964 0,0.47786 -2.90426,5.05953 -5.08462,8.02133 -2.81779,3.82769 -5.99522,7.36317 -6.64009,7.38831 -0.34182,0.0133 -1.31938,-0.87202 -2.21341,-2.00461 z"
       id="path3690"
       n="32" /><path
       style="fill:#000000"
       d="m 72.218685,211.00161 c -0.853674,-2.10912 -1.548956,-8.84022 -1.574476,-15.24267 l -0.02668,-6.6932 4.938889,-0.44253 c 2.716389,-0.24339 7.134274,-0.87173 9.817521,-1.39631 3.877845,-0.75812 4.935947,-0.86104 5.158029,-0.50171 0.153668,0.24864 0.384915,1.61652 0.513882,3.03972 0.309161,3.4117 1.045047,7.20845 2.342909,12.08804 0.583238,2.19281 0.979083,4.11856 0.879655,4.27944 -0.599328,0.96973 -14.534483,4.75606 -20.044925,5.44641 -1.514531,0.18974 -1.71811,0.13113 -2.004805,-0.57719 z"
       id="path3688"
       n="27" /><path
       style="fill:#000000"
       d="m 56.239878,212.13879 c -4.73363,-0.49566 -10.258034,-1.36911 -10.514577,-1.66245 -0.482974,-0.55224 -1.036937,-7.3301 -1.036937,-12.68716 0,-4.9579 0.485421,-11.2859 0.897339,-11.69782 0.08238,-0.0824 2.573239,0.3438 5.535247,0.94707 5.053734,1.02928 10.620456,1.74031 15.086858,1.92703 l 1.940278,0.0811 0.228301,6.70278 c 0.141604,4.15741 0.520965,8.48922 0.998978,11.40704 0.423873,2.58734 0.699338,4.7756 0.612147,4.86279 -0.33586,0.33586 -10.811912,0.427 -13.747634,0.11961 z"
       id="path3686"
       n="26" /><path
       style="fill:#000000"
       d="m 211.73417,214.27913 c -0.11688,-0.18911 0.0506,-1.65754 0.37222,-3.26319 0.4173,-2.08351 0.62633,-5.44452 0.73008,-11.73881 0.0799,-4.8507 0.2156,-9.01788 0.30144,-9.26042 0.0858,-0.24253 0.39829,-0.44097 0.69433,-0.44097 0.29603,0 2.64257,-0.69432 5.21454,-1.54293 4.67182,-1.54146 10.32136,-3.98252 14.07236,-6.08042 1.09324,-0.61145 2.1654,-1.0019 2.38256,-0.86769 0.21717,0.13421 0.5481,1.42492 0.73542,2.86823 0.47201,3.637 0.44713,16.31285 -0.0384,19.57749 -0.46662,3.13734 -0.38865,3.06629 -6.12615,5.58198 -4.3787,1.9199 -9.15559,3.53549 -13.7578,4.65302 -3.96239,0.96216 -4.28132,0.99793 -4.58058,0.51371 z"
       id="path3684"
       n="45" /><path
       style="fill:#000000"
       d="m 176.09808,213.5778 c -6.36196,-1.66628 -15.34583,-5.08391 -15.34583,-5.83784 0,-0.21614 0.48134,-1.81182 1.06964,-3.54596 1.37732,-4.05991 2.38317,-7.95329 3.13863,-12.14882 l 0.60347,-3.35139 1.03371,0.0485 c 0.56855,0.0267 2.93872,0.53325 5.26705,1.1257 2.32833,0.59244 6.29708,1.37356 8.81945,1.73581 l 4.58611,0.65864 0.10253,3.10765 c 0.11122,3.37106 -0.87195,11.00993 -2.0785,16.14916 l -0.72865,3.10367 -1.29353,-0.0144 c -0.71143,-0.008 -3.03977,-0.47176 -5.17408,-1.03076 z"
       id="path3682"
       n="39" /><path
       style="fill:#000000"
       d="m 187.47644,215.69127 c -1.30899,-0.13344 -2.48387,-0.3465 -2.61083,-0.47347 -0.12697,-0.12696 0.25994,-2.65431 0.8598,-5.61631 0.99991,-4.93741 1.74613,-10.81392 1.9382,-15.26325 l 0.0761,-1.76389 6.70278,-0.23507 c 4.17512,-0.14643 8.41473,-0.52311 11.24251,-0.99888 3.37871,-0.56846 4.64182,-0.6617 4.93889,-0.36456 0.98734,0.98758 0.21644,16.68199 -1.12688,22.94157 l -0.26497,1.23472 -2.98505,0.41438 c -3.20698,0.44518 -14.86727,0.52269 -18.77059,0.12476 z"
       id="path3680"
       n="42" /><path
       style="fill:#000000"
       d="m 105.40779,224.29475 c -3.23557,-5.15857 -8.155538,-15.274 -8.155538,-16.76774 0,-0.16748 1.309688,-0.95865 2.910418,-1.75816 4.37927,-2.1873 9.66359,-5.37837 12.30979,-7.4336 1.26326,-0.98114 2.77146,-1.33487 2.77146,-0.65001 0,1.04728 7.20751,12.07015 9.63833,14.74045 0.40121,0.44073 0.76241,1.02578 0.80267,1.30009 0.20333,1.3854 -15.91422,13.59931 -17.94217,13.5966 -0.23998,-3.2e-4 -1.29071,-1.36276 -2.33496,-3.02763 z"
       id="path3678"
       n="31" /><path
       style="fill:#000000"
       d="m 142.05503,225.86418 c -5.66168,-4.22288 -13.02996,-10.88289 -13.04612,-11.79206 -0.004,-0.20594 1.27582,-1.87282 2.8433,-3.70416 1.56748,-1.83135 4.21569,-5.35378 5.88492,-7.82764 1.66922,-2.47385 3.20456,-4.4965 3.41184,-4.49476 0.20729,0.002 1.40877,0.81139 2.66995,1.79925 3.01642,2.36268 7.6283,5.44232 11.0243,7.3616 1.85834,1.05025 2.73403,1.75287 2.73403,2.19367 0,0.84617 -3.45738,7.72684 -5.71089,11.36547 -2.67137,4.31332 -5.22308,7.61677 -5.87597,7.60704 -0.32119,-0.005 -2.0921,-1.13357 -3.93536,-2.50841 z"
       id="path3676"
       n="35" /><path
       style="fill:#000000"
       d="m 80.742294,233.97684 c -2.229919,-4.04025 -4.122058,-8.34559 -5.827227,-13.25917 -2.175937,-6.27014 -2.25794,-6.73113 -1.235898,-6.94777 0.450404,-0.0955 3.041417,-0.58839 5.757806,-1.09538 2.716388,-0.50698 7.267237,-1.70474 10.112995,-2.66167 2.845759,-0.95694 5.324801,-1.73989 5.508981,-1.73989 0.184181,0 0.693105,0.99219 1.130943,2.20486 1.240679,3.4363 4.685856,10.32803 7.038746,14.08031 1.17563,1.87483 2.1375,3.64038 2.1375,3.92345 0,0.49124 -4.62696,2.74295 -9.172221,4.46366 -2.971002,1.12473 -10.190548,3.13102 -12.212627,3.39384 l -1.805682,0.23469 z"
       id="path3674"
       n="30" /><path
       style="fill:#000000"
       d="m 58.975864,237.74864 c -0.194028,-0.0776 -1.275634,-0.24534 -2.403568,-0.37269 -2.392054,-0.27009 -2.508858,-0.40913 -4.888879,-5.81966 -2.925359,-6.65024 -6.101953,-17.61476 -5.327613,-18.3891 0.236103,-0.23611 1.335724,-0.15687 3.311763,0.23863 2.127315,0.42579 5.435669,0.63294 11.777741,0.73747 4.850695,0.0799 9.017882,0.2156 9.260417,0.30145 0.242535,0.0858 0.440972,0.39729 0.440972,0.6921 0,1.88711 3.611488,11.365 6.557249,17.20865 1.05018,2.0833 1.909418,4.00997 1.909418,4.28149 0,0.27309 -0.512298,0.59975 -1.146528,0.73106 -1.265571,0.26204 -18.927608,0.61598 -19.490972,0.3906 z"
       id="path3672"
       n="29" /><path
       style="fill:#000000"
       d="m 166.11807,237.89602 c -7.08017,-2.22057 -17.40933,-6.99817 -17.62708,-8.15314 -0.0497,-0.2638 0.87995,-1.82902 2.06596,-3.47825 2.74179,-3.81265 5.58457,-8.63385 7.60169,-12.89203 0.86909,-1.83466 1.70144,-3.33575 1.84966,-3.33575 0.14823,0 1.68594,0.61032 3.41714,1.35626 1.73121,0.74594 4.41216,1.78914 5.95768,2.31822 2.99059,1.02378 10.68322,3.0283 11.62152,3.0283 0.78557,0 0.71351,0.56599 -0.52417,4.11703 -1.34818,3.86808 -4.97016,11.33536 -7.37154,15.19755 -2.1257,3.41883 -2.03707,3.39548 -6.99086,1.84181 z"
       id="path3670"
       n="37" /><path
       style="fill:#000000"
       d="m 181.2644,241.06633 c -3.80615,-0.3989 -7.03611,-1.06197 -7.41416,-1.52204 -0.22067,-0.26855 0.18337,-1.24766 1.20938,-2.93075 3.07337,-5.04161 6.37629,-12.127 8.07862,-17.33016 l 0.61049,-1.86596 3.58301,0.27846 c 4.37192,0.33978 16.23484,0.33531 19.01704,-0.007 2.00021,-0.24621 2.02847,-0.23727 2.02847,0.64186 0,1.23221 -2.21095,7.95615 -4.10129,12.47284 -2.22656,5.32002 -4.97398,10.16906 -5.90292,10.41831 -1.07175,0.28757 -14.00269,0.17012 -17.10864,-0.15539 z"
       id="path3668"
       n="41" /><path
       style="fill:#000000"
       d="m 122.65225,243.86848 c -1.64923,-1.37008 -4.00792,-3.4705 -5.24152,-4.66759 -2.85064,-2.76629 -8.16403,-9.04489 -8.16403,-9.64709 0,-0.25196 0.67468,-0.87286 1.4993,-1.37979 4.97459,-3.0581 9.60784,-6.50843 13.81494,-10.28785 1.3499,-1.21268 2.54424,-2.20243 2.65409,-2.19946 0.10985,0.003 1.77578,1.52093 3.70207,3.37324 3.8901,3.74071 7.354,6.6101 11.09692,9.19235 1.36842,0.94407 2.49309,1.9292 2.49925,2.18916 0.0168,0.70901 -4.46445,5.52842 -8.23033,8.85139 -4.23485,3.73678 -8.90681,7.08206 -9.87859,7.07341 -0.41442,-0.004 -2.10286,-1.12769 -3.7521,-2.49777 z"
       id="path3666"
       n="34" /><path
       style="fill:#000000"
       d="m 95.198395,252.80998 c -4.933583,-4.89783 -11.478218,-13.10516 -11.144243,-13.97549 0.09266,-0.24147 1.121894,-0.63596 2.287186,-0.87665 3.654747,-0.75487 12.336756,-3.75372 16.342812,-5.64496 2.11441,-0.99821 4.01941,-1.80869 4.23333,-1.80108 0.21392,0.008 1.25385,1.12917 2.31096,2.49235 2.95643,3.8124 6.95408,7.93532 11.08127,11.42853 2.06318,1.74625 3.75177,3.34286 3.75244,3.54803 10e-4,0.42349 -4.26078,2.77612 -9.04555,4.99296 -3.85115,1.78429 -12.46498,4.68818 -13.90657,4.68818 -0.84406,0 -1.88453,-0.85394 -5.911635,-4.85187 z"
       id="path3664"
       n="33" /><path
       style="fill:#000000"
       d="m 146.99392,257.82442 c -7.07771,-2.56236 -18.52294,-8.81195 -18.10974,-9.88871 0.10833,-0.28232 1.50652,-1.45869 3.10707,-2.61414 3.59165,-2.59285 8.54647,-7.08277 11.68682,-10.59028 1.30288,-1.4552 2.56643,-2.7641 2.80788,-2.90865 0.25738,-0.15408 2.24112,0.67672 4.79501,2.00818 4.66154,2.43027 10.76612,4.9344 15.20393,6.23672 1.50371,0.44128 2.73403,0.98497 2.73403,1.20821 0,0.80366 -3.72699,5.30413 -7.73273,9.33752 -4.76823,4.80115 -9.27159,8.46719 -10.37024,8.44208 -0.42386,-0.01 -2.27877,-0.56361 -4.12203,-1.23093 z"
       id="path3662"
       n="37" /></g></svg>
