<?xml version="1.0" encoding="UTF-8" standalone="no"?>
<!-- Created with Inkscape (http://www.inkscape.org/) -->

<svg
   width="210mm"
   height="210mm"
   viewBox="0 0 210 210"
   version="1.1"
   id="svg1"
   xml:space="preserve"
   inkscape:version="1.4 (e7c3feb1, 2024-10-09)"
   sodipodi:docname="drawing-2.svg.2025_02_10_15_41_36.0.svg"
   xmlns:inkscape="http://www.inkscape.org/namespaces/inkscape"
   xmlns:sodipodi="http://sodipodi.sourceforge.net/DTD/sodipodi-0.dtd"
   xmlns="http://www.w3.org/2000/svg"
   xmlns:svg="http://www.w3.org/2000/svg"><sodipodi:namedview
     id="namedview1"
     pagecolor="#ffffff"
     bordercolor="#000000"
     borderopacity="0.25"
     inkscape:showpageshadow="2"
     inkscape:pageopacity="0.0"
     inkscape:pagecheckerboard="0"
     inkscape:deskcolor="#d1d1d1"
     inkscape:document-units="mm"
     inkscape:zoom="0.37597732"
     inkscape:cx="-190.17105"
     inkscape:cy="547.90539"
     inkscape:window-width="1280"
     inkscape:window-height="771"
     inkscape:window-x="0"
     inkscape:window-y="33"
     inkscape:window-maximized="0"
     inkscape:current-layer="layer1" /><defs
     id="defs1" /><g
     inkscape:label="Layer 1"
     inkscape:groupmode="layer"
     id="layer1"><path
       style="fill:#000000"
       d="m 102.11598,17.826901 c -3.166836,-1.598549 -9.375916,-3.54811 -13.190787,-4.141714 -2.482643,-0.386306 -3.110022,-0.629366 -3.110022,-1.204885 0,-0.549558 0.994323,-1.025043 4.182443,-2.000043 5.20694,-1.5924006 8.813077,-2.0910904 15.121146,-2.0910904 6.30806,0 9.9142,0.4986898 15.12114,2.0910904 3.24967,0.993822 4.18244,1.444725 4.18244,2.021784 0,0.583766 -0.48192,0.805428 -2.25208,1.035839 -3.59657,0.468144 -9.0221,2.115614 -12.85676,3.903973 -1.95119,0.909973 -3.838,1.63683 -4.19291,1.615239 -0.35491,-0.02159 -1.70698,-0.575178 -3.00461,-1.230193 z"
       id="path98" /><path
       style="fill:#000000"
       d="m 163.67297,33.032079 c -3.901,-1.505661 -7.6633,-2.383641 -12.37788,-2.888533 l -4.65644,-0.498666 -1.38389,-2.077831 c -2.26962,-3.407699 -5.71781,-7.150559 -8.86513,-9.622707 -3.80104,-2.98563 -3.85173,-3.564003 -0.27789,-3.171129 10.36305,1.139218 22.03754,7.382284 29.1319,15.578627 3.13024,3.616461 2.71054,4.33265 -1.57067,2.680239 z"
       id="path97" /><path
       style="fill:#000000"
       d="m 42.918312,33.347051 c 0,-0.328489 0.956077,-1.701839 2.124617,-3.051889 7.085211,-8.185764 19.019956,-14.540307 29.297332,-15.599089 3.35387,-0.345518 3.251834,0.306248 -0.520994,3.327905 -3.320765,2.659599 -5.851655,5.380058 -8.526225,9.164856 l -1.783967,2.524501 -3.539126,0.278237 c -4.115492,0.32355 -9.426078,1.503032 -13.243165,2.941309 -3.096371,1.166712 -3.808472,1.244152 -3.808472,0.41417 z"
       id="path96" /><path
       style="fill:#000000"
       d="m 129.30043,31.640081 c 2.08094,-0.804163 7.11947,-2.005828 12.19967,-2.909557 l 0.99143,-0.176369 -1.31789,-1.73869 c -2.05932,-2.716859 -6.83134,-7.226141 -9.8137,-9.273383 -2.57841,-1.769951 -2.84909,-1.859592 -5.41056,-1.791837 -3.29977,0.08728 -10.40423,1.69861 -13.73639,3.115479 l -2.46328,1.047411 2.08145,1.598411 c 2.70398,2.076467 7.65192,7.058586 9.98074,10.049677 l 1.83747,2.360016 1.56615,-0.653901 c 0.86138,-0.359645 2.69959,-1.091911 4.08491,-1.627257 z"
       id="path95" /><path
       style="fill:#000000"
       d="m 88.306152,31.943288 c 1.937083,-2.874264 6.678155,-7.674776 9.884884,-10.008815 l 2.759014,-2.008167 -1.977323,-0.840969 C 96.088509,17.85866 90.913415,16.66308 86.140798,16.12083 l -4.178543,-0.474753 -2.905225,1.908581 c -3.137464,2.06115 -8.442775,6.991476 -10.191679,9.471321 l -1.083796,1.536761 0.973647,0.186543 c 0.535506,0.102599 2.709967,0.496786 4.832136,0.875971 3.82928,0.684208 9.128465,2.33906 11.589325,3.619165 0.705078,0.366772 1.394227,0.674288 1.531442,0.683371 0.137215,0.0091 0.856336,-0.883944 1.598047,-1.984502 z"
       id="path93" /><path
       style="fill:#000000"
       d="m 110.0519,43.889897 c 1.88746,-1.902682 4.82999,-4.536983 6.53896,-5.854002 l 3.10721,-2.394581 -2.49178,-3.01484 c -2.75013,-3.327425 -5.35126,-5.666146 -9.40648,-8.457511 l -2.68105,-1.845474 -2.89554,1.967821 c -3.372827,2.292189 -7.795856,6.480594 -10.061263,9.527552 l -1.589132,2.137373 2.876038,2.050252 c 3.251865,2.318168 7.771767,6.712121 9.974317,9.696381 l 1.47902,2.003935 0.85897,-1.178742 c 0.47244,-0.648309 2.40326,-2.735482 4.29073,-4.638164 z"
       id="path91" /><path
       style="fill:#000000"
       d="m 171.76137,56.80687 c -3.74139,-1.703706 -9.94795,-3.29224 -14.42188,-3.6912 -1.83188,-0.163357 -3.40583,-0.414155 -3.49765,-0.55733 -0.0918,-0.143175 -0.39626,-2.107734 -0.67651,-4.365687 -0.5609,-4.519186 -2.05181,-9.947657 -3.67207,-13.370194 -1.64201,-3.468485 -1.60688,-3.516465 2.35898,-3.222422 5.50306,0.408018 12.72739,2.467738 16.84169,4.801718 2.35323,1.334953 5.08028,7.280415 6.55404,14.288996 0.73571,3.498739 0.73933,7.248176 0.007,7.414356 -0.23593,0.05355 -1.80812,-0.530658 -3.49375,-1.298237 z"
       id="path88" /><path
       style="fill:#000000"
       d="m 138.42097,53.767168 c 1.6201,-0.46876 5.06903,-1.194588 7.66429,-1.61295 l 4.71865,-0.76066 -0.12731,-1.609983 c -0.48871,-6.180267 -4.18385,-17.076602 -5.79098,-17.076602 -1.54269,0 -7.76224,0.912106 -9.94218,1.458034 -2.2584,0.565578 -8.75996,2.897839 -9.1657,3.287953 -0.0909,0.08741 0.52058,1.700109 1.35888,3.583782 1.89521,4.258624 3.2821,9.179617 3.5963,12.760548 l 0.24012,2.736597 2.25115,-0.957214 c 1.23814,-0.526468 3.57669,-1.340745 5.19678,-1.809505 z"
       id="path87" /><path
       style="fill:#000000"
       d="M 76.80683,57.219747 C 73.551766,55.582442 66.945668,53.744613 62.486929,53.235923 l -4.23914,-0.483636 0.243093,-4.351564 c 0.279358,-5.000728 1.349252,-8.981961 3.746391,-13.940866 l 1.644847,-3.402656 h 2.125282 c 6.107354,0 20.236737,4.294851 20.236737,6.151278 0,0.373492 -0.670311,2.207216 -1.489579,4.074942 -1.904159,4.341003 -3.535161,10.187759 -3.906762,14.004814 -0.336872,3.46033 -0.677703,3.623242 -4.040968,1.931512 z"
       id="path84" /><path
       style="fill:#000000"
       d="m 44.198359,53.330814 c 1.975444,-0.484946 5.246331,-1.110944 7.268637,-1.391108 l 3.67692,-0.509389 0.274217,-2.865692 c 0.370434,-3.871201 1.755952,-9.239462 3.321586,-12.869655 1.271026,-2.947094 1.27631,-2.989612 0.348778,-2.806509 -0.51799,0.102256 -1.90698,0.301192 -3.086643,0.442079 -3.176192,0.379333 -7.723012,1.719999 -11.438278,3.372667 l -3.287874,1.462551 -1.529887,3.217917 c -1.647276,3.464834 -3.049579,8.017047 -3.489201,11.32679 -0.150654,1.134219 -0.364215,2.377922 -0.47458,2.763785 -0.175818,0.614707 0.11043,0.580031 2.311973,-0.280074 1.38195,-0.539904 4.128908,-1.378417 6.104352,-1.863362 z"
       id="path83" /><path
       style="fill:#000000"
       d="m 190.47138,70.017969 c -2.3605,-2.941788 -5.7861,-5.93979 -9.65536,-8.450156 l -3.07805,-1.997034 -0.28998,-3.223935 c -0.34185,-3.800715 -1.60061,-8.94601 -3.07128,-12.554138 -1.90258,-4.667779 -1.21591,-5.199473 2.68446,-2.078598 7.65065,6.121664 13.74235,15.913314 15.74701,25.311368 1.27222,5.964308 0.66833,6.737641 -2.3368,2.992493 z"
       id="path81" /><path
       style="fill:#000000"
       d="m 16.751228,71.253018 c 0,-3.716963 2.831468,-12.053479 5.839343,-17.192418 3.844159,-6.567725 12.79718,-15.533383 14.181945,-14.201964 0.15681,0.150769 -0.52506,2.580823 -1.515267,5.400121 -1.32314,3.767221 -1.932479,6.340767 -2.298739,9.708739 l -0.498364,4.582744 -2.599594,1.689788 c -3.977347,2.585356 -7.033554,5.209191 -9.638276,8.274719 -2.517211,2.962534 -3.471048,3.440208 -3.471048,1.738271 z"
       id="path80" /><path
       style="fill:#000000"
       d="m 118.56513,64.769257 c 1.41613,-1.307195 3.89775,-3.245844 5.51472,-4.308109 l 2.93995,-1.931391 -0.27034,-2.497203 C 126.29325,51.81826 124.97088,46.536415 123.551,43.2571 c -0.7441,-1.718562 -1.4958,-3.209563 -1.67043,-3.313337 -0.50147,-0.297981 -6.90325,4.747558 -9.1647,7.223122 -1.12747,1.234219 -2.75059,3.217809 -3.60694,4.407978 l -1.55698,2.163942 1.19634,2.349121 c 1.77849,3.492227 3.1306,7.593821 3.71655,11.274015 l 0.52132,3.274312 1.5021,-1.745139 c 0.82616,-0.959827 2.66075,-2.814662 4.07687,-4.121857 z"
       id="path79" /><path
       style="fill:#000000"
       d="m 98.899643,62.49173 c 0.38315,-1.296509 1.391197,-3.79705 2.240097,-5.556758 l 1.54346,-3.19947 -1.6555,-2.31111 C 98.603568,48.040249 94.004892,43.4534 91.013347,41.435791 l -2.614126,-1.763064 -1.075055,2.337244 c -1.647733,3.582284 -2.780257,7.42245 -3.45983,11.731602 -0.339856,2.155015 -0.619057,4.123932 -0.620448,4.37537 -0.0014,0.251438 1.047506,1.127486 2.330881,1.946773 3.339771,2.132057 7.895782,6.007116 9.892195,8.413683 l 1.715874,2.068394 0.510083,-2.848388 c 0.280546,-1.566613 0.823571,-3.909167 1.206722,-5.205675 z"
       id="path77" /><path
       style="fill:#000000"
       d="m 135.08125,75.822668 c 1.72298,-0.405971 4.60868,-0.853912 6.41267,-0.995423 l 3.27998,-0.257294 0.97165,-1.649772 c 1.38008,-2.34322 3.00138,-6.56225 3.72463,-9.692414 0.69203,-2.994986 1.31173,-7.836419 1.00307,-7.836419 -1.203,0 -8.44835,1.455449 -10.60804,2.130949 -3.76911,1.17889 -8.40995,3.448738 -8.73953,4.274534 -0.14784,0.370433 -0.26881,1.408558 -0.26881,2.306943 0,2.315518 -1.1382,7.321475 -2.51557,11.06382 l -1.17614,3.195591 2.3917,-0.901193 c 1.31544,-0.495655 3.80141,-1.23335 5.52439,-1.639322 z"
       id="path75" /><path
       style="fill:#000000"
       d="M 82.207189,76.107349 C 80.824364,72.714739 79.744132,68.20837 79.43376,64.537527 l -0.267603,-3.165001 -2.144843,-1.124639 c -3.159587,-1.656716 -8.367526,-3.230832 -12.812666,-3.87267 -5.169809,-0.746474 -4.999951,-0.766461 -4.782746,0.56279 1.093143,6.689829 1.989224,9.825993 4.075554,14.263898 1.360255,2.893445 2.223049,3.574268 4.529603,3.574268 2.701664,0 7.732449,1.052246 11.677694,2.442523 1.824967,0.643105 3.352036,1.191824 3.393488,1.219374 0.04145,0.02755 -0.361322,-1.021275 -0.895052,-2.330721 z"
       id="path73" /><path
       style="fill:#000000"
       d="m 171.01655,76.610912 c 2.48941,-5.18044 4.68678,-15.196503 3.49439,-15.928195 -1.19293,-0.732027 -6.81587,-2.840494 -9.10188,-3.412986 -3.16667,-0.793038 -9.17669,-1.578675 -9.93536,-1.298762 -0.37856,0.139669 -0.59479,0.860954 -0.59514,1.985202 -0.001,3.161058 -2.55066,11.951552 -4.53856,15.647642 l -0.63054,1.17236 h 1.88637 c 2.58294,0 9.33423,1.698623 13.65211,3.434867 1.96496,0.790122 3.72999,1.454105 3.92229,1.475518 0.1923,0.02141 1.02315,-1.362628 1.84632,-3.075646 z"
       id="path71" /><path
       style="fill:#000000"
       d="m 44.038642,78.435435 c 3.533026,-1.54247 11.95515,-3.659262 14.559181,-3.659262 h 1.860989 L 59.384379,72.440281 C 57.861473,69.129378 56.298633,63.64336 55.643738,59.309555 l -0.560929,-3.711988 -1.899805,0.120056 c -4.838861,0.305786 -11.054762,1.962067 -15.956381,4.251718 l -2.000222,0.934346 0.256861,2.502479 c 0.141274,1.376364 0.690974,4.172874 1.221555,6.214468 0.995973,3.832344 3.521646,10.104856 4.068794,10.104856 0.170588,0 1.639852,-0.580525 3.265031,-1.290055 z"
       id="path69" /><path
       style="fill:#000000"
       d="m 103.83149,87.897083 c -0.89009,-3.32004 -1.37896,-4.660559 -2.89472,-7.937458 -1.487048,-3.214838 -1.508637,-3.340309 -1.243667,-7.227808 0.148308,-2.175897 0.672177,-5.436447 1.164147,-7.245668 1.16894,-4.298776 3.48555,-9.440307 4.3234,-9.595446 1.65851,-0.307096 4.97831,10.089877 5.37696,16.839638 l 0.25675,4.347037 -1.63817,3.274687 c -0.90099,1.801079 -2.06722,4.577697 -2.59162,6.170264 -1.15631,3.511625 -2.0593,3.962536 -2.75308,1.374754 z"
       id="path67" /><path
       style="fill:#000000"
       d="m 109.84476,90.345901 c 0.004,-0.283555 0.39016,-1.90755 0.85804,-3.608877 0.46787,-1.701328 0.97138,-4.485319 1.1189,-6.186647 0.30185,-3.481214 1.4952,-5.92912 4.78159,-9.808493 2.92886,-3.457324 9.7245,-9.163891 10.91277,-9.163891 2.07978,0 -0.48001,11.104894 -4.19601,18.203168 -1.24602,2.380141 -1.86813,3.030747 -4.77657,4.995428 -1.83918,1.242383 -4.27467,3.119725 -5.4122,4.171872 -2.03013,1.87775 -3.30107,2.41816 -3.28652,1.39744 z"
       id="path66" /><path
       style="fill:#000000"
       d="m 96.75387,88.708246 c -1.179664,-1.110975 -3.435252,-2.850398 -5.012418,-3.865383 -3.137432,-2.019094 -4.60614,-3.93076 -6.46661,-8.416918 -2.081025,-5.017983 -3.622603,-13.95234 -2.520414,-14.607288 1.262401,-0.75015 9.758986,7.081226 13.231364,12.195462 1.972403,2.905023 2.155404,3.391161 2.404296,6.386967 0.148168,1.783438 0.661036,4.58586 1.139706,6.227606 0.478666,1.641745 0.870306,3.26574 0.870306,3.608877 0,1.135995 -1.471445,0.518833 -3.64623,-1.529323 z"
       id="path65" /><path
       style="fill:#000000"
       d="m 114.1271,94.451833 c 0,-0.293729 0.96841,-1.541559 2.15201,-2.772956 1.18361,-1.231397 3.01939,-3.48189 4.07951,-5.001096 2.1151,-3.031067 4.10481,-4.439494 8.84525,-6.261163 5.41127,-2.079458 14.23565,-3.453822 14.95824,-2.329689 0.6509,1.012612 -5.74871,7.952288 -10.51694,11.404474 -3.50414,2.536986 -5.43055,3.323362 -8.79386,3.589727 -1.76949,0.140139 -4.66503,0.622858 -6.43453,1.072709 -3.81217,0.969151 -4.28968,1.002323 -4.28968,0.297994 z"
       id="path64" /><path
       style="fill:#000000"
       d="m 91.606246,94.122496 c -1.651529,-0.433911 -4.520421,-0.910268 -6.375317,-1.05857 -3.104274,-0.248192 -3.633158,-0.432837 -6.649013,-2.321316 -3.48074,-2.179582 -9.767551,-7.988762 -11.828233,-10.9296 -1.774722,-2.532741 -1.273212,-2.842713 3.591701,-2.219946 4.218455,0.540012 9.793189,2.277167 14.287225,4.452074 2.079676,1.006467 3.188412,1.850388 3.945039,3.002789 1.438485,2.190925 4.795968,6.199234 6.296984,7.517614 1.383635,1.215282 1.632938,2.440042 0.48509,2.383115 -0.412883,-0.02048 -2.101946,-0.392248 -3.753476,-0.82616 z"
       id="path63" /><path
       style="fill:#000000"
       d="m 189.35156,92.199203 c 1.70925,-4.378463 2.42811,-7.433549 2.70927,-11.514167 l 0.26069,-3.783551 -1.94882,-2.625818 c -2.14462,-2.88963 -7.36803,-7.989545 -9.8216,-9.589384 -1.73089,-1.128614 -2.07871,-0.892776 -2.07871,1.409431 0,1.965505 -2.00421,8.862992 -3.61155,12.429175 -0.8435,1.871455 -1.48593,3.422977 -1.42761,3.447828 0.0583,0.02485 1.58729,1.115776 3.39773,2.424279 3.4231,2.474054 7.9516,6.844504 9.77794,9.436674 0.58219,0.826319 1.19316,1.422396 1.35771,1.324615 0.16455,-0.09778 0.78778,-1.429367 1.38495,-2.959082 z"
       id="path62" /><path
       style="fill:#000000"
       d="m 28.582327,88.446005 c 1.632574,-1.439223 4.179758,-3.472616 5.660408,-4.518651 1.480649,-1.046035 2.59901,-2.094579 2.485245,-2.330098 -2.509585,-5.195403 -3.557454,-8.610927 -5.227234,-17.038136 -0.147816,-0.746014 -0.33659,-0.857825 -0.925826,-0.548366 -2.155757,1.132172 -7.237612,5.827381 -9.745348,9.003887 l -2.855906,3.617526 0.209632,3.711988 c 0.227948,4.036312 1.40392,8.786117 3.074513,12.418099 l 1.061582,2.307954 1.647309,-2.003718 c 0.906019,-1.102044 2.98305,-3.181263 4.615625,-4.620485 z"
       id="path60" /><path
       style="fill:#000000"
       d="m 155.24335,95.569779 c 3.23363,-2.093766 8.18347,-6.721982 10.31764,-9.647248 l 1.81678,-2.490227 -2.06688,-0.866315 c -4.91787,-2.061273 -9.60673,-3.254108 -15.16006,-3.856683 l -2.36896,-0.257049 -1.83622,2.503458 c -2.39825,3.269701 -5.23755,6.34189 -8.10661,8.771521 -2.17225,1.839546 -3.55519,2.555111 -2.866,1.482936 0.19116,-0.297388 0.11751,-0.364115 -0.19617,-0.177722 -0.91534,0.543917 -0.11604,0.943116 2.39398,1.195647 3.32298,0.334323 9.31064,2.036043 12.40451,3.525422 1.3835,0.666011 2.71107,1.229751 2.95015,1.252756 0.23908,0.023 1.46211,-0.623418 2.71784,-1.436496 z"
       id="path58" /><path
       style="fill:#000000"
       d="m 60.994638,95.634008 c 3.329835,-1.47921 8.455243,-2.922007 11.974886,-3.370918 l 2.06945,-0.263946 -2.407701,-1.975423 c -2.651497,-2.175446 -6.165926,-6.019204 -8.578196,-9.382038 l -1.561726,-2.177131 -2.601296,0.260358 c -4.387162,0.439103 -9.87961,1.71008 -13.291368,3.075682 -1.78742,0.715439 -3.338881,1.439296 -3.44769,1.608571 -0.313907,0.488346 5.175328,6.852317 7.765661,9.003156 2.356558,1.956727 6.141855,4.593773 6.633416,4.621202 0.143722,0.008 1.693776,-0.621761 3.444564,-1.399513 z"
       id="path56" /><path
       style="fill:#000000"
       d="m 125.49476,103.6327 c -2.70547,-1.24145 -5.2206,-2.11431 -8.25764,-2.86576 -2.77231,-0.68595 -2.29597,-1.438821 1.71587,-2.711983 1.94645,-0.617705 4.88789,-1.771101 6.53653,-2.5631 2.95307,-1.418639 3.05806,-1.436516 7.07798,-1.205185 2.24425,0.129147 5.70775,0.639364 7.69668,1.133815 4.69436,1.167025 10.07034,3.340456 10.22962,4.135687 0.22957,1.146096 -6.65227,3.700856 -12.72238,4.722976 -5.63858,0.94945 -9.20837,0.76147 -12.27666,-0.64645 z"
       id="path54" /><path
       style="fill:#000000"
       d="m 74.018534,104.47467 c -5.175122,-0.74058 -14.047424,-3.85002 -14.278597,-5.004159 -0.224184,-1.119248 7.106395,-3.785038 13.392202,-4.870121 1.399945,-0.241665 3.963175,-0.43939 5.696067,-0.43939 2.689095,0 3.541727,0.191244 5.819534,1.305312 1.467851,0.717922 4.309625,1.815899 6.315054,2.439951 4.274456,1.330129 4.873299,2.158037 2.064476,2.854167 -3.201093,0.79336 -4.7573,1.31738 -8.13953,2.74083 -3.474599,1.46232 -5.921502,1.68145 -10.869206,0.97341 z"
       id="path53" /><path
       style="fill:#000000"
       d="m 174.9104,110.98422 c 3.06996,-2.32275 5.86477,-5.21515 8.59952,-8.8998 l 1.92518,-2.593877 -1.61347,-2.355439 C 181.21294,93.3268 172.92879,85.912137 171.28259,85.912137 c -0.21241,0 -1.03739,0.871833 -1.83329,1.937407 -2.27868,3.05077 -6.72303,7.39462 -9.74046,9.520201 l -2.76363,1.946794 1.18464,0.824891 c 3.4188,2.38059 9.48296,8.27687 12.06616,11.73213 0.65642,0.87802 1.38764,1.48961 1.62491,1.35908 0.23728,-0.13052 1.62755,-1.14232 3.08948,-2.24842 z"
       id="path52" /><path
       style="fill:#000000"
       d="m 40.786658,111.17428 c 2.154595,-2.92009 6.7089,-7.35605 9.780552,-9.52641 l 2.715759,-1.918888 -1.428853,-1.026529 C 48.173544,96.058225 41.903249,89.54445 39.186023,85.542449 38.711511,84.843575 30.718825,91.66677 28.03526,95.06163 c -3.466165,4.384895 -3.385073,4.005098 -1.450028,6.79122 2.906362,4.18464 10.593747,11.23284 12.292402,11.27031 0.25492,0.006 1.113981,-0.87137 1.909024,-1.94888 z"
       id="path50" /><path
       style="fill:#000000"
       d="m 194.58404,116.1236 c -0.51938,-3.55074 -1.96817,-8.08228 -3.96461,-12.40058 l -1.9671,-4.254819 1.75649,-3.581598 c 1.89115,-3.856156 3.64951,-9.274988 4.13999,-12.758457 0.55261,-3.924673 1.93036,-2.582485 3.83465,3.73568 2.65932,8.823236 2.41858,18.333064 -0.69372,27.403774 -0.99166,2.89017 -1.49207,3.8151 -2.06408,3.8151 -0.57457,0 -0.82355,-0.46829 -1.04162,-1.9591 z"
       id="path48" /><path
       style="fill:#000000"
       d="m 12.506305,114.06138 c -1.579978,-4.76782 -2.007908,-6.8928 -2.38792,-11.85774 -0.353502,-4.618576 0.308472,-10.417294 1.739257,-15.235425 2.033493,-6.847737 3.180705,-7.753403 3.973636,-3.136987 0.663938,3.865421 2.423797,9.111817 4.18792,12.484802 0.797876,1.525532 1.450684,3.021467 1.450684,3.324299 0,0.302833 -0.662525,1.843631 -1.472279,3.424001 -1.934798,3.77608 -3.517418,8.37205 -4.148903,12.04854 -0.40624,2.36511 -0.662793,2.96983 -1.259952,2.96983 -0.571423,0 -1.066928,-0.95685 -2.082443,-4.02132 z"
       id="path47" /><path
       style="fill:#000000"
       d="m 155.95153,119.45329 c 3.42125,-0.63457 7.46137,-1.92422 10.03205,-3.20236 l 1.35484,-0.67363 -1.38336,-1.94373 c -1.8891,-2.65434 -7.75562,-8.19903 -10.73955,-10.15039 l -2.45189,-1.60344 -2.86194,1.31441 c -3.35632,1.54146 -9.20932,3.23947 -12.41506,3.60173 l -2.26065,0.25545 2.66134,2.1708 c 2.6941,2.19753 6.43918,6.36071 8.63896,9.60343 l 1.20341,1.77397 2.39505,-0.25486 c 1.31728,-0.14018 3.93934,-0.5413 5.8268,-0.89138 z"
       id="path46" /><path
       style="fill:#000000"
       d="m 137.98868,121.1538 c -4.12228,-0.78752 -8.07495,-2.09463 -11.92806,-3.94447 -2.74585,-1.31826 -3.5454,-1.94425 -4.7985,-3.75689 -0.827,-1.19628 -2.89412,-3.6247 -4.5936,-5.39649 -3.92339,-4.09035 -3.68977,-4.55966 1.60512,-3.22443 2.0444,0.51554 5.0846,1.03736 6.75601,1.1596 2.54804,0.18635 3.52398,0.49482 6.04171,1.90965 4.77424,2.68286 14.13601,12.17781 13.29579,13.48494 -0.35028,0.54493 -2.77327,0.45684 -6.37847,-0.23191 z"
       id="path44" /><path
       style="fill:#000000"
       d="m 65.903864,121.43784 c -0.776355,-1.20778 8.441509,-10.78612 12.676451,-13.17219 1.825919,-1.02876 3.556713,-1.55536 7.077982,-2.1535 2.563574,-0.43546 5.626223,-1.07341 6.805887,-1.41767 1.179663,-0.34425 2.482655,-0.62793 2.895538,-0.63038 1.182734,-0.007 0.890907,1.36292 -0.575657,2.70236 -0.729493,0.66626 -2.581551,2.75211 -4.115683,4.63522 -4.076926,5.00431 -6.109776,6.39082 -11.856755,8.08688 -7.347149,2.16832 -12.287403,2.91437 -12.907763,1.94928 z"
       id="path43" /><path
       style="fill:#000000"
       d="m 64.078697,118.31384 c 2.333668,-3.37935 6.336257,-7.6956 8.835595,-9.52797 l 2.227271,-1.63291 -3.042915,-0.49043 c -4.354383,-0.70181 -7.470421,-1.61778 -11.274055,-3.31404 l -3.327664,-1.484 -2.454946,1.61313 c -3.435772,2.25762 -8.219339,6.70373 -10.340214,9.61077 l -1.79154,2.45562 2.470611,1.09136 c 4.38734,1.93805 11.298732,3.58454 16.244114,3.86982 0.648094,0.0374 1.343572,-0.58372 2.453743,-2.19135 z"
       id="path42" /><path
       style="fill:#000000"
       d="m 185.49288,130.18772 c 1.61991,-1.55377 3.81761,-3.99731 4.88378,-5.43008 l 1.93849,-2.60502 -0.23669,-3.58162 c -0.27015,-4.08789 -1.41679,-8.64395 -3.08122,-12.24293 l -1.14446,-2.47466 -0.91808,1.23733 c -1.69501,2.28441 -7.3618,7.67762 -10.48545,9.97922 l -3.09557,2.2809 0.70239,1.50014 c 1.53292,3.27395 3.55461,9.52177 4.02585,12.44143 0.27358,1.69497 0.56789,3.324 0.65403,3.62005 0.22515,0.77381 3.17424,-1.28833 6.75693,-4.72476 z"
       id="path40" /><path
       style="fill:#000000"
       d="m 124.20786,135.25183 c -3.73971,-2.73913 -8.06508,-7.12183 -10.35676,-10.49403 -1.53586,-2.26003 -1.78101,-2.95661 -2.02612,-5.75732 -0.15336,-1.75242 -0.66331,-4.72917 -1.13321,-6.615 -0.4699,-1.88583 -0.85436,-3.60262 -0.85436,-3.8151 0,-0.79844 1.42947,-0.3431 2.51732,0.80186 1.37951,1.45194 5.5445,4.67399 7.85311,6.07521 1.37414,0.83404 2.06443,1.76193 3.58888,4.82417 1.03812,2.08533 2.37668,5.43945 2.97457,7.45361 1.12498,3.7898 1.6279,9.34283 0.86832,9.58769 -0.23593,0.0761 -1.78022,-0.85143 -3.43175,-2.06109 z"
       id="path38" /><path
       style="fill:#000000"
       d="m 82.089332,136.79813 c -0.807241,-2.0226 1.924855,-11.99209 4.780512,-17.44421 1.246736,-2.38032 1.943242,-3.1676 3.98167,-4.5006 1.358834,-0.8886 3.880778,-2.87236 5.604321,-4.40837 3.985935,-3.55224 4.430115,-3.3047 3.113231,1.73498 -0.522315,1.99888 -1.052812,4.93353 -1.178882,6.52144 -0.288946,3.63938 -2.185622,6.94967 -6.565622,11.45905 -2.669171,2.74802 -8.400143,7.30711 -9.185346,7.30711 -0.155496,0 -0.402944,-0.30123 -0.549884,-0.6694 z"
       id="path37" /><path
       style="fill:#000000"
       d="m 31.765128,133.57786 c 0,-2.0815 1.905235,-8.85275 3.631184,-12.90532 1.383837,-3.24928 1.470129,-3.66328 0.84069,-4.03339 -3.901892,-2.2943 -10.583174,-8.17931 -12.732736,-11.21525 -0.529079,-0.74724 -1.089863,-1.3599 -1.246186,-1.36145 -0.366266,-0.004 -2.259769,4.84569 -3.139295,8.03983 -0.374776,1.36106 -0.798722,4.17725 -0.9421,6.25821 l -0.260688,3.78355 1.941885,2.60931 c 3.172501,4.2629 10.621227,10.93456 11.58552,10.3769 0.176949,-0.10234 0.321726,-0.80091 0.321726,-1.55239 z"
       id="path36" /><path
       style="fill:#000000"
       d="m 103.81784,141.28263 c -1.62748,-3.49568 -3.36625,-8.90604 -3.8746,-12.05619 -0.656368,-4.06742 -0.258979,-6.93546 1.51548,-10.93752 0.80464,-1.81475 1.79006,-4.56117 2.18982,-6.10317 0.50356,-1.94238 0.91053,-2.76592 1.3248,-2.68088 0.55251,0.11342 2.05581,3.75477 4.7332,11.46493 1.34008,3.85907 1.17419,7.11435 -0.71073,13.94641 -1.53486,5.56327 -2.73538,8.32552 -3.61837,8.32552 -0.35847,0 -1.05465,-0.87452 -1.5596,-1.9591 z"
       id="path34" /><path
       style="fill:#000000"
       d="m 150.7224,141.48885 c -0.67727,-5.53819 -3.65182,-14.23713 -5.53712,-16.19304 -0.77729,-0.80639 -1.41154,-1.02646 -2.95834,-1.02646 -2.65902,0 -7.73511,-1.0434 -11.79311,-2.42409 l -3.33958,-1.13625 0.80876,1.81407 c 1.28922,2.89177 2.6057,8.27461 2.89835,11.8509 l 0.27,3.29933 2.14484,1.12448 c 3.02394,1.58537 8.37167,3.24147 12.4213,3.84667 5.5517,0.82967 5.33373,0.8792 5.0849,-1.15561 z"
       id="path33" /><path
       style="fill:#000000"
       d="m 55.424348,140.35463 c 0.384493,-3.6757 1.799117,-8.78305 3.518216,-12.70217 l 1.436985,-3.27596 -2.884114,-0.25772 c -3.348203,-0.2992 -9.210686,-1.85826 -13.496579,-3.58926 -1.647061,-0.66522 -3.116727,-1.20949 -3.265925,-1.20949 -0.393802,0 -2.328127,4.30877 -3.332826,7.42398 -0.912565,2.82953 -1.547184,5.84151 -1.963578,9.31937 l -0.25162,2.10162 2.901523,1.27113 c 5.12502,2.24522 11.802469,3.81694 15.556096,3.66154 l 1.50139,-0.0622 z"
       id="path31" /><path
       style="fill:#000000"
       d="m 160.61038,142.81464 c 3.89632,-0.54594 7.44028,-1.58262 11.52211,-3.37045 l 2.88293,-1.26272 -0.25901,-2.52229 c -0.39666,-3.86263 -2.04529,-9.6982 -3.73083,-13.20579 l -1.5192,-3.16144 -1.6298,0.67262 c -6.0253,2.48665 -12.96695,4.30478 -16.43569,4.30478 h -1.73143 l 0.63855,1.18725 c 2.03686,3.78712 4.5311,12.62737 4.5311,16.05942 0,0.87353 0.10106,1.68539 0.22457,1.80415 0.23874,0.22954 0.30187,0.22375 5.5067,-0.50553 z"
       id="path29" /><path
       style="fill:#000000"
       d="m 65.010194,142.78398 c 5.191319,-0.85262 13.155667,-3.87189 13.898298,-5.26881 0.194821,-0.36647 0.473713,-2.0583 0.619761,-3.75963 0.266121,-3.10009 1.719242,-8.7781 2.974482,-11.62267 l 0.669777,-1.51782 -1.931195,0.79592 c -2.968909,1.22359 -8.569453,2.48706 -12.369745,2.79057 l -3.431088,0.27403 -1.169968,2.06222 c -2.142517,3.77645 -4.611958,12.53253 -4.620797,16.3843 -0.0018,0.7707 -0.204786,0.77593 5.360475,-0.13811 z"
       id="path27" /><path
       style="fill:#000000"
       d="m 173.44723,158.39898 c 0.12236,-0.5104 0.83213,-2.59839 1.57727,-4.63999 1.28488,-3.52046 2.58192,-9.97886 2.58742,-12.88367 0.002,-1.12213 0.29354,-1.51099 1.82564,-2.43611 3.38937,-2.04658 8.15425,-6.05631 10.55627,-8.88328 3.06679,-3.60935 3.70383,-3.66656 3.30734,-0.29706 -1.08346,9.20764 -6.86507,19.70371 -14.771,26.8156 -3.6652,3.29709 -5.5194,4.14504 -5.08294,2.32451 z"
       id="path25" /><path
       style="fill:#000000"
       d="m 33.181547,157.32858 c -7.963281,-6.39406 -13.843921,-16.01028 -15.799042,-25.83512 -1.142925,-5.74341 -0.648905,-6.1179 2.752794,-2.08675 2.526665,2.9942 5.873556,5.88289 9.725253,8.39384 l 2.599594,1.69469 0.500357,4.60107 c 0.364962,3.35604 0.96739,5.92053 2.226303,9.47723 0.94927,2.68189 1.725945,5.07355 1.725945,5.3148 0,0.92254 -1.334447,0.3647 -3.731204,-1.55976 z"
       id="path24" /><path
       style="fill:#000000"
       d="m 122.76749,157.36788 c 2.1334,-4.7042 3.37241,-9.21606 4.00192,-14.57297 l 0.27061,-2.30278 -1.84505,-1.15706 c -3.39735,-2.13053 -7.70926,-5.72333 -10.04261,-8.3678 -2.22214,-2.51843 -2.31217,-2.57343 -2.31217,-1.41255 0,2.14829 -2.09191,9.21124 -3.71027,12.52706 l -1.57561,3.22821 1.67776,2.35305 c 2.39249,3.35545 6.37398,7.35851 9.61368,9.66574 1.53356,1.09217 2.84342,1.98856 2.91078,1.99198 0.0674,0.003 0.5223,-0.87537 1.01096,-1.95288 z"
       id="path23" /><path
       style="fill:#000000"
       d="m 95.929594,153.36327 c 1.905975,-1.82714 4.201196,-4.38755 5.100496,-5.68982 l 1.63509,-2.36775 -1.60754,-3.38126 c -1.66134,-3.49442 -3.660318,-10.24978 -3.660318,-12.36972 0,-1.15842 -0.09633,-1.09874 -2.350906,1.45645 -2.322054,2.63166 -7.681298,7.07036 -10.434726,8.64237 -1.400404,0.79954 -1.414659,0.83826 -1.151,3.12686 0.663127,5.75604 2.32069,11.65733 4.316745,15.36858 l 0.643518,1.19648 2.021615,-1.33007 c 1.111889,-0.73153 3.58105,-2.82499 5.487026,-4.65212 z"
       id="path21" /><path
       style="fill:#000000"
       d="m 158.28097,164.84712 c 2.22491,-0.53541 5.5383,-1.64711 7.36307,-2.47043 l 3.31777,-1.49696 1.52989,-3.21791 c 1.75557,-3.69263 3.06407,-8.06117 3.59129,-11.98989 l 0.36573,-2.72531 -2.24485,0.98814 c -2.97128,1.30789 -9.74005,2.93554 -13.8266,3.32481 l -3.28367,0.31279 -0.29552,3.13212 c -0.36157,3.83222 -1.64482,8.78446 -3.27322,12.63174 l -1.22129,2.88546 1.96604,-0.20054 c 1.08133,-0.11029 3.78644,-0.6386 6.01136,-1.17402 z"
       id="path19" /><path
       style="fill:#000000"
       d="m 56.001854,167.28491 c -3.11573,-0.40514 -8.451148,-2.0051 -12.011654,-3.60198 l -3.861251,-1.73177 -1.627178,-3.20686 c -0.894948,-1.76378 -2.107301,-4.90621 -2.694117,-6.98319 -1.193462,-4.22413 -1.845126,-10.30927 -1.148369,-10.7233 0.241464,-0.14348 1.883165,0.38065 3.648223,1.16474 3.927379,1.74466 10.132028,3.32969 14.590513,3.72727 1.831884,0.16336 3.409365,0.4194 3.505515,0.56898 0.09615,0.14958 0.390816,1.84432 0.654813,3.76608 0.80264,5.8428 3.331111,14.22723 4.810743,15.95246 0.234666,0.27362 0.302137,0.69122 0.149935,0.928 -0.266704,0.41491 -3.349758,0.48642 -6.017173,0.13957 z"
       id="path16" /><path
       style="fill:#000000"
       d="m 138.4208,167.34796 c -3.69917,-0.70675 -6.38723,-1.54129 -10.92721,-3.39249 -4.21461,-1.71854 -4.13166,-1.22057 -1.35506,-8.13425 1.867,-4.64879 3.41577,-10.75543 3.4258,-13.50751 0.007,-1.99028 0.62238,-2.00506 4.78701,-0.11507 3.88776,1.76435 9.94193,3.34386 14.33329,3.73951 l 3.30791,0.29804 -0.24209,4.38007 c -0.27997,5.06538 -1.35213,9.07276 -3.73748,13.96937 l -1.65758,3.40266 -2.49439,-0.0388 c -1.37192,-0.0213 -3.82001,-0.29202 -5.4402,-0.60157 z"
       id="path14" /><path
       style="fill:#000000"
       d="m 74.018534,165.30111 c 5.47259,-1.31478 10.633873,-3.45388 10.353355,-4.29096 -0.120182,-0.35863 -0.896222,-2.22965 -1.724535,-4.15782 -1.592994,-3.70823 -3.266712,-10.15117 -3.266712,-12.57515 0,-1.67106 0.04414,-1.65403 -2.051379,-0.79135 -2.991559,1.23155 -8.075895,2.55194 -12.559976,3.2618 -2.462761,0.38986 -4.686371,0.76344 -4.941355,0.83016 -1.236616,0.32361 1.235261,11.09197 3.759354,16.37706 l 1.323809,2.77187 2.623361,-0.24904 c 1.442849,-0.13697 4.360684,-0.66643 6.484078,-1.17657 z"
       id="path13" /><path
       style="fill:#000000"
       d="m 107.54651,175.22393 c 1.211,-0.78412 3.38073,-2.47508 4.82161,-3.75769 2.65048,-2.35935 6.8949,-7.43498 6.90248,-8.25424 0.002,-0.2451 -0.9128,-1.07107 -2.03348,-1.83548 -3.0238,-2.06253 -7.64701,-6.44569 -9.88359,-9.3704 -1.0842,-1.41777 -2.07882,-2.57377 -2.21027,-2.56888 -0.13144,0.005 -1.01113,1.04521 -1.95486,2.31182 -2.08122,2.79327 -7.442465,7.78363 -10.463803,9.73993 l -2.211615,1.43202 1.874019,2.43053 c 2.277306,2.95358 6.471477,6.9293 9.943459,9.42557 1.4156,1.01778 2.67291,1.85545 2.79402,1.8615 0.12112,0.006 1.21103,-0.63057 2.42203,-1.41468 z"
       id="path11" /><path
       style="fill:#000000"
       d="m 133.43068,184.00895 c 0,-0.32099 1.3043,-1.60811 2.89843,-2.86026 3.19444,-2.50916 5.91721,-5.44283 8.62405,-9.29203 l 1.77528,-2.5245 3.532,-0.29623 c 3.91255,-0.32815 10.17112,-1.77395 13.34955,-3.0839 4.22997,-1.74333 4.75417,-0.86361 1.63365,2.74162 -4.12956,4.77101 -10.64549,9.51696 -16.59208,12.08502 -5.99099,2.58724 -15.22088,4.54607 -15.22088,3.23028 z"
       id="path9" /><path
       style="fill:#000000"
       d="m 72.099325,184.03415 c -5.906216,-1.11255 -13.228942,-4.15823 -18.389851,-7.64874 -1.570384,-1.06211 -4.527039,-3.55865 -6.570344,-5.54786 -3.460943,-3.36933 -4.660192,-5.03892 -4.04456,-5.63084 0.140027,-0.13463 2.618859,0.52114 5.508517,1.45728 3.773878,1.22258 6.619799,1.84711 10.102564,2.21697 l 4.848639,0.51492 1.752672,2.49265 c 2.684094,3.81733 5.414746,6.75711 8.601443,9.26019 1.594134,1.25215 2.898425,2.51529 2.898425,2.80698 0,0.60479 -1.757771,0.63408 -4.707505,0.0785 z"
       id="path8" /><path
       style="fill:#000000"
       d="m 131.44585,181.43175 c 4.3606,-3.01454 11.30026,-10.15737 10.73015,-11.04429 -0.11912,-0.18531 -0.85606,-0.33692 -1.63765,-0.33692 -2.16366,0 -9.20588,-1.83132 -13.4224,-3.49047 l -3.76603,-1.4819 -0.64345,0.92475 c -2.89228,4.15669 -7.17135,8.69494 -10.87531,11.53403 l -2.08145,1.59544 2.51042,1.07038 c 2.10456,0.89733 5.47936,1.85031 9.80289,2.76813 0.47186,0.10017 2.18467,0.20366 3.80624,0.22997 2.83446,0.046 3.04979,-0.0223 5.57659,-1.76912 z"
       id="path7" /><path
       style="fill:#000000"
       d="m 90.719041,182.41649 c 3.636792,-0.773 7.520664,-1.98883 9.334229,-2.92202 0.74559,-0.38366 0.55804,-0.62181 -1.896926,-2.40867 -3.119945,-2.27087 -7.667599,-6.85883 -9.80695,-9.89387 -0.803991,-1.1406 -1.654838,-1.9929 -1.890771,-1.894 -6.50897,2.72843 -8.778893,3.37035 -17.707732,5.00761 l -0.977958,0.17932 1.264708,1.74194 c 1.599977,2.20373 7.317383,7.57741 10.128516,9.51961 1.934873,1.33679 2.417805,1.48198 4.933139,1.48316 1.533563,7.1e-4 4.512448,-0.36518 6.619745,-0.81308 z"
       id="path5" /><path
       style="fill:#000000"
       d="m 100.82907,190.83561 c -7.045892,-0.81218 -15.013899,-3.08308 -15.013899,-4.27899 0,-0.56115 0.633242,-0.81291 2.983337,-1.18606 3.852428,-0.61171 9.442663,-2.3127 12.554542,-3.82008 3.00846,-1.45728 4.05441,-1.4801 6.78828,-0.14811 3.14054,1.53012 9.16109,3.35681 12.95651,3.93112 2.68704,0.4066 3.3245,0.64204 3.3245,1.22787 0,0.55429 -0.98399,1.02626 -4.18244,2.00608 -2.30034,0.70469 -5.20806,1.46408 -6.4616,1.68752 -2.63913,0.47042 -10.75026,0.83413 -12.94923,0.58065 z"
       id="path3" /><path
       style="fill:#000000"
       d="m 96.75387,193.13867 c -3.973908,-0.68361 -9.657112,-2.45942 -12.989958,-4.05892 -2.901837,-1.39265 -3.816382,-1.62196 -7.403018,-1.85622 -13.857127,-0.90506 -28.888241,-9.39577 -36.397712,-20.56018 -1.401089,-2.08302 -2.508675,-3.14793 -4.67515,-4.49505 -8.258774,-5.1353 -15.784825,-14.75715 -19.144695,-24.47596 -1.302965,-3.76898 -2.394889,-9.33277 -2.394889,-12.20293 0,-1.48784 -0.471841,-2.91629 -1.923533,-5.82329 -1.057942,-2.11852 -2.4562478,-5.70785 -3.1073451,-7.97629 -1.1096811,-3.86615 -1.1826597,-4.62807 -1.1653911,-12.167069 0.016986,-7.41558 0.1088022,-8.364212 1.1776269,-12.167073 0.6375626,-2.268437 2.0144593,-5.887625 3.0597693,-8.042641 1.64091,-3.382905 1.933512,-4.402746 2.141728,-7.46482 0.49062,-7.215205 3.464896,-15.278076 8.204094,-22.240224 2.66411,-3.913726 9.41561,-10.465279 13.132449,-12.743527 2.169404,-1.329743 3.281632,-2.380532 4.609847,-4.355206 7.586961,-11.27962 22.578782,-19.780316 36.483201,-20.686787 3.34122,-0.217824 4.564486,-0.493938 6.665981,-1.504637 6.766591,-3.2543435 13.205864,-4.5931367 22.091885,-4.5931367 8.88518,0 15.3222,1.3381693 22.09188,4.5926067 2.08333,1.001534 3.33458,1.287301 6.56594,1.499566 14.00306,0.919847 28.94783,9.340739 36.49775,20.565291 1.40109,2.083015 2.50868,3.147933 4.67515,4.495046 11.45527,7.122885 20.4698,21.8122 21.34391,34.780228 0.2209,3.277155 0.48505,4.219893 2.14504,7.6556 1.04121,2.155016 2.42807,5.774204 3.0819,8.042641 1.11554,3.870331 1.1878,4.619927 1.17283,12.167073 -0.0147,7.433279 -0.10418,8.355139 -1.18031,12.167069 -0.64039,2.26844 -2.02006,5.88763 -3.06594,8.04264 -1.6712,3.44348 -1.93212,4.37104 -2.15352,7.6556 -0.70983,10.53091 -6.64306,22.18144 -15.34257,30.12677 -1.73924,1.58847 -4.43984,3.68253 -6.00134,4.65346 -2.16647,1.34712 -3.27406,2.41203 -4.67515,4.49505 -7.42096,11.03282 -22.66306,19.67979 -36.17377,20.52166 -3.40747,0.21233 -4.39002,0.4667 -7.96234,2.06135 -7.06622,3.15431 -11.01763,3.98171 -19.73256,4.1319 -4.12882,0.0712 -8.472127,-0.0367 -9.65179,-0.23959 z"
       id="path1" /></g></svg>
